<svg width="1440" height="805" viewBox="0 0 1440 805" fill="none" xmlns="http://www.w3.org/2000/svg">
<path d="M0 0H1440V804.794H0V0Z" fill="white"/>
<line x1="1414.96" y1="2.99453e-08" x2="1414.96" y2="638" stroke="#DEDEDE"/>
<line x1="1315.7" y1="2.99453e-08" x2="1315.7" y2="638" stroke="#DEDEDE"/>
<line x1="1216.44" y1="2.99453e-08" x2="1216.44" y2="638" stroke="#DEDEDE"/>
<line x1="1117.18" y1="2.99453e-08" x2="1117.18" y2="638" stroke="#DEDEDE"/>
<line x1="1017.92" y1="2.99453e-08" x2="1017.92" y2="638" stroke="#DEDEDE"/>
<line x1="918.654" y1="2.99453e-08" x2="918.654" y2="638" stroke="#DEDEDE"/>
<line x1="819.396" y1="2.99453e-08" x2="819.396" y2="638" stroke="#DEDEDE"/>
<line x1="720.137" y1="2.99453e-08" x2="720.137" y2="638" stroke="#DEDEDE"/>
<line x1="620.875" y1="2.99453e-08" x2="620.875" y2="638" stroke="#DEDEDE"/>
<line x1="521.615" y1="2.99453e-08" x2="521.615" y2="638" stroke="#DEDEDE"/>
<line x1="422.355" y1="2.99453e-08" x2="422.355" y2="638" stroke="#DEDEDE"/>
<line x1="323.096" y1="2.99453e-08" x2="323.096" y2="638" stroke="#DEDEDE"/>
<line x1="223.836" y1="2.99453e-08" x2="223.836" y2="638" stroke="#DEDEDE"/>
<line x1="124.575" y1="2.99453e-08" x2="124.575" y2="638" stroke="#DEDEDE"/>
<line x1="25.3154" y1="2.18557e-08" x2="25.3154" y2="638" stroke="#DEDEDE"/>
<line x1="3.35714e-08" y1="468.235" x2="1440" y2="468.235" stroke="#DEDEDE"/>
<line x1="3.35714e-08" y1="311.99" x2="1440" y2="311.99" stroke="#DEDEDE"/>
<line x1="3.35714e-08" y1="155.745" x2="1440" y2="155.745" stroke="#DEDEDE"/>
<rect x="-13" y="564" width="1453" height="224" fill="url(#paint0_linear_136_3430)"/>
<defs>
<linearGradient id="paint0_linear_136_3430" x1="713.5" y1="564" x2="713.829" y2="866" gradientUnits="userSpaceOnUse">
<stop stop-color="white" stop-opacity="0"/>
<stop offset="1" stop-opacity="0.41"/>
</linearGradient>
</defs>
</svg>
