<svg width="532" height="589" viewBox="0 0 532 589" fill="none" xmlns="http://www.w3.org/2000/svg">
	<path d="M456.309 407.015C474.902 371.713 483.708 333.885 483.708 294.258C483.708 247.599 471.274 204.148 446.59 164.294C435.982 147.178 423.776 131.314 409.267 117.43C383.898 93.1214 354.742 74.6852 321.617 62.4627C292.484 51.7196 262.462 46.8716 231.526 47.4861C227.009 47.5772 225.389 46.644 225.344 41.7504C225.23 29.4596 224.477 17.1688 223.77 4.87799C223.564 1.35007 224.431 0.189273 228.241 0.0982299C291.686 -1.47226 349.541 15.8031 402.24 50.9002C423.411 64.9891 442.027 82.0142 458.681 100.974C482.042 127.558 499.837 157.671 512.362 190.879C525.183 224.906 531.479 260.14 531.091 296.352C530.59 342.01 520.825 385.688 499.563 426.475C490.255 424.063 482.316 418.6 473.692 414.685C467.921 412.068 462.537 408.654 456.331 407.015H456.309Z" fill="#FE87C8" fill-opacity="0.56"/>
	<path d="M405.48 245.254C419.647 297.786 412.621 347.291 382.256 392.516C356.545 430.8 320.682 455.609 275.351 465.806C229.952 476.003 186.926 469.402 146.546 446.209C145.884 445.822 145.314 445.253 144.698 444.752C144.356 441.975 145.93 439.881 147.23 437.673C152.226 429.184 157.382 420.83 162.721 412.546C164.66 409.541 166.12 406.355 166.69 402.804C180.926 412.25 196.553 418.532 213.367 421.104C253.427 427.203 289.496 418.304 320.454 391.333C351.321 364.452 365.556 330.334 364.803 289.751C364.598 279.236 362.933 268.88 360.127 258.706C363.024 255.861 367.016 255.815 370.575 254.882C382.256 251.877 393.594 247.621 405.457 245.231L405.48 245.254Z" fill="#FE87C8" fill-opacity="0.56"/>
	<path d="M203.83 527.624C164.751 522.002 129.116 507.731 97.1086 484.697C71.9908 466.625 51.5726 444.16 35.2381 417.917C16.0291 387.008 4.82762 353.459 1.15464 317.337C-0.236991 303.681 -0.328245 290.025 0.652738 276.323C0.926501 272.385 2.45501 271.93 5.9683 272.317C18.8123 273.751 31.6792 275.025 44.5461 275.936C48.7438 276.232 48.1278 278.53 48.0137 281.125C47.2837 299.22 47.8769 317.201 51.9377 335C58.3027 362.927 70.2342 388.169 88.0744 410.588C119.169 449.623 159.777 472.429 208.918 480.509C210.629 484.447 208.872 488.225 208.348 492.049C206.728 503.907 204.218 515.652 203.83 527.669V527.624Z" fill="#FE87C8" fill-opacity="0.56"/>
	<path d="M203.831 527.624C201.686 526.304 202.188 524.347 202.485 522.389C204.652 508.414 206.774 494.439 208.918 480.487C236.865 483.969 264.469 482.421 291.389 473.909C340.256 458.454 376.963 428.091 401.876 383.435C402.925 381.546 404.088 379.702 405.206 377.858C408.993 377.927 411.777 380.43 414.971 381.933C425.921 387.076 436.461 393.04 447.594 397.797C434.066 426.407 415.016 450.875 391.176 471.564C350.089 507.23 302.157 526.304 247.884 529.536C233.169 530.424 218.454 529.536 203.831 527.647V527.624Z" fill="#E4007A" fill-opacity="0.13"/>
	<path d="M447.617 397.774C446.385 398.639 445.221 398.684 443.784 397.956C431.67 391.856 419.533 385.87 407.419 379.793C406.575 379.361 405.936 378.496 405.229 377.836C412.644 360.856 419.077 343.581 421.769 325.144C430.689 264.35 414.606 211.113 373.176 165.637C370.324 162.519 369.754 160.789 373.13 157.603C382.073 149.113 390.72 140.304 399.206 131.359C402.035 128.401 403.723 128.742 406.347 131.496C472.575 200.666 490.415 302.247 451.586 389.876C450.4 392.539 449.989 395.657 447.617 397.751V397.774Z" fill="#C30061" fill-opacity="0.4"/>
	<path d="M335.579 571.279C310.689 580.839 284.773 585.96 258.286 587.872C197.853 592.264 141.253 579.45 88.5305 549.588C84.2643 547.175 83.9906 545.446 86.5229 541.508C92.751 531.835 98.751 522.002 104.363 511.942C106.918 507.344 108.994 506.274 113.899 509.119C144.287 526.736 177.116 536.91 212.089 540.211C248.91 543.693 284.773 539.459 319.564 526.759C320.111 526.554 320.727 526.554 321.297 526.44C323.077 537.252 328.142 546.948 331.632 557.167C333.206 561.788 335.83 566.112 335.556 571.233L335.579 571.279Z" fill="#FE4D9F" fill-opacity="0.48"/>
	<path d="M335.579 571.279C330.606 558.01 325.655 544.717 320.613 531.471C319.906 529.604 320.157 528.011 321.298 526.486C355.906 513.262 386.613 494.029 412.62 467.559C430.255 449.6 444.765 429.366 456.286 407.015C457.586 405.9 458.978 405.444 460.62 406.332C473.441 413.32 487.015 418.873 499.517 426.475C464.088 495.145 410.111 543.124 337.86 570.665C337.13 570.938 336.332 571.074 335.556 571.302L335.579 571.279Z" fill="#E4007A" fill-opacity="0.13"/>
	<path d="M405.48 245.254C402.72 248.327 398.659 248.213 395.146 249.237C383.534 252.583 372.081 256.612 360.127 258.729C346.895 217.327 320.271 188.489 279.344 173.148C271.314 170.144 263.009 168.027 254.477 167.117C250.987 166.73 250.348 165.455 250.759 162.223C252.31 149.818 253.77 137.391 254.842 124.941C255.23 120.503 256.576 119.342 261.025 120.07C316.188 128.947 358.439 157.056 387.708 204.467C395.579 217.19 401.305 230.938 405.457 245.3L405.48 245.254Z" fill="#E4007A" fill-opacity="0.13"/>
	<path d="M166.713 402.827C169.017 404.921 167.968 406.969 166.667 409.063C159.344 420.944 152.044 432.848 144.721 444.752C116.363 428.25 95.2607 404.943 79.5193 376.402C76.8729 371.622 77.8311 369.846 82.5763 367.752C93.4812 362.973 104.181 357.76 114.812 352.412C118.394 350.614 120.082 350.909 122.044 354.688C130.964 371.827 143.466 386.007 158.888 397.706C161.397 399.617 164.774 400.118 166.713 402.827V402.827Z" fill="#E4007A" fill-opacity="0.13"/>
</svg>
	