<svg width="41" height="42" viewBox="0 0 41 42" fill="none" xmlns="http://www.w3.org/2000/svg">
<circle cx="20.5" cy="21.0234" r="20.5" fill="#191A23"/>
<path d="M11.25 25.2244C10.5326 25.6386 10.2867 26.556 10.701 27.2734C11.1152 27.9909 12.0326 28.2367 12.75 27.8225L11.25 25.2244ZM30.7694 16.9117C30.9838 16.1115 30.5089 15.289 29.7087 15.0745L16.6687 11.5805C15.8685 11.3661 15.046 11.841 14.8316 12.6412C14.6172 13.4414 15.0921 14.2639 15.8923 14.4783L27.4834 17.5841L24.3776 29.1752C24.1631 29.9754 24.638 30.7979 25.4382 31.0123C26.2384 31.2267 27.0609 30.7519 27.2753 29.9517L30.7694 16.9117ZM12.75 27.8225L30.0705 17.8225L28.5705 15.2244L11.25 25.2244L12.75 27.8225Z" fill="#E6007A"/>
</svg>
