<svg width="48" height="48" viewBox="0 0 48 48" fill="none" xmlns="http://www.w3.org/2000/svg">
<g id="Iconsax/Bold/quoteup">
<path id="Vector" d="M16.18 23.262H6.8C6.96 13.922 8.8 12.382 14.54 8.982C15.2 8.582 15.42 7.742 15.02 7.062C14.9279 6.90455 14.8053 6.76702 14.6595 6.65744C14.5137 6.54785 14.3475 6.4684 14.1706 6.42372C13.9938 6.37904 13.8098 6.37002 13.6294 6.3972C13.449 6.42437 13.2758 6.48719 13.12 6.582C6.36 10.582 4 13.022 4 24.642V35.422C4 38.842 6.78 41.602 10.18 41.602H16.18C19.7 41.602 22.36 38.942 22.36 35.422V29.422C22.36 25.922 19.7 23.262 16.18 23.262ZM37.818 23.262H28.438C28.598 13.922 30.438 12.382 36.178 8.982C36.838 8.582 37.058 7.742 36.658 7.062C36.5638 6.90407 36.4393 6.76632 36.2916 6.65665C36.144 6.54699 35.9762 6.46757 35.7978 6.42297C35.6193 6.37836 35.4339 6.36945 35.252 6.39674C35.0701 6.42404 34.8955 6.48699 34.738 6.582C27.978 10.582 25.618 13.022 25.618 24.662V35.442C25.618 38.862 28.398 41.622 31.798 41.622H37.798C41.318 41.622 43.978 38.962 43.978 35.442V29.442C43.998 25.922 41.338 23.262 37.818 23.262Z" fill="#E6007A"/>
</g>
</svg>
