<svg width="272" height="302" viewBox="0 0 272 302" fill="none" xmlns="http://www.w3.org/2000/svg">
<mask id="mask0_281_5198" style="mask-type:alpha" maskUnits="userSpaceOnUse" x="19" y="-1" width="304" height="304">
<mask id="path-1-outside-1_281_5198" maskUnits="userSpaceOnUse" x="18.4392" y="-1" width="304" height="304" fill="black">
<rect fill="white" x="18.4392" y="-1" width="304" height="304"/>
<path d="M170.872 75.2956L180.393 0L180.318 75.8902L199.21 2.37854L189.69 77.6741L217.656 7.06129L198.764 80.6473L235.358 14.0482L207.318 84.6611L252.019 23.1907L215.35 89.7898L267.341 34.4145L222.714 95.8105L281.249 47.4221L229.185 102.723L293.373 62.065L234.763 110.453L303.563 78.1201L239.374 118.778L311.67 95.2902L242.87 127.623L317.546 113.352L245.25 136.84L321.116 132.009L246.44 146.206L322.306 150.963L246.44 155.72L321.116 169.917L245.25 165.16L317.546 188.573L242.87 174.377L311.67 206.71L239.374 183.222L303.563 223.88L234.763 191.547L293.373 239.935L229.185 199.203L281.249 254.578L222.714 206.115L267.341 267.586L215.35 212.21L252.019 278.735L207.318 217.265L235.358 287.877L198.764 221.353L217.656 294.864L189.69 224.252L199.21 299.621L180.318 226.035L180.393 302L170.872 226.63L161.352 302L161.352 226.035L142.46 299.621L152.055 224.252L124.089 294.864L142.981 221.353L106.387 287.877L134.427 217.265L89.7263 278.735L126.395 212.21L74.3301 267.586L119.031 206.115L60.4958 254.578L112.56 199.203L48.3722 239.935L106.982 191.547L38.1824 223.88L102.37 183.222L30.0752 206.71L98.8747 174.377L24.1994 188.573L96.4947 165.16L20.6293 169.917L95.3046 155.72L19.4392 150.963L95.3046 146.206L20.6293 132.009L96.4947 136.84L24.1994 113.352L98.8747 127.623L30.0752 95.2902L102.37 118.778L38.1824 78.1201L106.982 110.453L48.3722 62.065L112.56 102.723L60.4958 47.4221L119.031 95.8105L74.3301 34.4145L126.395 89.7898L89.7263 23.1907L134.427 84.6611L106.387 14.0482L142.981 80.6473L124.089 7.06129L152.055 77.6741L142.46 2.37854L161.352 75.8902V0L170.872 75.2956Z"/>
</mask>
<path d="M170.872 75.2956L180.393 0L180.318 75.8902L199.21 2.37854L189.69 77.6741L217.656 7.06129L198.764 80.6473L235.358 14.0482L207.318 84.6611L252.019 23.1907L215.35 89.7898L267.341 34.4145L222.714 95.8105L281.249 47.4221L229.185 102.723L293.373 62.065L234.763 110.453L303.563 78.1201L239.374 118.778L311.67 95.2902L242.87 127.623L317.546 113.352L245.25 136.84L321.116 132.009L246.44 146.206L322.306 150.963L246.44 155.72L321.116 169.917L245.25 165.16L317.546 188.573L242.87 174.377L311.67 206.71L239.374 183.222L303.563 223.88L234.763 191.547L293.373 239.935L229.185 199.203L281.249 254.578L222.714 206.115L267.341 267.586L215.35 212.21L252.019 278.735L207.318 217.265L235.358 287.877L198.764 221.353L217.656 294.864L189.69 224.252L199.21 299.621L180.318 226.035L180.393 302L170.872 226.63L161.352 302L161.352 226.035L142.46 299.621L152.055 224.252L124.089 294.864L142.981 221.353L106.387 287.877L134.427 217.265L89.7263 278.735L126.395 212.21L74.3301 267.586L119.031 206.115L60.4958 254.578L112.56 199.203L48.3722 239.935L106.982 191.547L38.1824 223.88L102.37 183.222L30.0752 206.71L98.8747 174.377L24.1994 188.573L96.4947 165.16L20.6293 169.917L95.3046 155.72L19.4392 150.963L95.3046 146.206L20.6293 132.009L96.4947 136.84L24.1994 113.352L98.8747 127.623L30.0752 95.2902L102.37 118.778L38.1824 78.1201L106.982 110.453L48.3722 62.065L112.56 102.723L60.4958 47.4221L119.031 95.8105L74.3301 34.4145L126.395 89.7898L89.7263 23.1907L134.427 84.6611L106.387 14.0482L142.981 80.6473L124.089 7.06129L152.055 77.6741L142.46 2.37854L161.352 75.8902V0L170.872 75.2956Z" stroke="black" stroke-width="2" stroke-miterlimit="10" mask="url(#path-1-outside-1_281_5198)"/>
</mask>
<g mask="url(#mask0_281_5198)">
<rect x="-32" width="203" height="302" rx="45" fill="black"/>
</g>
<path d="M44.6077 219.088L65.9094 230.694L44.6077 242.394L32.9547 263.649L21.3017 242.394L4.71203e-05 230.694L21.3017 219.088L32.9547 197.74L44.6077 219.088Z" fill="#E6007A"/>
<path d="M101.18 113.513L139.245 134.253L101.18 155.16L80.357 193.141L59.5339 155.16L21.4692 134.253L59.5339 113.513L80.357 75.3653L101.18 113.513Z" fill="#191A23"/>
</svg>
