<svg width="16" height="16" viewBox="0 0 16 16" fill="none" xmlns="http://www.w3.org/2000/svg">
<path d="M6.22341 3.70138C6.49615 3.65819 6.68223 3.40207 6.63903 3.12932C6.59584 2.85658 6.33972 2.6705 6.06697 2.7137C4.42672 2.97349 3.14029 4.25991 2.8805 5.90017C2.8373 6.17291 3.02338 6.42903 3.29613 6.47223C3.56887 6.51543 3.82499 6.32935 3.86819 6.0566C4.06021 4.84424 5.01105 3.8934 6.22341 3.70138Z" fill="#485F7D"/>
<path fill-rule="evenodd" clip-rule="evenodd" d="M7.33333 0.666504C3.74348 0.666504 0.833328 3.57665 0.833328 7.1665C0.833328 10.7564 3.74348 13.6665 7.33333 13.6665C10.9232 13.6665 13.8333 10.7564 13.8333 7.1665C13.8333 3.57665 10.9232 0.666504 7.33333 0.666504ZM1.83333 7.1665C1.83333 4.12894 4.29576 1.6665 7.33333 1.6665C10.3709 1.6665 12.8333 4.12894 12.8333 7.1665C12.8333 10.2041 10.3709 12.6665 7.33333 12.6665C4.29576 12.6665 1.83333 10.2041 1.83333 7.1665Z" fill="#485F7D"/>
<path d="M13.0203 12.1463C12.825 11.9511 12.5084 11.9511 12.3132 12.1463C12.1179 12.3416 12.1179 12.6582 12.3132 12.8534L14.9797 15.5201C15.175 15.7153 15.4916 15.7153 15.6869 15.5201C15.8821 15.3248 15.8821 15.0082 15.6869 14.813L13.0203 12.1463Z" fill="#485F7D"/>
</svg>
