<svg width="119" height="120" viewBox="0 0 119 120" fill="none" xmlns="http://www.w3.org/2000/svg">
<path d="M29.0244 48.7789C29.0244 38.7603 37.1461 30.6387 47.1647 30.6387H71.1098C81.1284 30.6387 89.25 38.7603 89.25 48.7789V72.724C89.25 82.7426 81.1284 90.8643 71.1098 90.8643H47.1647C37.1461 90.8643 29.0244 82.7426 29.0244 72.724V48.7789Z" fill="#E6007A"/>
<g filter="url(#filter0_b_246_4277)">
<path d="M0 11.7728C0 5.76167 4.873 0.888672 10.8841 0.888672H43.5366C49.5477 0.888672 54.4207 5.76167 54.4207 11.7728V44.4253C54.4207 50.4364 49.5477 55.3094 43.5366 55.3094H10.8841C4.873 55.3094 0 50.4364 0 44.4253V11.7728Z" fill="url(#paint0_linear_246_4277)" fill-opacity="0.3"/>
</g>
<g filter="url(#filter1_b_246_4277)">
<path fill-rule="evenodd" clip-rule="evenodd" d="M43.5366 1.25148H10.8841C5.07337 1.25148 0.362805 5.96204 0.362805 11.7728V44.4253C0.362805 50.236 5.07337 54.9466 10.8841 54.9466H43.5366C49.3474 54.9466 54.0579 50.236 54.0579 44.4253V11.7728C54.0579 5.96204 49.3474 1.25148 43.5366 1.25148ZM10.8841 0.888672C4.873 0.888672 0 5.76167 0 11.7728V44.4253C0 50.4364 4.873 55.3094 10.8841 55.3094H43.5366C49.5477 55.3094 54.4207 50.4364 54.4207 44.4253V11.7728C54.4207 5.76167 49.5477 0.888672 43.5366 0.888672H10.8841Z" fill="url(#paint1_linear_246_4277)"/>
<path fill-rule="evenodd" clip-rule="evenodd" d="M43.5366 1.25148H10.8841C5.07337 1.25148 0.362805 5.96204 0.362805 11.7728V44.4253C0.362805 50.236 5.07337 54.9466 10.8841 54.9466H43.5366C49.3474 54.9466 54.0579 50.236 54.0579 44.4253V11.7728C54.0579 5.96204 49.3474 1.25148 43.5366 1.25148ZM10.8841 0.888672C4.873 0.888672 0 5.76167 0 11.7728V44.4253C0 50.4364 4.873 55.3094 10.8841 55.3094H43.5366C49.5477 55.3094 54.4207 50.4364 54.4207 44.4253V11.7728C54.4207 5.76167 49.5477 0.888672 43.5366 0.888672H10.8841Z" fill="url(#paint2_radial_246_4277)"/>
</g>
<g filter="url(#filter2_b_246_4277)">
<path d="M64.5793 11.7728C64.5793 5.76167 69.4523 0.888672 75.4635 0.888672H108.116C114.127 0.888672 119 5.76167 119 11.7728V44.4253C119 50.4364 114.127 55.3094 108.116 55.3094H75.4635C69.4523 55.3094 64.5793 50.4364 64.5793 44.4253V11.7728Z" fill="url(#paint3_linear_246_4277)" fill-opacity="0.3"/>
</g>
<g filter="url(#filter3_b_246_4277)">
<path fill-rule="evenodd" clip-rule="evenodd" d="M108.116 1.25148H75.4635C69.6527 1.25148 64.9422 5.96204 64.9422 11.7728V44.4253C64.9422 50.236 69.6527 54.9466 75.4635 54.9466H108.116C113.927 54.9466 118.637 50.236 118.637 44.4253V11.7728C118.637 5.96204 113.927 1.25148 108.116 1.25148ZM75.4635 0.888672C69.4523 0.888672 64.5793 5.76167 64.5793 11.7728V44.4253C64.5793 50.4364 69.4523 55.3094 75.4635 55.3094H108.116C114.127 55.3094 119 50.4364 119 44.4253V11.7728C119 5.76167 114.127 0.888672 108.116 0.888672H75.4635Z" fill="url(#paint4_linear_246_4277)"/>
<path fill-rule="evenodd" clip-rule="evenodd" d="M108.116 1.25148H75.4635C69.6527 1.25148 64.9422 5.96204 64.9422 11.7728V44.4253C64.9422 50.236 69.6527 54.9466 75.4635 54.9466H108.116C113.927 54.9466 118.637 50.236 118.637 44.4253V11.7728C118.637 5.96204 113.927 1.25148 108.116 1.25148ZM75.4635 0.888672C69.4523 0.888672 64.5793 5.76167 64.5793 11.7728V44.4253C64.5793 50.4364 69.4523 55.3094 75.4635 55.3094H108.116C114.127 55.3094 119 50.4364 119 44.4253V11.7728C119 5.76167 114.127 0.888672 108.116 0.888672H75.4635Z" fill="url(#paint5_radial_246_4277)"/>
</g>
<g filter="url(#filter4_b_246_4277)">
<path d="M64.5793 76.352C64.5793 70.3409 69.4523 65.4679 75.4635 65.4679H108.116C114.127 65.4679 119 70.3409 119 76.352V109.004C119 115.016 114.127 119.889 108.116 119.889H75.4635C69.4523 119.889 64.5793 115.016 64.5793 109.004V76.352Z" fill="url(#paint6_linear_246_4277)" fill-opacity="0.3"/>
</g>
<g filter="url(#filter5_b_246_4277)">
<path fill-rule="evenodd" clip-rule="evenodd" d="M108.116 65.8307H75.4635C69.6527 65.8307 64.9422 70.5413 64.9422 76.352V109.004C64.9422 114.815 69.6527 119.526 75.4635 119.526H108.116C113.927 119.526 118.637 114.815 118.637 109.004V76.352C118.637 70.5413 113.927 65.8307 108.116 65.8307ZM75.4635 65.4679C69.4523 65.4679 64.5793 70.3409 64.5793 76.352V109.004C64.5793 115.016 69.4523 119.889 75.4635 119.889H108.116C114.127 119.889 119 115.016 119 109.004V76.352C119 70.3409 114.127 65.4679 108.116 65.4679H75.4635Z" fill="url(#paint7_linear_246_4277)"/>
<path fill-rule="evenodd" clip-rule="evenodd" d="M108.116 65.8307H75.4635C69.6527 65.8307 64.9422 70.5413 64.9422 76.352V109.004C64.9422 114.815 69.6527 119.526 75.4635 119.526H108.116C113.927 119.526 118.637 114.815 118.637 109.004V76.352C118.637 70.5413 113.927 65.8307 108.116 65.8307ZM75.4635 65.4679C69.4523 65.4679 64.5793 70.3409 64.5793 76.352V109.004C64.5793 115.016 69.4523 119.889 75.4635 119.889H108.116C114.127 119.889 119 115.016 119 109.004V76.352C119 70.3409 114.127 65.4679 108.116 65.4679H75.4635Z" fill="url(#paint8_radial_246_4277)"/>
</g>
<g filter="url(#filter6_b_246_4277)">
<path d="M0 76.352C0 70.3409 4.873 65.4679 10.8841 65.4679H43.5366C49.5477 65.4679 54.4207 70.3409 54.4207 76.352V109.004C54.4207 115.016 49.5477 119.889 43.5366 119.889H10.8841C4.873 119.889 0 115.016 0 109.004V76.352Z" fill="url(#paint9_linear_246_4277)" fill-opacity="0.3"/>
</g>
<g filter="url(#filter7_b_246_4277)">
<path fill-rule="evenodd" clip-rule="evenodd" d="M43.5366 65.8307H10.8841C5.07337 65.8307 0.362805 70.5413 0.362805 76.352V109.004C0.362805 114.815 5.07337 119.526 10.8841 119.526H43.5366C49.3474 119.526 54.0579 114.815 54.0579 109.004V76.352C54.0579 70.5413 49.3474 65.8307 43.5366 65.8307ZM10.8841 65.4679C4.873 65.4679 0 70.3409 0 76.352V109.004C0 115.016 4.873 119.889 10.8841 119.889H43.5366C49.5477 119.889 54.4207 115.016 54.4207 109.004V76.352C54.4207 70.3409 49.5477 65.4679 43.5366 65.4679H10.8841Z" fill="url(#paint10_linear_246_4277)"/>
<path fill-rule="evenodd" clip-rule="evenodd" d="M43.5366 65.8307H10.8841C5.07337 65.8307 0.362805 70.5413 0.362805 76.352V109.004C0.362805 114.815 5.07337 119.526 10.8841 119.526H43.5366C49.3474 119.526 54.0579 114.815 54.0579 109.004V76.352C54.0579 70.5413 49.3474 65.8307 43.5366 65.8307ZM10.8841 65.4679C4.873 65.4679 0 70.3409 0 76.352V109.004C0 115.016 4.873 119.889 10.8841 119.889H43.5366C49.5477 119.889 54.4207 115.016 54.4207 109.004V76.352C54.4207 70.3409 49.5477 65.4679 43.5366 65.4679H10.8841Z" fill="url(#paint11_radial_246_4277)"/>
</g>
<defs>
<filter id="filter0_b_246_4277" x="-30" y="-29.1113" width="114.421" height="114.421" filterUnits="userSpaceOnUse" color-interpolation-filters="sRGB">
<feFlood flood-opacity="0" result="BackgroundImageFix"/>
<feGaussianBlur in="BackgroundImageFix" stdDeviation="15"/>
<feComposite in2="SourceAlpha" operator="in" result="effect1_backgroundBlur_246_4277"/>
<feBlend mode="normal" in="SourceGraphic" in2="effect1_backgroundBlur_246_4277" result="shape"/>
</filter>
<filter id="filter1_b_246_4277" x="-30" y="-29.1113" width="114.421" height="114.421" filterUnits="userSpaceOnUse" color-interpolation-filters="sRGB">
<feFlood flood-opacity="0" result="BackgroundImageFix"/>
<feGaussianBlur in="BackgroundImageFix" stdDeviation="15"/>
<feComposite in2="SourceAlpha" operator="in" result="effect1_backgroundBlur_246_4277"/>
<feBlend mode="normal" in="SourceGraphic" in2="effect1_backgroundBlur_246_4277" result="shape"/>
</filter>
<filter id="filter2_b_246_4277" x="34.5793" y="-29.1113" width="114.421" height="114.421" filterUnits="userSpaceOnUse" color-interpolation-filters="sRGB">
<feFlood flood-opacity="0" result="BackgroundImageFix"/>
<feGaussianBlur in="BackgroundImageFix" stdDeviation="15"/>
<feComposite in2="SourceAlpha" operator="in" result="effect1_backgroundBlur_246_4277"/>
<feBlend mode="normal" in="SourceGraphic" in2="effect1_backgroundBlur_246_4277" result="shape"/>
</filter>
<filter id="filter3_b_246_4277" x="34.5793" y="-29.1113" width="114.421" height="114.421" filterUnits="userSpaceOnUse" color-interpolation-filters="sRGB">
<feFlood flood-opacity="0" result="BackgroundImageFix"/>
<feGaussianBlur in="BackgroundImageFix" stdDeviation="15"/>
<feComposite in2="SourceAlpha" operator="in" result="effect1_backgroundBlur_246_4277"/>
<feBlend mode="normal" in="SourceGraphic" in2="effect1_backgroundBlur_246_4277" result="shape"/>
</filter>
<filter id="filter4_b_246_4277" x="34.5793" y="35.4679" width="114.421" height="114.421" filterUnits="userSpaceOnUse" color-interpolation-filters="sRGB">
<feFlood flood-opacity="0" result="BackgroundImageFix"/>
<feGaussianBlur in="BackgroundImageFix" stdDeviation="15"/>
<feComposite in2="SourceAlpha" operator="in" result="effect1_backgroundBlur_246_4277"/>
<feBlend mode="normal" in="SourceGraphic" in2="effect1_backgroundBlur_246_4277" result="shape"/>
</filter>
<filter id="filter5_b_246_4277" x="34.5793" y="35.4679" width="114.421" height="114.421" filterUnits="userSpaceOnUse" color-interpolation-filters="sRGB">
<feFlood flood-opacity="0" result="BackgroundImageFix"/>
<feGaussianBlur in="BackgroundImageFix" stdDeviation="15"/>
<feComposite in2="SourceAlpha" operator="in" result="effect1_backgroundBlur_246_4277"/>
<feBlend mode="normal" in="SourceGraphic" in2="effect1_backgroundBlur_246_4277" result="shape"/>
</filter>
<filter id="filter6_b_246_4277" x="-30" y="35.4679" width="114.421" height="114.421" filterUnits="userSpaceOnUse" color-interpolation-filters="sRGB">
<feFlood flood-opacity="0" result="BackgroundImageFix"/>
<feGaussianBlur in="BackgroundImageFix" stdDeviation="15"/>
<feComposite in2="SourceAlpha" operator="in" result="effect1_backgroundBlur_246_4277"/>
<feBlend mode="normal" in="SourceGraphic" in2="effect1_backgroundBlur_246_4277" result="shape"/>
</filter>
<filter id="filter7_b_246_4277" x="-30" y="35.4679" width="114.421" height="114.421" filterUnits="userSpaceOnUse" color-interpolation-filters="sRGB">
<feFlood flood-opacity="0" result="BackgroundImageFix"/>
<feGaussianBlur in="BackgroundImageFix" stdDeviation="15"/>
<feComposite in2="SourceAlpha" operator="in" result="effect1_backgroundBlur_246_4277"/>
<feBlend mode="normal" in="SourceGraphic" in2="effect1_backgroundBlur_246_4277" result="shape"/>
</filter>
<linearGradient id="paint0_linear_246_4277" x1="5.82362" y1="5.90964" x2="64.5636" y2="36.3245" gradientUnits="userSpaceOnUse">
<stop stop-color="#FF83B7" stop-opacity="0.9"/>
<stop offset="0.447036" stop-color="#FF4581" stop-opacity="0.96"/>
<stop offset="1" stop-color="#FE87C8" stop-opacity="0.9"/>
</linearGradient>
<linearGradient id="paint1_linear_246_4277" x1="7.83177" y1="-1.05493" x2="58.8421" y2="28.7282" gradientUnits="userSpaceOnUse">
<stop offset="0.188941" stop-color="#E7F0FF" stop-opacity="0.523483"/>
<stop offset="0.526042" stop-color="#F8BDDD"/>
<stop offset="1" stop-color="#B4D2FF" stop-opacity="0.1"/>
</linearGradient>
<radialGradient id="paint2_radial_246_4277" cx="0" cy="0" r="1" gradientUnits="userSpaceOnUse" gradientTransform="translate(8.13299 53.5278) rotate(-50.9773) scale(42.7381 69.8817)">
<stop stop-color="white"/>
<stop offset="1" stop-color="white" stop-opacity="0"/>
</radialGradient>
<linearGradient id="paint3_linear_246_4277" x1="70.403" y1="5.90964" x2="129.143" y2="36.3245" gradientUnits="userSpaceOnUse">
<stop stop-color="#FF83B7" stop-opacity="0.9"/>
<stop offset="0.447036" stop-color="#FF4581" stop-opacity="0.96"/>
<stop offset="1" stop-color="#FE87C8" stop-opacity="0.9"/>
</linearGradient>
<linearGradient id="paint4_linear_246_4277" x1="72.4111" y1="-1.05493" x2="123.421" y2="28.7282" gradientUnits="userSpaceOnUse">
<stop offset="0.188941" stop-color="#E7F0FF" stop-opacity="0.523483"/>
<stop offset="0.526042" stop-color="#F8BDDD"/>
<stop offset="1" stop-color="#B4D2FF" stop-opacity="0.1"/>
</linearGradient>
<radialGradient id="paint5_radial_246_4277" cx="0" cy="0" r="1" gradientUnits="userSpaceOnUse" gradientTransform="translate(72.7123 53.5278) rotate(-50.9773) scale(42.7381 69.8817)">
<stop stop-color="white"/>
<stop offset="1" stop-color="white" stop-opacity="0"/>
</radialGradient>
<linearGradient id="paint6_linear_246_4277" x1="70.403" y1="70.4889" x2="129.143" y2="100.904" gradientUnits="userSpaceOnUse">
<stop stop-color="#FF83B7" stop-opacity="0.9"/>
<stop offset="0.447036" stop-color="#FF4581" stop-opacity="0.96"/>
<stop offset="1" stop-color="#FE87C8" stop-opacity="0.9"/>
</linearGradient>
<linearGradient id="paint7_linear_246_4277" x1="72.4111" y1="63.5243" x2="123.421" y2="93.3074" gradientUnits="userSpaceOnUse">
<stop offset="0.188941" stop-color="#E7F0FF" stop-opacity="0.523483"/>
<stop offset="0.526042" stop-color="#F8BDDD"/>
<stop offset="1" stop-color="#B4D2FF" stop-opacity="0.1"/>
</linearGradient>
<radialGradient id="paint8_radial_246_4277" cx="0" cy="0" r="1" gradientUnits="userSpaceOnUse" gradientTransform="translate(72.7123 118.107) rotate(-50.9773) scale(42.7381 69.8817)">
<stop stop-color="white"/>
<stop offset="1" stop-color="white" stop-opacity="0"/>
</radialGradient>
<linearGradient id="paint9_linear_246_4277" x1="5.82362" y1="70.4889" x2="64.5636" y2="100.904" gradientUnits="userSpaceOnUse">
<stop stop-color="#FF83B7" stop-opacity="0.9"/>
<stop offset="0.447036" stop-color="#FF4581" stop-opacity="0.96"/>
<stop offset="1" stop-color="#FE87C8" stop-opacity="0.9"/>
</linearGradient>
<linearGradient id="paint10_linear_246_4277" x1="7.83177" y1="63.5243" x2="58.8421" y2="93.3074" gradientUnits="userSpaceOnUse">
<stop offset="0.188941" stop-color="#E7F0FF" stop-opacity="0.523483"/>
<stop offset="0.526042" stop-color="#F8BDDD"/>
<stop offset="1" stop-color="#B4D2FF" stop-opacity="0.1"/>
</linearGradient>
<radialGradient id="paint11_radial_246_4277" cx="0" cy="0" r="1" gradientUnits="userSpaceOnUse" gradientTransform="translate(8.13299 118.107) rotate(-50.9773) scale(42.7381 69.8817)">
<stop stop-color="white"/>
<stop offset="1" stop-color="white" stop-opacity="0"/>
</radialGradient>
</defs>
</svg>
