<svg width="119" height="120" viewBox="0 0 119 120" fill="none" xmlns="http://www.w3.org/2000/svg">
<path d="M119 84.2579C119 103.936 103.047 119.889 83.3691 119.889C63.6907 119.889 47.7383 103.936 47.7383 84.2579C47.7383 64.5795 63.6907 48.6271 83.3691 48.6271C103.047 48.6271 119 64.5795 119 84.2579Z" fill="#E6007A"/>
<g filter="url(#filter0_b_246_4271)">
<path d="M0 18.1852C0 8.63259 7.74391 0.888672 17.2965 0.888672H100.32C109.872 0.888672 117.616 8.63259 117.616 18.1852V59.6968L88.2122 89.1009L58.8081 118.505H17.2965C7.74391 118.505 0 110.761 0 101.208V18.1852Z" fill="url(#paint0_linear_246_4271)" fill-opacity="0.3"/>
</g>
<g filter="url(#filter1_b_246_4271)">
<path fill-rule="evenodd" clip-rule="evenodd" d="M58.8081 118.505L117.616 59.6968V18.1852C117.616 8.63259 109.872 0.888672 100.32 0.888672H17.2965C7.74391 0.888672 0 8.63259 0 18.1852V101.208C0 110.761 7.74391 118.505 17.2965 118.505H58.8081ZM117.27 59.5238V18.1852C117.27 8.82364 109.681 1.2346 100.32 1.2346H17.2965C7.93497 1.2346 0.34593 8.82364 0.34593 18.1852V101.208C0.34593 110.57 7.93496 118.159 17.2965 118.159H58.6352V76.9933C58.6352 67.3452 66.4565 59.5238 76.1047 59.5238H117.27ZM116.954 59.8698H76.1047C66.6476 59.8698 58.9811 67.5363 58.9811 76.9933V117.843L116.954 59.8698Z" fill="url(#paint1_linear_246_4271)"/>
<path fill-rule="evenodd" clip-rule="evenodd" d="M58.8081 118.505L117.616 59.6968V18.1852C117.616 8.63259 109.872 0.888672 100.32 0.888672H17.2965C7.74391 0.888672 0 8.63259 0 18.1852V101.208C0 110.761 7.74391 118.505 17.2965 118.505H58.8081ZM117.27 59.5238V18.1852C117.27 8.82364 109.681 1.2346 100.32 1.2346H17.2965C7.93497 1.2346 0.34593 8.82364 0.34593 18.1852V101.208C0.34593 110.57 7.93496 118.159 17.2965 118.159H58.6352V76.9933C58.6352 67.3452 66.4565 59.5238 76.1047 59.5238H117.27ZM116.954 59.8698H76.1047C66.6476 59.8698 58.9811 67.5363 58.9811 76.9933V117.843L116.954 59.8698Z" fill="url(#paint2_radial_246_4271)"/>
</g>
<rect x="14.126" y="25.8229" width="29.964" height="6.42086" rx="3.21043" fill="white"/>
<rect x="32.5325" y="14.1583" width="29.964" height="6.42086" rx="3.21043" transform="rotate(90 32.5325 14.1583)" fill="white"/>
<defs>
<filter id="filter0_b_246_4271" x="-30" y="-29.1113" width="177.616" height="177.616" filterUnits="userSpaceOnUse" color-interpolation-filters="sRGB">
<feFlood flood-opacity="0" result="BackgroundImageFix"/>
<feGaussianBlur in="BackgroundImageFix" stdDeviation="15"/>
<feComposite in2="SourceAlpha" operator="in" result="effect1_backgroundBlur_246_4271"/>
<feBlend mode="normal" in="SourceGraphic" in2="effect1_backgroundBlur_246_4271" result="shape"/>
</filter>
<filter id="filter1_b_246_4271" x="-30" y="-29.1113" width="177.616" height="177.616" filterUnits="userSpaceOnUse" color-interpolation-filters="sRGB">
<feFlood flood-opacity="0" result="BackgroundImageFix"/>
<feGaussianBlur in="BackgroundImageFix" stdDeviation="15"/>
<feComposite in2="SourceAlpha" operator="in" result="effect1_backgroundBlur_246_4271"/>
<feBlend mode="normal" in="SourceGraphic" in2="effect1_backgroundBlur_246_4271" result="shape"/>
</filter>
<linearGradient id="paint0_linear_246_4271" x1="12.5862" y1="11.7402" x2="139.537" y2="77.4739" gradientUnits="userSpaceOnUse">
<stop stop-color="#FF83B7" stop-opacity="0.9"/>
<stop offset="0.447036" stop-color="#FF4581" stop-opacity="0.96"/>
<stop offset="1" stop-color="#FE87C8" stop-opacity="0.9"/>
</linearGradient>
<linearGradient id="paint1_linear_246_4271" x1="16.9263" y1="-3.31191" x2="127.172" y2="61.0565" gradientUnits="userSpaceOnUse">
<stop offset="0.188941" stop-color="#E7F0FF" stop-opacity="0.523483"/>
<stop offset="0.526042" stop-color="#F8BDDD"/>
<stop offset="1" stop-color="#B4D2FF" stop-opacity="0.1"/>
</linearGradient>
<radialGradient id="paint2_radial_246_4271" cx="0" cy="0" r="1" gradientUnits="userSpaceOnUse" gradientTransform="translate(17.5773 114.654) rotate(-50.9773) scale(92.3674 151.031)">
<stop stop-color="white"/>
<stop offset="1" stop-color="white" stop-opacity="0"/>
</radialGradient>
</defs>
</svg>
