<svg width="26" height="38" viewBox="0 0 26 38" fill="none" xmlns="http://www.w3.org/2000/svg">
<path d="M3.99767 37.0686H0V26.0802C0.78317 26.0444 1.46503 25.9846 2.1469 25.9846C7.08359 25.9767 12.0164 25.9886 16.9531 25.9767C19.8208 25.9687 21.695 24.3159 21.6833 21.8585C21.6716 19.4171 19.7935 17.7682 16.9141 17.7324C14.4477 17.7005 11.9774 17.7204 9.51103 17.7324C8.08886 17.7364 6.99787 17.2226 7.04853 15.6136C7.09139 14.1559 8.11224 13.6142 9.46038 13.6182C12.2541 13.6302 15.0478 13.5465 17.8376 13.6421C22.2405 13.7895 25.6926 17.4735 25.7004 21.9063C25.7082 26.3431 22.2599 29.9554 17.783 30.051C13.8866 30.1346 9.98639 30.1705 6.09781 30.0311C4.30938 29.9674 3.82234 30.6006 3.9704 32.3052C4.10287 33.8107 3.99767 35.3401 3.99767 37.0726V37.0686Z" fill="black"/>
<path d="M25.6422 0.551025V11.4836C24.9019 11.5195 24.22 11.5752 23.5343 11.5792C18.6015 11.5872 13.6648 11.5713 8.73197 11.5912C5.85646 11.6031 4.00179 13.2639 4.02906 15.7292C4.05633 18.1069 5.87983 19.7677 8.62677 19.8235C11.1594 19.8713 13.692 19.8514 16.2247 19.8314C17.5689 19.8195 18.621 20.3094 18.6599 21.783C18.7028 23.3562 17.6663 23.9496 16.2169 23.9416C13.4232 23.9257 10.6295 24.0014 7.8436 23.9138C3.42512 23.7783 0.000216143 20.1102 0.00800888 15.6496C0.0158016 11.3084 3.42123 7.65224 7.75399 7.53276C11.775 7.42124 15.8039 7.43718 19.8288 7.51683C21.2432 7.54471 21.8471 7.17431 21.7341 5.633C21.6134 3.99211 21.7069 2.33529 21.7069 0.551025H25.6422V0.551025Z" fill="black"/>
</svg>
