<svg width="197" height="37" viewBox="0 0 197 37" fill="none" xmlns="http://www.w3.org/2000/svg">
<path d="M3.99767 36.7568H0V25.7684C0.78317 25.7326 1.46503 25.6728 2.1469 25.6728C7.08359 25.6649 12.0164 25.6768 16.9531 25.6649C19.8208 25.6569 21.695 24.0041 21.6833 21.5467C21.6716 19.1053 19.7935 17.4565 16.9141 17.4206C14.4477 17.3888 11.9774 17.4087 9.51103 17.4206C8.08886 17.4246 6.99787 16.9108 7.04853 15.3018C7.09139 13.8441 8.11224 13.3025 9.46038 13.3065C12.2541 13.3184 15.0478 13.2348 17.8376 13.3304C22.2405 13.4777 25.6926 17.1617 25.7004 21.5945C25.7082 26.0313 22.2599 29.6436 17.783 29.7392C13.8866 29.8229 9.98639 29.8587 6.09781 29.7193C4.30938 29.6556 3.82234 30.2888 3.9704 31.9935C4.10287 33.4989 3.99767 35.0283 3.99767 36.7608V36.7568Z" fill="black"/>
<path d="M25.6422 0.239258V11.1719C24.9019 11.2077 24.22 11.2635 23.5343 11.2675C18.6015 11.2754 13.6648 11.2595 8.73197 11.2794C5.85646 11.2913 4.00179 12.9522 4.02906 15.4175C4.05633 17.7952 5.87983 19.456 8.62677 19.5117C11.1594 19.5595 13.692 19.5396 16.2247 19.5197C17.5689 19.5077 18.621 19.9976 18.6599 21.4712C18.7028 23.0444 17.6663 23.6378 16.2169 23.6299C13.4232 23.6139 10.6295 23.6896 7.8436 23.602C3.42512 23.4666 0.000216143 19.7985 0.00800888 15.3378C0.0158016 10.9966 3.42123 7.34048 7.75399 7.22099C11.775 7.10948 15.8039 7.12541 19.8288 7.20506C21.2432 7.23294 21.8471 6.86255 21.7341 5.32123C21.6134 3.68034 21.7069 2.02352 21.7069 0.239258H25.6422V0.239258Z" fill="black"/>
<path d="M37.7004 31.5639V6.63526H49.7125C51.4817 6.63526 52.9367 6.96231 54.0774 7.61642C55.2413 8.27052 56.1143 9.19112 56.6963 10.3782C57.2782 11.5653 57.5692 12.9825 57.5692 14.6299C57.5692 16.253 57.2666 17.6703 56.6613 18.8816C56.0561 20.0929 55.1482 21.0377 53.9377 21.716C52.7504 22.3701 51.2606 22.6972 49.4681 22.6972H42.2399V31.5639H37.7004ZM42.2399 18.6635H49.3284C50.4924 18.6635 51.3886 18.3122 52.0171 17.6097C52.669 16.8829 52.9949 15.8896 52.9949 14.6299C52.9949 13.782 52.8552 13.0673 52.5758 12.4859C52.2965 11.9044 51.8891 11.4563 51.3537 11.1413C50.8183 10.8264 50.1432 10.6689 49.3284 10.6689H42.2399V18.6635Z" fill="black"/>
<path d="M68.5392 32C66.5372 32 64.8611 31.6487 63.5109 30.9462C62.1607 30.2194 61.148 29.1171 60.4729 27.6393C59.7979 26.1615 59.4603 24.284 59.4603 22.0067C59.4603 19.7052 59.7979 17.8277 60.4729 16.3742C61.148 14.8964 62.1607 13.8062 63.5109 13.1036C64.8611 12.3768 66.5372 12.0135 68.5392 12.0135C70.5645 12.0135 72.2406 12.3768 73.5675 13.1036C74.9177 13.8062 75.9303 14.8964 76.6054 16.3742C77.2805 17.8277 77.6181 19.7052 77.6181 22.0067C77.6181 24.284 77.2805 26.1615 76.6054 27.6393C75.9303 29.1171 74.9177 30.2194 73.5675 30.9462C72.2406 31.6487 70.5645 32 68.5392 32ZM68.5392 28.3661C69.6566 28.3661 70.5528 28.148 71.2279 27.712C71.9263 27.2517 72.4268 26.5734 72.7294 25.677C73.0554 24.7564 73.2183 23.6178 73.2183 22.2611V21.7524C73.2183 20.3957 73.0554 19.2692 72.7294 18.3728C72.4268 17.4522 71.9263 16.7739 71.2279 16.3378C70.5528 15.8775 69.6566 15.6474 68.5392 15.6474C67.4218 15.6474 66.5139 15.8775 65.8155 16.3378C65.1404 16.7739 64.6399 17.4522 64.314 18.3728C64.0114 19.2692 63.8601 20.3957 63.8601 21.7524V22.2611C63.8601 23.6178 64.0114 24.7564 64.314 25.677C64.6399 26.5734 65.1404 27.2517 65.8155 27.712C66.5139 28.148 67.4218 28.3661 68.5392 28.3661Z" fill="black"/>
<path d="M81.2376 31.5639V5.29071H85.4977V31.5639H81.2376Z" fill="black"/>
<path d="M90.0355 31.5639V5.29071H94.2956V20.5895L100.895 12.4495H105.889L99.743 19.8627L106.238 31.5639H101.349L97.0193 23.0969L94.2956 25.8223V31.5639H90.0355Z" fill="black"/>
<path d="M112.823 32C112.311 32 111.717 31.9273 111.042 31.782C110.39 31.6608 109.75 31.4186 109.121 31.0552C108.516 30.6918 108.016 30.1588 107.62 29.4563C107.224 28.7295 107.026 27.7847 107.026 26.6218C107.026 25.3136 107.306 24.2355 107.864 23.3876C108.423 22.5155 109.203 21.8371 110.204 21.3526C111.228 20.8439 112.439 20.4926 113.835 20.2988C115.255 20.0808 116.804 19.9717 118.48 19.9717V18.4092C118.48 17.852 118.398 17.3553 118.235 16.9192C118.072 16.4832 117.77 16.144 117.327 15.9017C116.908 15.6353 116.268 15.502 115.407 15.502C114.545 15.502 113.87 15.611 113.381 15.8291C112.893 16.0471 112.555 16.3136 112.369 16.6285C112.183 16.9435 112.089 17.2705 112.089 17.6097V18.1184H107.969C107.946 17.9973 107.934 17.8762 107.934 17.755C107.934 17.6339 107.934 17.4886 107.934 17.319C107.934 16.2288 108.248 15.284 108.877 14.4845C109.505 13.6851 110.378 13.0794 111.496 12.6676C112.613 12.2315 113.905 12.0135 115.372 12.0135C117.048 12.0135 118.421 12.2557 119.492 12.7402C120.586 13.2248 121.401 13.9152 121.937 14.8116C122.472 15.7079 122.74 16.7981 122.74 18.0821V27.0942C122.74 27.5545 122.868 27.8816 123.124 28.0754C123.38 28.2692 123.659 28.3661 123.962 28.3661H125.079V31.4186C124.846 31.5155 124.509 31.6245 124.067 31.7456C123.624 31.891 123.077 31.9637 122.425 31.9637C121.82 31.9637 121.273 31.8546 120.784 31.6366C120.319 31.4428 119.923 31.1521 119.597 30.7645C119.271 30.3769 119.038 29.9166 118.899 29.3836H118.689C118.293 29.8923 117.816 30.3526 117.257 30.7645C116.722 31.1521 116.082 31.4549 115.337 31.673C114.615 31.891 113.777 32 112.823 32ZM114.115 28.3661C114.813 28.3661 115.43 28.2571 115.965 28.039C116.524 27.821 116.978 27.5182 117.327 27.1306C117.7 26.7429 117.979 26.2705 118.165 25.7133C118.375 25.1561 118.48 24.5505 118.48 23.8964V23.0242C117.199 23.0242 116.012 23.109 114.918 23.2786C113.847 23.4482 112.986 23.7631 112.334 24.2234C111.705 24.6837 111.391 25.3378 111.391 26.1857C111.391 26.6218 111.484 27.0094 111.67 27.3486C111.88 27.6635 112.183 27.9179 112.578 28.1117C112.997 28.2813 113.509 28.3661 114.115 28.3661Z" fill="black"/>
<path d="M136.835 32C135.508 32 134.24 31.8546 133.029 31.5639C131.818 31.249 130.748 30.7766 129.816 30.1467C128.885 29.4926 128.152 28.6931 127.617 27.7483C127.081 26.7793 126.813 25.6406 126.813 24.3324C126.813 24.1871 126.813 24.0417 126.813 23.8964C126.837 23.751 126.848 23.642 126.848 23.5693H131.423C131.423 23.6178 131.411 23.7147 131.388 23.86C131.388 23.9812 131.388 24.0902 131.388 24.1871C131.388 24.9865 131.609 25.677 132.051 26.2584C132.494 26.8156 133.134 27.2517 133.972 27.5666C134.81 27.8573 135.799 28.0027 136.94 28.0027C137.708 28.0027 138.383 27.9542 138.965 27.8573C139.57 27.7604 140.083 27.6272 140.502 27.4576C140.944 27.2638 141.305 27.0458 141.584 26.8035C141.863 26.537 142.061 26.2463 142.178 25.9314C142.317 25.6164 142.387 25.2773 142.387 24.9139C142.387 24.2113 142.178 23.6299 141.759 23.1696C141.34 22.7093 140.769 22.3217 140.048 22.0067C139.349 21.6918 138.546 21.4132 137.638 21.1709C136.754 20.9044 135.834 20.638 134.88 20.3715C133.949 20.105 133.029 19.79 132.121 19.4266C131.237 19.039 130.433 18.5787 129.712 18.0458C129.013 17.5128 128.455 16.8466 128.036 16.0471C127.617 15.2234 127.407 14.2423 127.407 13.1036C127.407 11.9408 127.64 10.9233 128.105 10.0511C128.594 9.179 129.269 8.46433 130.131 7.90713C131.015 7.32571 132.04 6.90175 133.204 6.63526C134.368 6.34455 135.636 6.19919 137.01 6.19919C138.29 6.19919 139.489 6.34455 140.606 6.63526C141.747 6.90175 142.748 7.33782 143.609 7.94347C144.471 8.5249 145.146 9.27591 145.635 10.1965C146.124 11.0929 146.368 12.1709 146.368 13.4307V13.8668H141.863V13.5034C141.863 12.8008 141.654 12.2073 141.235 11.7227C140.839 11.2382 140.269 10.8627 139.524 10.5962C138.802 10.3297 137.953 10.1965 136.975 10.1965C135.927 10.1965 135.031 10.3055 134.286 10.5236C133.541 10.7174 132.971 11.0202 132.575 11.432C132.179 11.8196 131.981 12.3042 131.981 12.8856C131.981 13.4913 132.191 14 132.61 14.4118C133.029 14.8237 133.588 15.175 134.286 15.4657C135.008 15.7564 135.811 16.0229 136.695 16.2651C137.603 16.5074 138.523 16.7739 139.454 17.0646C140.409 17.3311 141.328 17.646 142.213 18.0094C143.121 18.3728 143.924 18.8331 144.622 19.3903C145.344 19.9233 145.914 20.5895 146.333 21.389C146.752 22.1884 146.962 23.1454 146.962 24.2598C146.962 26.1252 146.519 27.6272 145.635 28.7658C144.773 29.9044 143.574 30.7281 142.038 31.2369C140.525 31.7456 138.791 32 136.835 32Z" fill="black"/>
<path d="M155.516 32C155.004 32 154.411 31.9273 153.736 31.782C153.084 31.6608 152.444 31.4186 151.815 31.0552C151.21 30.6918 150.709 30.1588 150.314 29.4563C149.918 28.7295 149.72 27.7847 149.72 26.6218C149.72 25.3136 149.999 24.2355 150.558 23.3876C151.117 22.5155 151.897 21.8371 152.898 21.3526C153.922 20.8439 155.132 20.4926 156.529 20.2988C157.949 20.0808 159.497 19.9717 161.173 19.9717V18.4092C161.173 17.852 161.092 17.3553 160.929 16.9192C160.766 16.4832 160.463 16.144 160.021 15.9017C159.602 15.6353 158.962 15.502 158.1 15.502C157.239 15.502 156.564 15.611 156.075 15.8291C155.586 16.0471 155.249 16.3136 155.063 16.6285C154.876 16.9435 154.783 17.2705 154.783 17.6097V18.1184H150.663C150.639 17.9973 150.628 17.8762 150.628 17.755C150.628 17.6339 150.628 17.4886 150.628 17.319C150.628 16.2288 150.942 15.284 151.571 14.4845C152.199 13.6851 153.072 13.0794 154.19 12.6676C155.307 12.2315 156.599 12.0135 158.066 12.0135C159.742 12.0135 161.115 12.2557 162.186 12.7402C163.28 13.2248 164.095 13.9152 164.63 14.8116C165.166 15.7079 165.433 16.7981 165.433 18.0821V27.0942C165.433 27.5545 165.561 27.8816 165.817 28.0754C166.074 28.2692 166.353 28.3661 166.656 28.3661H167.773V31.4186C167.54 31.5155 167.203 31.6245 166.76 31.7456C166.318 31.891 165.771 31.9637 165.119 31.9637C164.514 31.9637 163.967 31.8546 163.478 31.6366C163.012 31.4428 162.617 31.1521 162.291 30.7645C161.965 30.3769 161.732 29.9166 161.592 29.3836H161.383C160.987 29.8923 160.51 30.3526 159.951 30.7645C159.416 31.1521 158.776 31.4549 158.031 31.673C157.309 31.891 156.471 32 155.516 32ZM156.808 28.3661C157.507 28.3661 158.124 28.2571 158.659 28.039C159.218 27.821 159.672 27.5182 160.021 27.1306C160.393 26.7429 160.673 26.2705 160.859 25.7133C161.069 25.1561 161.173 24.5505 161.173 23.8964V23.0242C159.893 23.0242 158.706 23.109 157.612 23.2786C156.541 23.4482 155.679 23.7631 155.028 24.2234C154.399 24.6837 154.085 25.3378 154.085 26.1857C154.085 26.6218 154.178 27.0094 154.364 27.3486C154.574 27.6635 154.876 27.9179 155.272 28.1117C155.691 28.2813 156.203 28.3661 156.808 28.3661Z" fill="black"/>
<path d="M171.079 31.5639V16.0834H168.425V12.4495H171.079V10.0148C171.079 9.16689 171.207 8.36743 171.463 7.61642C171.742 6.84118 172.219 6.2113 172.894 5.72678C173.569 5.24226 174.512 5 175.723 5C176.072 5 176.421 5.02423 176.77 5.07268C177.143 5.12113 177.492 5.19381 177.818 5.29071C178.144 5.36339 178.423 5.44818 178.656 5.54509V8.63392H176.91C176.398 8.63392 176.002 8.77927 175.723 9.06999C175.467 9.33647 175.339 9.7362 175.339 10.2692V12.4495H178.656V16.0834H175.339V31.5639H171.079Z" fill="black"/>
<path d="M188.634 32C186.679 32 185.049 31.6487 183.746 30.9462C182.442 30.2194 181.464 29.1171 180.812 27.6393C180.161 26.1615 179.835 24.284 179.835 22.0067C179.835 19.7052 180.161 17.8277 180.812 16.3742C181.464 14.8964 182.442 13.8062 183.746 13.1036C185.049 12.3768 186.679 12.0135 188.634 12.0135C190.403 12.0135 191.882 12.3647 193.069 13.0673C194.279 13.7456 195.187 14.7995 195.793 16.2288C196.398 17.6581 196.7 19.5114 196.7 21.7887V23.0969H184.2C184.246 24.284 184.421 25.2894 184.723 26.1131C185.026 26.9125 185.492 27.5182 186.12 27.93C186.772 28.3176 187.622 28.5114 188.669 28.5114C189.205 28.5114 189.705 28.4388 190.171 28.2934C190.636 28.1481 191.044 27.93 191.393 27.6393C191.742 27.3244 192.01 26.9367 192.196 26.4764C192.405 26.0161 192.51 25.4832 192.51 24.8775H196.7C196.7 26.0888 196.491 27.1427 196.072 28.039C195.676 28.9354 195.106 29.6743 194.361 30.2557C193.639 30.8371 192.79 31.2732 191.812 31.5639C190.834 31.8546 189.775 32 188.634 32ZM184.269 19.9717H192.266C192.266 19.1723 192.173 18.4939 191.986 17.9367C191.823 17.3795 191.579 16.9192 191.253 16.5559C190.95 16.1925 190.578 15.9381 190.136 15.7927C189.693 15.6231 189.193 15.5384 188.634 15.5384C187.726 15.5384 186.958 15.6958 186.33 16.0108C185.724 16.3257 185.259 16.8102 184.933 17.4643C184.607 18.1184 184.386 18.9542 184.269 19.9717Z" fill="black"/>
</svg>
