<svg width="201" height="33" viewBox="0 0 201 33" fill="none" xmlns="http://www.w3.org/2000/svg">
<mask id="path-1-outside-1_459_651" maskUnits="userSpaceOnUse" x="0" y="1.80469" width="32" height="26" fill="black">
<rect fill="white" y="1.80469" width="32" height="26"/>
<path d="M13.7585 2.80469C17.7299 2.80469 21.7012 2.80469 25.6726 2.80469C26.5298 2.80469 26.5395 2.81385 26.5395 3.64311C26.5395 5.29935 26.5395 6.95558 26.5395 8.61181C26.5395 9.37693 26.4838 9.42962 25.6895 9.43191C23.4932 9.4342 21.2944 9.43191 19.0981 9.43191C18.5024 9.43191 18.2037 9.72131 18.2021 10.3001C18.2021 11.3081 18.2142 12.3183 18.1972 13.3262C18.19 13.7409 18.3643 13.9035 18.805 13.9035C21.6068 13.8943 24.4109 13.8943 27.2127 13.9035C27.5807 13.9035 27.7938 13.7592 27.9851 13.4683C28.4017 12.8383 29.1838 12.584 29.8764 12.8062C30.5036 13.0078 31.0411 13.75 30.9976 14.3571C30.9467 15.0512 30.3946 15.6468 29.6415 15.7819C28.9489 15.9056 28.3799 15.6308 28.0312 15.1039C27.7357 14.6549 27.3725 14.577 26.8761 14.5816C24.0743 14.5953 21.2702 14.5884 18.4685 14.5884C17.5822 14.5884 17.5773 14.5839 17.5749 13.7752C17.5749 12.3091 17.587 10.843 17.5676 9.37693C17.5604 8.90732 17.7468 8.74009 18.2408 8.74238C20.4783 8.75613 22.7159 8.74926 24.9534 8.74696C25.7985 8.74696 25.8154 8.73093 25.8154 7.96352C25.8154 6.6509 25.8009 5.336 25.8227 4.02338C25.83 3.54919 25.6387 3.39342 25.1471 3.39342C17.5265 3.40258 9.90585 3.40258 2.28524 3.39342C1.78398 3.39342 1.61205 3.56064 1.62173 4.02796C1.64353 5.37952 1.65079 6.73108 1.61931 8.08264C1.60478 8.63014 1.83967 8.75842 2.36999 8.75613C5.07244 8.7378 7.77247 8.74697 10.4749 8.74926C11.1061 8.74926 11.4226 9.04095 11.4242 9.62433C11.4242 14.1165 11.429 18.6111 11.4169 23.1033C11.4169 23.5798 11.5162 23.9005 11.9908 24.1731C12.8359 24.6587 12.957 25.6437 12.3395 26.3493C11.7099 27.0686 10.6565 27.135 9.93976 26.4959C9.27141 25.9026 9.26172 24.8053 10.0511 24.2945C10.6662 23.8982 10.7098 23.4331 10.7074 22.8421C10.6953 18.7118 10.7001 14.5793 10.7001 10.449C10.7001 9.77094 10.3304 9.43191 9.59105 9.43191C6.99031 9.43191 4.38956 9.43191 1.78882 9.43191C1.04298 9.43191 1.00424 9.39296 1.00182 8.6897C0.999395 6.97619 0.999395 5.26269 1.00182 3.54919C1.00182 2.83447 1.0333 2.80698 1.78398 2.80469C5.77469 2.80469 9.76783 2.80469 13.7585 2.80469Z"/>
</mask>
<path d="M13.7585 2.80469C17.7299 2.80469 21.7012 2.80469 25.6726 2.80469C26.5298 2.80469 26.5395 2.81385 26.5395 3.64311C26.5395 5.29935 26.5395 6.95558 26.5395 8.61181C26.5395 9.37693 26.4838 9.42962 25.6895 9.43191C23.4932 9.4342 21.2944 9.43191 19.0981 9.43191C18.5024 9.43191 18.2037 9.72131 18.2021 10.3001C18.2021 11.3081 18.2142 12.3183 18.1972 13.3262C18.19 13.7409 18.3643 13.9035 18.805 13.9035C21.6068 13.8943 24.4109 13.8943 27.2127 13.9035C27.5807 13.9035 27.7938 13.7592 27.9851 13.4683C28.4017 12.8383 29.1838 12.584 29.8764 12.8062C30.5036 13.0078 31.0411 13.75 30.9976 14.3571C30.9467 15.0512 30.3946 15.6468 29.6415 15.7819C28.9489 15.9056 28.3799 15.6308 28.0312 15.1039C27.7357 14.6549 27.3725 14.577 26.8761 14.5816C24.0743 14.5953 21.2702 14.5884 18.4685 14.5884C17.5822 14.5884 17.5773 14.5839 17.5749 13.7752C17.5749 12.3091 17.587 10.843 17.5676 9.37693C17.5604 8.90732 17.7468 8.74009 18.2408 8.74238C20.4783 8.75613 22.7159 8.74926 24.9534 8.74696C25.7985 8.74696 25.8154 8.73093 25.8154 7.96352C25.8154 6.6509 25.8009 5.336 25.8227 4.02338C25.83 3.54919 25.6387 3.39342 25.1471 3.39342C17.5265 3.40258 9.90585 3.40258 2.28524 3.39342C1.78398 3.39342 1.61205 3.56064 1.62173 4.02796C1.64353 5.37952 1.65079 6.73108 1.61931 8.08264C1.60478 8.63014 1.83967 8.75842 2.36999 8.75613C5.07244 8.7378 7.77247 8.74697 10.4749 8.74926C11.1061 8.74926 11.4226 9.04095 11.4242 9.62433C11.4242 14.1165 11.429 18.6111 11.4169 23.1033C11.4169 23.5798 11.5162 23.9005 11.9908 24.1731C12.8359 24.6587 12.957 25.6437 12.3395 26.3493C11.7099 27.0686 10.6565 27.135 9.93976 26.4959C9.27141 25.9026 9.26172 24.8053 10.0511 24.2945C10.6662 23.8982 10.7098 23.4331 10.7074 22.8421C10.6953 18.7118 10.7001 14.5793 10.7001 10.449C10.7001 9.77094 10.3304 9.43191 9.59105 9.43191C6.99031 9.43191 4.38956 9.43191 1.78882 9.43191C1.04298 9.43191 1.00424 9.39296 1.00182 8.6897C0.999395 6.97619 0.999395 5.26269 1.00182 3.54919C1.00182 2.83447 1.0333 2.80698 1.78398 2.80469C5.77469 2.80469 9.76783 2.80469 13.7585 2.80469Z" fill="#66A5FF"/>
<path d="M13.7585 2.80469C17.7299 2.80469 21.7012 2.80469 25.6726 2.80469C26.5298 2.80469 26.5395 2.81385 26.5395 3.64311C26.5395 5.29935 26.5395 6.95558 26.5395 8.61181C26.5395 9.37693 26.4838 9.42962 25.6895 9.43191C23.4932 9.4342 21.2944 9.43191 19.0981 9.43191C18.5024 9.43191 18.2037 9.72131 18.2021 10.3001C18.2021 11.3081 18.2142 12.3183 18.1972 13.3262C18.19 13.7409 18.3643 13.9035 18.805 13.9035C21.6068 13.8943 24.4109 13.8943 27.2127 13.9035C27.5807 13.9035 27.7938 13.7592 27.9851 13.4683C28.4017 12.8383 29.1838 12.584 29.8764 12.8062C30.5036 13.0078 31.0411 13.75 30.9976 14.3571C30.9467 15.0512 30.3946 15.6468 29.6415 15.7819C28.9489 15.9056 28.3799 15.6308 28.0312 15.1039C27.7357 14.6549 27.3725 14.577 26.8761 14.5816C24.0743 14.5953 21.2702 14.5884 18.4685 14.5884C17.5822 14.5884 17.5773 14.5839 17.5749 13.7752C17.5749 12.3091 17.587 10.843 17.5676 9.37693C17.5604 8.90732 17.7468 8.74009 18.2408 8.74238C20.4783 8.75613 22.7159 8.74926 24.9534 8.74696C25.7985 8.74696 25.8154 8.73093 25.8154 7.96352C25.8154 6.6509 25.8009 5.336 25.8227 4.02338C25.83 3.54919 25.6387 3.39342 25.1471 3.39342C17.5265 3.40258 9.90585 3.40258 2.28524 3.39342C1.78398 3.39342 1.61205 3.56064 1.62173 4.02796C1.64353 5.37952 1.65079 6.73108 1.61931 8.08264C1.60478 8.63014 1.83967 8.75842 2.36999 8.75613C5.07244 8.7378 7.77247 8.74697 10.4749 8.74926C11.1061 8.74926 11.4226 9.04095 11.4242 9.62433C11.4242 14.1165 11.429 18.6111 11.4169 23.1033C11.4169 23.5798 11.5162 23.9005 11.9908 24.1731C12.8359 24.6587 12.957 25.6437 12.3395 26.3493C11.7099 27.0686 10.6565 27.135 9.93976 26.4959C9.27141 25.9026 9.26172 24.8053 10.0511 24.2945C10.6662 23.8982 10.7098 23.4331 10.7074 22.8421C10.6953 18.7118 10.7001 14.5793 10.7001 10.449C10.7001 9.77094 10.3304 9.43191 9.59105 9.43191C6.99031 9.43191 4.38956 9.43191 1.78882 9.43191C1.04298 9.43191 1.00424 9.39296 1.00182 8.6897C0.999395 6.97619 0.999395 5.26269 1.00182 3.54919C1.00182 2.83447 1.0333 2.80698 1.78398 2.80469C5.77469 2.80469 9.76783 2.80469 13.7585 2.80469Z" stroke="#66A5FF" stroke-width="0.8" mask="url(#path-1-outside-1_459_651)"/>
<mask id="path-2-outside-2_459_651" maskUnits="userSpaceOnUse" x="8.47852" y="0.5" width="31" height="32" fill="black">
<rect fill="white" x="8.47852" y="0.5" width="31" height="32"/>
<path d="M36.2087 17.0523C36.2087 13.1214 36.2038 9.19047 36.216 5.25727C36.216 4.82304 36.1332 4.52365 35.6825 4.28368C34.9687 3.9043 34.7422 3.2621 34.9638 2.57876C35.1928 1.87256 35.7531 1.49547 36.5546 1.50004C37.2903 1.5069 37.8799 1.9137 38.1016 2.56962C38.3135 3.20039 38.0577 3.96143 37.3853 4.29053C36.8835 4.53507 36.8348 4.8596 36.8348 5.30297C36.8421 13.3179 36.8397 21.3329 36.8397 29.3478C36.8397 29.9497 36.5124 30.2506 35.8579 30.2506C33.6678 30.2506 31.4778 30.2369 29.2877 30.2597C28.7298 30.2666 28.5422 30.0837 28.5447 29.5672C28.5617 26.6419 28.5544 23.7166 28.552 20.7935C28.552 20.0005 28.5374 19.9891 27.7091 19.9868C24.8077 19.9868 21.9087 19.9868 19.0073 19.9868C18.2228 19.9868 18.196 20.0142 18.196 20.7661C18.196 23.6709 18.196 26.5779 18.196 29.4827C18.196 30.2232 18.1668 30.2483 17.3702 30.2483C16.0937 30.2506 14.8147 30.2643 13.5382 30.2414C13.0656 30.2323 12.7586 30.3443 12.5077 30.7557C12.1033 31.4139 11.3213 31.647 10.6197 31.4093C9.92055 31.1739 9.45281 30.5454 9.47961 29.8758C9.50397 29.2381 10.1203 28.5982 10.8487 28.4542C11.5065 28.324 12.1934 28.5982 12.5369 29.2016C12.7416 29.5627 13.0022 29.6701 13.4091 29.6632C14.5248 29.6472 15.6406 29.6335 16.7563 29.6678C17.3312 29.6861 17.4823 29.469 17.4798 28.9639C17.4628 26.0203 17.4701 23.0767 17.4725 20.133C17.4725 19.3469 17.5188 19.3034 18.3739 19.3034C21.6992 19.3034 25.0269 19.3034 28.3522 19.3034C29.2511 19.3034 29.2877 19.3377 29.2877 20.1605C29.2877 23.0469 29.2877 25.9334 29.2877 28.8199C29.2877 29.6541 29.2901 29.6564 30.1525 29.6564C31.8773 29.6564 33.5996 29.6564 35.3244 29.6564C36.2087 29.6564 36.2111 29.6564 36.2111 28.8428C36.2111 24.9118 36.2111 20.9809 36.2111 17.0477L36.2087 17.0523Z"/>
</mask>
<path d="M36.2087 17.0523C36.2087 13.1214 36.2038 9.19047 36.216 5.25727C36.216 4.82304 36.1332 4.52365 35.6825 4.28368C34.9687 3.9043 34.7422 3.2621 34.9638 2.57876C35.1928 1.87256 35.7531 1.49547 36.5546 1.50004C37.2903 1.5069 37.8799 1.9137 38.1016 2.56962C38.3135 3.20039 38.0577 3.96143 37.3853 4.29053C36.8835 4.53507 36.8348 4.8596 36.8348 5.30297C36.8421 13.3179 36.8397 21.3329 36.8397 29.3478C36.8397 29.9497 36.5124 30.2506 35.8579 30.2506C33.6678 30.2506 31.4778 30.2369 29.2877 30.2597C28.7298 30.2666 28.5422 30.0837 28.5447 29.5672C28.5617 26.6419 28.5544 23.7166 28.552 20.7935C28.552 20.0005 28.5374 19.9891 27.7091 19.9868C24.8077 19.9868 21.9087 19.9868 19.0073 19.9868C18.2228 19.9868 18.196 20.0142 18.196 20.7661C18.196 23.6709 18.196 26.5779 18.196 29.4827C18.196 30.2232 18.1668 30.2483 17.3702 30.2483C16.0937 30.2506 14.8147 30.2643 13.5382 30.2414C13.0656 30.2323 12.7586 30.3443 12.5077 30.7557C12.1033 31.4139 11.3213 31.647 10.6197 31.4093C9.92055 31.1739 9.45281 30.5454 9.47961 29.8758C9.50397 29.2381 10.1203 28.5982 10.8487 28.4542C11.5065 28.324 12.1934 28.5982 12.5369 29.2016C12.7416 29.5627 13.0022 29.6701 13.4091 29.6632C14.5248 29.6472 15.6406 29.6335 16.7563 29.6678C17.3312 29.6861 17.4823 29.469 17.4798 28.9639C17.4628 26.0203 17.4701 23.0767 17.4725 20.133C17.4725 19.3469 17.5188 19.3034 18.3739 19.3034C21.6992 19.3034 25.0269 19.3034 28.3522 19.3034C29.2511 19.3034 29.2877 19.3377 29.2877 20.1605C29.2877 23.0469 29.2877 25.9334 29.2877 28.8199C29.2877 29.6541 29.2901 29.6564 30.1525 29.6564C31.8773 29.6564 33.5996 29.6564 35.3244 29.6564C36.2087 29.6564 36.2111 29.6564 36.2111 28.8428C36.2111 24.9118 36.2111 20.9809 36.2111 17.0477L36.2087 17.0523Z" fill="#66A5FF"/>
<path d="M36.2087 17.0523C36.2087 13.1214 36.2038 9.19047 36.216 5.25727C36.216 4.82304 36.1332 4.52365 35.6825 4.28368C34.9687 3.9043 34.7422 3.2621 34.9638 2.57876C35.1928 1.87256 35.7531 1.49547 36.5546 1.50004C37.2903 1.5069 37.8799 1.9137 38.1016 2.56962C38.3135 3.20039 38.0577 3.96143 37.3853 4.29053C36.8835 4.53507 36.8348 4.8596 36.8348 5.30297C36.8421 13.3179 36.8397 21.3329 36.8397 29.3478C36.8397 29.9497 36.5124 30.2506 35.8579 30.2506C33.6678 30.2506 31.4778 30.2369 29.2877 30.2597C28.7298 30.2666 28.5422 30.0837 28.5447 29.5672C28.5617 26.6419 28.5544 23.7166 28.552 20.7935C28.552 20.0005 28.5374 19.9891 27.7091 19.9868C24.8077 19.9868 21.9087 19.9868 19.0073 19.9868C18.2228 19.9868 18.196 20.0142 18.196 20.7661C18.196 23.6709 18.196 26.5779 18.196 29.4827C18.196 30.2232 18.1668 30.2483 17.3702 30.2483C16.0937 30.2506 14.8147 30.2643 13.5382 30.2414C13.0656 30.2323 12.7586 30.3443 12.5077 30.7557C12.1033 31.4139 11.3213 31.647 10.6197 31.4093C9.92055 31.1739 9.45281 30.5454 9.47961 29.8758C9.50397 29.2381 10.1203 28.5982 10.8487 28.4542C11.5065 28.324 12.1934 28.5982 12.5369 29.2016C12.7416 29.5627 13.0022 29.6701 13.4091 29.6632C14.5248 29.6472 15.6406 29.6335 16.7563 29.6678C17.3312 29.6861 17.4823 29.469 17.4798 28.9639C17.4628 26.0203 17.4701 23.0767 17.4725 20.133C17.4725 19.3469 17.5188 19.3034 18.3739 19.3034C21.6992 19.3034 25.0269 19.3034 28.3522 19.3034C29.2511 19.3034 29.2877 19.3377 29.2877 20.1605C29.2877 23.0469 29.2877 25.9334 29.2877 28.8199C29.2877 29.6541 29.2901 29.6564 30.1525 29.6564C31.8773 29.6564 33.5996 29.6564 35.3244 29.6564C36.2087 29.6564 36.2111 29.6564 36.2111 28.8428C36.2111 24.9118 36.2111 20.9809 36.2111 17.0477L36.2087 17.0523Z" stroke="#66A5FF" stroke-width="0.8" mask="url(#path-2-outside-2_459_651)"/>
<path d="M57.5008 30.1308H52.185V8.96017H44.1741V3.66283H65.4929V8.96017H57.5008V30.1308ZM83.894 20.0715C83.894 21.5482 83.6275 22.9263 83.0946 24.206C82.5624 25.4734 81.8369 26.5747 80.9203 27.5099C80.0037 28.4327 78.9256 29.1649 77.6862 29.7063C76.4597 30.2354 75.1396 30.5 73.7273 30.5C72.3273 30.5 71.0071 30.2354 69.7685 29.7063C68.5412 29.1649 67.4632 28.4327 66.5344 27.5099C65.617 26.5747 64.8922 25.4734 64.3593 24.206C63.8264 22.9263 63.5599 21.5482 63.5599 20.0715C63.5599 18.5704 63.8264 17.1799 64.3593 15.9002C64.8922 14.6204 65.617 13.5191 66.5344 12.5962C67.4632 11.6611 68.5412 10.9289 69.7685 10.3998C71.0071 9.87071 72.3273 9.60618 73.7273 9.60618C75.1396 9.60618 76.4597 9.85839 77.6862 10.3629C78.9256 10.8551 80.0037 11.5627 80.9203 12.4855C81.8369 13.3961 82.5624 14.4974 83.0946 15.7894C83.6275 17.0691 83.894 18.4965 83.894 20.0715ZM78.7825 20.0715C78.7825 19.2594 78.6462 18.5273 78.3737 17.8751C78.1141 17.2107 77.7547 16.6446 77.2956 16.177C76.8373 15.6971 76.2983 15.3341 75.6786 15.088C75.0718 14.8296 74.4209 14.7004 73.7273 14.7004C73.033 14.7004 72.3768 14.8296 71.757 15.088C71.1495 15.3341 70.6174 15.6971 70.1583 16.177C69.7121 16.6446 69.3597 17.2107 69.0993 17.8751C68.8389 18.5273 68.7087 19.2594 68.7087 20.0715C68.7087 20.8345 68.8389 21.542 69.0993 22.1942C69.3597 22.8463 69.7121 23.4123 70.1583 23.8922C70.6174 24.3721 71.1495 24.7536 71.757 25.0366C72.3768 25.3073 73.033 25.4426 73.7273 25.4426C74.4209 25.4426 75.0718 25.3134 75.6786 25.055C76.2983 24.7966 76.8373 24.4336 77.2956 23.966C77.7547 23.4984 78.1141 22.9324 78.3737 22.268C78.6462 21.6035 78.7825 20.8714 78.7825 20.0715ZM111.831 22.9878C111.831 24.0214 111.632 24.9997 111.235 25.9225C110.839 26.8331 110.294 27.6268 109.6 28.3035C108.919 28.9803 108.113 29.5156 107.184 29.9093C106.267 30.3031 105.282 30.5 104.228 30.5C103.286 30.5 102.382 30.34 101.515 30.0201C100.648 29.6879 99.8604 29.208 99.1539 28.5804C98.4603 29.208 97.6792 29.6879 96.8121 30.0201C95.9571 30.34 95.0527 30.5 94.0987 30.5C93.0451 30.5 92.0599 30.3031 91.1433 29.9093C90.2259 29.5156 89.4204 28.9803 88.7269 28.3035C88.0455 27.6268 87.5065 26.8331 87.1098 25.9225C86.7132 24.9997 86.5152 24.0214 86.5152 22.9878V10.3998H91.5894V22.9878C91.5894 23.3324 91.6511 23.6584 91.7752 23.966C91.9115 24.2613 92.0911 24.526 92.3142 24.7597C92.5494 24.9812 92.8159 25.1596 93.1136 25.295C93.4234 25.4181 93.7516 25.4796 94.0987 25.4796C94.4451 25.4796 94.774 25.4181 95.0839 25.295C95.393 25.1596 95.6663 24.9812 95.9015 24.7597C96.1368 24.526 96.3164 24.2613 96.4405 23.966C96.5768 23.6584 96.6446 23.3324 96.6446 22.9878V10.3998H101.7V22.9878C101.7 23.3324 101.768 23.6584 101.905 23.966C102.042 24.2613 102.221 24.526 102.444 24.7597C102.68 24.9812 102.946 25.1596 103.243 25.295C103.553 25.4181 103.882 25.4796 104.228 25.4796C104.575 25.4796 104.903 25.4181 105.213 25.295C105.523 25.1596 105.79 24.9812 106.013 24.7597C106.248 24.526 106.434 24.2613 106.57 23.966C106.706 23.6584 106.775 23.3324 106.775 22.9878V10.3998H111.831V22.9878ZM120.585 30.1308H115.511V10.3629H116.737L118.41 12.2825C119.228 11.5442 120.151 10.9781 121.18 10.5844C122.22 10.1783 123.304 9.97527 124.432 9.97527C125.646 9.97527 126.793 10.2091 127.871 10.6767C128.949 11.132 129.891 11.7657 130.696 12.5778C131.502 13.3776 132.133 14.319 132.592 15.4018C133.063 16.4723 133.298 17.6167 133.298 18.8349V30.1308H128.224V18.8349C128.224 18.3181 128.125 17.832 127.926 17.3768C127.728 16.9092 127.456 16.5031 127.109 16.1586C126.762 15.814 126.359 15.5433 125.901 15.3464C125.442 15.1495 124.953 15.0511 124.432 15.0511C123.9 15.0511 123.397 15.1495 122.927 15.3464C122.456 15.5433 122.047 15.814 121.7 16.1586C121.353 16.5031 121.081 16.9092 120.882 17.3768C120.684 17.832 120.585 18.3181 120.585 18.8349V30.1308ZM142.796 30.1308H137.462V3.66283H142.796V14.2574H153.447V3.66283H158.781V30.1308H153.447V19.5547H142.796V30.1308ZM182.182 30.1308H180.955L178.985 27.4176C178.502 27.8483 177.987 28.2543 177.442 28.6358C176.909 29.0049 176.346 29.331 175.751 29.614C175.156 29.8848 174.543 30.1001 173.911 30.26C173.291 30.42 172.659 30.5 172.014 30.5C170.614 30.5 169.295 30.2662 168.056 29.7986C166.829 29.331 165.751 28.6543 164.821 27.7683C163.905 26.87 163.18 25.7749 162.647 24.4829C162.114 23.1908 161.848 21.7204 161.848 20.0715C161.848 18.5334 162.114 17.1245 162.647 15.8448C163.18 14.5527 163.905 13.4453 164.821 12.5224C165.751 11.5996 166.829 10.8859 168.056 10.3814C169.295 9.86459 170.614 9.60618 172.014 9.60618C172.659 9.60618 173.297 9.68617 173.929 9.84607C174.561 10.006 175.175 10.2276 175.769 10.5106C176.364 10.7936 176.928 11.1259 177.461 11.5073C178.006 11.8887 178.514 12.3009 178.985 12.744L180.955 10.3998H182.182V30.1308ZM177.07 20.0715C177.07 19.3825 176.934 18.718 176.661 18.0781C176.401 17.426 176.042 16.8538 175.583 16.3616C175.125 15.8571 174.586 15.4571 173.966 15.1618C173.359 14.8542 172.709 14.7004 172.014 14.7004C171.321 14.7004 170.664 14.8173 170.044 15.0511C169.437 15.2849 168.904 15.6294 168.446 16.0847C168 16.54 167.647 17.106 167.386 17.7828C167.126 18.4473 166.997 19.2102 166.997 20.0715C166.997 20.9329 167.126 21.7019 167.386 22.3787C167.647 23.0432 168 23.6031 168.446 24.0584C168.904 24.5136 169.437 24.8581 170.044 25.092C170.664 25.3257 171.321 25.4426 172.014 25.4426C172.709 25.4426 173.359 25.295 173.966 24.9997C174.586 24.692 175.125 24.2921 175.583 23.7999C176.042 23.2955 176.401 22.7232 176.661 22.0834C176.934 21.4312 177.07 20.7606 177.07 20.0715ZM191.178 30.1308H186.066V2.5H191.178V30.1308ZM200.174 30.1308H195.063V2.5H200.174V30.1308Z" fill="black"/>
</svg>
