<svg width="299" height="300" viewBox="0 0 299 300" fill="none" xmlns="http://www.w3.org/2000/svg">
	<g clip-path="url(#clip0_280_5240)">
	<path d="M205.824 0.805908C207.615 1.46733 209.481 1.96487 211.172 2.8136C219.367 6.91679 223.76 13.6189 223.824 22.8144C223.946 41.1939 223.882 59.5792 223.853 77.9587C223.835 90.9472 214.52 100.365 201.513 100.512C193.569 100.599 185.619 100.576 177.675 100.494C175.978 100.476 174.817 100.968 173.703 102.279C168.407 108.484 163.041 114.624 157.646 120.741C151.9 127.255 145.939 127.021 140.783 120.132C136.479 114.384 132.104 108.677 127.934 102.83C126.639 101.015 125.256 100.453 123.11 100.482C114.775 100.599 106.44 100.553 98.105 100.523C84.0015 100.476 74.8907 91.2692 74.8849 77.0807C74.8849 59.3802 74.8791 41.6797 74.8849 23.9793C74.8849 12.2082 80.8635 4.41742 92.2431 1.28003C92.4939 1.20979 92.6981 0.969802 92.9197 0.805908C130.552 0.805908 168.185 0.805908 205.812 0.805908L205.824 0.805908Z" fill="#C40061"/>
	<path d="M0.400852 31.7583C2.00485 25.5537 4.93288 20.2565 10.4915 16.7094C14.1078 14.4031 18.074 13.2559 22.3144 13.2325C33.2683 13.1681 44.2221 13.2383 55.176 13.1739C56.9783 13.1622 57.5558 13.4315 57.0075 15.4333C56.2901 18.0498 56.2376 20.8008 56.2434 23.5343C56.2784 41.627 56.2492 59.7196 56.2667 77.8123C56.2784 92.1647 62.222 103.508 73.7008 111.931C75.2756 113.084 75.4098 113.67 74.0974 115.133C68.5855 121.279 63.2193 127.554 57.7716 133.747C52.7146 139.495 46.5319 139.255 41.8716 133.115C37.2345 127.004 32.65 120.858 28.0655 114.706C27.2897 113.664 26.584 112.932 25.0616 112.874C10.5206 112.347 5.10786 108.209 0.39502 94.2367V31.7583H0.400852Z" fill="#D9F0F0"/>
	<path d="M0.400879 254.835C1.85906 249.098 3.55055 243.479 7.301 238.703C14.137 229.987 23.0319 225.293 34.0616 225.1C44.7238 224.912 55.3977 225.018 66.0658 225.082C72.0968 225.117 77.7079 226.768 83.1673 230.058C79.1252 233.201 75.6139 236.66 72.7092 240.67C65.9491 249.994 62.397 260.407 62.5894 271.973C62.6244 274.262 62.0062 274.9 59.6964 274.888C43.7906 274.783 27.8847 274.683 11.9847 274.912C6.3036 274.994 2.52399 272.904 0.406712 267.683V254.835H0.400879Z" fill="#FF33A0"/>
	<path d="M149.229 299.8C130.039 299.8 110.844 299.8 91.654 299.8C84.8705 299.8 81.1901 296.171 81.1609 289.44C81.1318 283.604 81.1143 277.768 81.1667 271.932C81.3301 252.798 95.8827 237.72 114.909 237.515C137.878 237.269 160.853 237.269 183.823 237.515C202.744 237.714 217.332 252.692 217.565 271.634C217.641 277.762 217.623 283.891 217.565 290.019C217.513 296.036 213.71 299.788 207.667 299.794C188.186 299.818 168.699 299.8 149.217 299.8H149.229Z" fill="#C40061"/>
	<path d="M298.348 63.0503C298.348 72.1932 298.378 81.3361 298.348 90.4731C298.302 103.421 288.841 112.973 275.916 112.85C272.999 112.821 271.174 113.635 269.494 116.052C265.51 121.788 261.235 127.326 257.041 132.922C252.223 139.348 246.041 139.559 240.774 133.519C235.413 127.373 230.1 121.186 224.646 115.122C223.305 113.629 223.52 113.061 225.066 111.926C236.551 103.503 242.465 92.1413 242.483 77.8065C242.506 60.0124 242.471 42.2124 242.506 24.4183C242.506 21.1989 242.407 17.9972 241.631 14.8656C241.368 13.8062 241.357 13.174 242.693 13.1974C254.994 13.4081 267.33 12.4306 279.579 13.6423C290.422 14.7134 298.249 24.0612 298.337 35.0362C298.407 44.3723 298.348 53.7084 298.354 63.0444L298.348 63.0503Z" fill="#D9F0F0"/>
	<path d="M149.293 218.749C128.634 218.714 112.086 201.991 112.139 181.212C112.191 160.772 129.053 143.973 149.456 144.031C170.005 144.09 186.675 160.971 186.617 181.668C186.558 202.172 169.836 218.784 149.293 218.749Z" fill="#C40061"/>
	<path d="M215.862 229.894C220.843 226.868 226.256 225.158 232.071 225.1C243.211 224.989 254.352 224.912 265.493 225.1C282.781 225.392 297.596 240.096 298.307 257.451C298.424 260.267 298.436 263.094 298.319 265.909C298.121 270.697 294.324 274.73 289.588 274.759C272.445 274.877 255.297 274.812 238.149 274.847C236.895 274.847 236.177 274.625 236.201 273.109C236.451 255.508 229.376 241.36 215.996 230.216C215.932 230.163 215.926 230.052 215.862 229.894Z" fill="#FF33A0"/>
	<path d="M74.8849 187.539C74.9432 201.341 63.721 212.638 49.9791 212.615C36.3772 212.591 25.3008 201.388 25.3125 187.662C25.3183 173.924 36.4122 162.732 50.0083 162.744C63.6627 162.756 74.8324 173.889 74.8907 187.545L74.8849 187.539Z" fill="#FF33A0"/>
	<path d="M273.443 187.867C273.355 201.587 262.127 212.761 248.566 212.615C234.772 212.468 223.73 201.166 223.87 187.334C224.01 173.725 235.367 162.586 248.951 162.738C262.617 162.891 273.53 174.094 273.443 187.867Z" fill="#FF33A0"/>
	</g>
	<defs>
	<clipPath id="clip0_280_5240">
	<rect width="298" height="299" fill="white" transform="translate(0.400879 0.805908)"/>
	</clipPath>
	</defs>
</svg>
	