<svg width="26" height="31" viewBox="0 0 26 31" fill="none" xmlns="http://www.w3.org/2000/svg">
<path d="M21.7159 16.4857C21.7476 14.0926 23.0725 11.8283 25.1742 10.5749C23.8483 8.73797 21.6275 7.57333 19.317 7.50321C16.8526 7.25228 14.4635 8.93367 13.2077 8.93367C11.9276 8.93367 9.99411 7.52812 7.91204 7.56967C5.19816 7.65473 2.66815 9.15147 1.34779 11.453C-1.49046 16.2198 0.626619 23.2254 3.34542 27.0785C4.7057 28.9653 6.29547 31.0728 8.37566 30.9981C10.4112 30.9162 11.1715 29.7389 13.6286 29.7389C16.0629 29.7389 16.7762 30.9981 18.8986 30.9505C21.0829 30.9162 22.4591 29.0554 23.7716 27.1508C24.749 25.8064 25.5011 24.3206 26 22.7483C23.4331 21.6952 21.7189 19.1893 21.7159 16.4857Z" fill="white"/>
<path d="M17.707 4.96922C18.898 3.58234 19.4847 1.79975 19.3426 0C17.5231 0.185381 15.8424 1.02894 14.6353 2.36261C13.455 3.66566 12.8407 5.41689 12.9569 7.14785C14.777 7.16603 16.5664 6.34534 17.707 4.96922Z" fill="white"/>
</svg>
