<svg width="815" height="407" viewBox="0 0 815 407" fill="none" xmlns="http://www.w3.org/2000/svg">
	<g clip-path="url(#clip0_280_4528)">
	<path d="M0 407C0 182.217 182.441 0 407.5 0C632.559 0 815 182.217 815 407" fill="url(#paint0_linear_280_4528)"/>
	<path d="M-161.83 37.204L-166.758 53H-168.87L-172.72 41.285C-172.808 41.0503 -172.885 40.768 -172.951 40.438C-173.031 40.7753 -173.108 41.0577 -173.182 41.285L-177.076 53H-179.177L-184.105 37.204H-182.147C-181.941 37.204 -181.769 37.2553 -181.63 37.358C-181.49 37.4533 -181.399 37.5853 -181.355 37.754L-178.242 48.325C-178.183 48.5303 -178.132 48.754 -178.088 48.996C-178.036 49.238 -177.985 49.491 -177.934 49.755C-177.882 49.491 -177.831 49.238 -177.78 48.996C-177.721 48.754 -177.655 48.5303 -177.582 48.325L-174.018 37.754C-173.974 37.6073 -173.882 37.479 -173.743 37.369C-173.596 37.259 -173.424 37.204 -173.226 37.204H-172.555C-172.349 37.204 -172.181 37.2553 -172.049 37.358C-171.917 37.4607 -171.821 37.5927 -171.763 37.754L-168.21 48.325C-168.078 48.7283 -167.96 49.1867 -167.858 49.7C-167.77 49.194 -167.674 48.7357 -167.572 48.325L-164.448 37.754C-164.411 37.6073 -164.319 37.479 -164.173 37.369C-164.026 37.259 -163.854 37.204 -163.656 37.204H-161.83ZM-155.297 48.039C-156.169 48.0683 -156.91 48.138 -157.519 48.248C-158.127 48.3507 -158.622 48.49 -159.004 48.666C-159.385 48.842 -159.66 49.051 -159.829 49.293C-159.997 49.5277 -160.082 49.7917 -160.082 50.085C-160.082 50.3637 -160.038 50.6057 -159.95 50.811C-159.854 51.009 -159.73 51.174 -159.576 51.306C-159.414 51.4307 -159.227 51.5223 -159.015 51.581C-158.802 51.6397 -158.571 51.669 -158.322 51.669C-157.992 51.669 -157.691 51.636 -157.42 51.57C-157.141 51.504 -156.881 51.4123 -156.639 51.295C-156.397 51.1703 -156.166 51.02 -155.946 50.844C-155.726 50.668 -155.509 50.4663 -155.297 50.239V48.039ZM-161.589 43.386C-160.965 42.792 -160.291 42.3483 -159.565 42.055C-158.831 41.7617 -158.028 41.615 -157.156 41.615C-156.518 41.615 -155.953 41.7213 -155.462 41.934C-154.97 42.1393 -154.556 42.429 -154.219 42.803C-153.881 43.177 -153.628 43.6243 -153.46 44.145C-153.284 44.6657 -153.196 45.2413 -153.196 45.872V53H-154.153C-154.365 53 -154.527 52.967 -154.637 52.901C-154.747 52.8277 -154.835 52.6957 -154.901 52.505L-155.132 51.526C-155.418 51.79 -155.7 52.0247 -155.979 52.23C-156.257 52.428 -156.551 52.6003 -156.859 52.747C-157.159 52.8863 -157.482 52.9927 -157.827 53.066C-158.171 53.1393 -158.553 53.176 -158.971 53.176C-159.411 53.176 -159.825 53.1173 -160.214 53C-160.595 52.8753 -160.929 52.6883 -161.215 52.439C-161.501 52.1897 -161.728 51.878 -161.897 51.504C-162.058 51.13 -162.139 50.6937 -162.139 50.195C-162.139 49.755 -162.021 49.3333 -161.787 48.93C-161.545 48.5193 -161.156 48.1527 -160.621 47.83C-160.078 47.5073 -159.374 47.2433 -158.509 47.038C-157.636 46.8327 -156.565 46.7153 -155.297 46.686V45.872C-155.297 45.0287 -155.476 44.398 -155.836 43.98C-156.195 43.562 -156.723 43.353 -157.42 43.353C-157.889 43.353 -158.285 43.4117 -158.608 43.529C-158.923 43.6463 -159.198 43.7783 -159.433 43.925C-159.66 44.0643 -159.862 44.1927 -160.038 44.31C-160.206 44.4273 -160.382 44.486 -160.566 44.486C-160.712 44.486 -160.841 44.4457 -160.951 44.365C-161.053 44.2843 -161.138 44.189 -161.204 44.079L-161.589 43.386ZM-148.311 43.375C-148.069 43.1183 -147.816 42.8837 -147.552 42.671C-147.288 42.4583 -147.01 42.2787 -146.716 42.132C-146.416 41.978 -146.097 41.8607 -145.759 41.78C-145.415 41.692 -145.048 41.648 -144.659 41.648C-144.043 41.648 -143.504 41.7507 -143.042 41.956C-142.573 42.1613 -142.181 42.451 -141.865 42.825C-141.55 43.1917 -141.312 43.6353 -141.15 44.156C-140.989 44.6767 -140.908 45.2523 -140.908 45.883V53H-143.064V45.883C-143.064 45.0837 -143.248 44.464 -143.614 44.024C-143.981 43.5767 -144.542 43.353 -145.297 43.353C-145.847 43.353 -146.364 43.485 -146.848 43.749C-147.325 44.0057 -147.769 44.3577 -148.179 44.805V53H-150.324V41.824H-149.037C-148.737 41.824 -148.55 41.967 -148.476 42.253L-148.311 43.375ZM-134.666 53.176C-135.568 53.176 -136.265 52.923 -136.756 52.417C-137.24 51.911 -137.482 51.1887 -137.482 50.25V43.562H-138.78C-138.905 43.562 -139.011 43.5253 -139.099 43.452C-139.18 43.3713 -139.22 43.254 -139.22 43.1V42.231L-137.405 41.978L-136.921 38.645C-136.892 38.5203 -136.837 38.425 -136.756 38.359C-136.668 38.2857 -136.558 38.249 -136.426 38.249H-135.337V42H-132.169V43.562H-135.337V50.107C-135.337 50.547 -135.231 50.877 -135.018 51.097C-134.798 51.3097 -134.519 51.416 -134.182 51.416C-133.984 51.416 -133.815 51.3903 -133.676 51.339C-133.529 51.2877 -133.405 51.2327 -133.302 51.174C-133.199 51.108 -133.111 51.0493 -133.038 50.998C-132.965 50.9467 -132.899 50.921 -132.84 50.921C-132.767 50.921 -132.712 50.9393 -132.675 50.976C-132.631 51.0053 -132.587 51.0567 -132.543 51.13L-131.905 52.164C-132.257 52.4867 -132.675 52.736 -133.159 52.912C-133.643 53.088 -134.145 53.176 -134.666 53.176ZM-121.131 53.176C-122.033 53.176 -122.73 52.923 -123.221 52.417C-123.705 51.911 -123.947 51.1887 -123.947 50.25V43.562H-125.245C-125.37 43.562 -125.476 43.5253 -125.564 43.452C-125.645 43.3713 -125.685 43.254 -125.685 43.1V42.231L-123.87 41.978L-123.386 38.645C-123.357 38.5203 -123.302 38.425 -123.221 38.359C-123.133 38.2857 -123.023 38.249 -122.891 38.249H-121.802V42H-118.634V43.562H-121.802V50.107C-121.802 50.547 -121.696 50.877 -121.483 51.097C-121.263 51.3097 -120.984 51.416 -120.647 51.416C-120.449 51.416 -120.28 51.3903 -120.141 51.339C-119.994 51.2877 -119.87 51.2327 -119.767 51.174C-119.664 51.108 -119.576 51.0493 -119.503 50.998C-119.43 50.9467 -119.364 50.921 -119.305 50.921C-119.232 50.921 -119.177 50.9393 -119.14 50.976C-119.096 51.0053 -119.052 51.0567 -119.008 51.13L-118.37 52.164C-118.722 52.4867 -119.14 52.736 -119.624 52.912C-120.108 53.088 -120.61 53.176 -121.131 53.176ZM-111.96 41.648C-111.138 41.648 -110.398 41.7837 -109.738 42.055C-109.07 42.319 -108.506 42.704 -108.044 43.21C-107.574 43.7087 -107.215 44.3137 -106.966 45.025C-106.716 45.729 -106.592 46.521 -106.592 47.401C-106.592 48.281 -106.716 49.0767 -106.966 49.788C-107.215 50.4993 -107.574 51.1043 -108.044 51.603C-108.506 52.1017 -109.07 52.4867 -109.738 52.758C-110.398 53.022 -111.138 53.154 -111.96 53.154C-112.788 53.154 -113.536 53.022 -114.204 52.758C-114.864 52.4867 -115.428 52.1017 -115.898 51.603C-116.367 51.1043 -116.73 50.4993 -116.987 49.788C-117.236 49.0767 -117.361 48.281 -117.361 47.401C-117.361 46.521 -117.236 45.729 -116.987 45.025C-116.73 44.3137 -116.367 43.7087 -115.898 43.21C-115.428 42.704 -114.864 42.319 -114.204 42.055C-113.536 41.7837 -112.788 41.648 -111.96 41.648ZM-111.96 51.482C-110.904 51.482 -110.115 51.1263 -109.595 50.415C-109.074 49.7037 -108.814 48.7027 -108.814 47.412C-108.814 46.1213 -109.074 45.1203 -109.595 44.409C-110.115 43.6903 -110.904 43.331 -111.96 43.331C-113.03 43.331 -113.83 43.6903 -114.358 44.409C-114.878 45.1203 -115.139 46.1213 -115.139 47.412C-115.139 48.7027 -114.878 49.7037 -114.358 50.415C-113.83 51.1263 -113.03 51.482 -111.96 51.482ZM-96.4879 36.764V46.257H-95.9819C-95.8279 46.257 -95.6996 46.235 -95.5969 46.191C-95.4942 46.147 -95.3879 46.059 -95.2779 45.927L-91.9339 42.242C-91.8312 42.1027 -91.7176 42 -91.5929 41.934C-91.4682 41.8607 -91.3106 41.824 -91.1199 41.824H-89.1619L-93.1109 46.147C-93.3236 46.4183 -93.5509 46.6273 -93.7929 46.774C-93.6536 46.8693 -93.5326 46.9793 -93.4299 47.104C-93.3199 47.2287 -93.2136 47.3643 -93.1109 47.511L-88.9089 53H-90.8339C-91.0099 53 -91.1639 52.9707 -91.2959 52.912C-91.4206 52.8533 -91.5342 52.747 -91.6369 52.593L-95.0909 48.105C-95.2009 47.9363 -95.3109 47.83 -95.4209 47.786C-95.5309 47.7347 -95.6959 47.709 -95.9159 47.709H-96.4879V53H-98.6329V36.764H-96.4879ZM-85.2976 43.375C-85.0556 43.1183 -84.8026 42.8837 -84.5386 42.671C-84.2746 42.4583 -83.996 42.2787 -83.7026 42.132C-83.402 41.978 -83.083 41.8607 -82.7456 41.78C-82.401 41.692 -82.0343 41.648 -81.6456 41.648C-81.0296 41.648 -80.4906 41.7507 -80.0286 41.956C-79.5593 42.1613 -79.167 42.451 -78.8516 42.825C-78.5363 43.1917 -78.298 43.6353 -78.1366 44.156C-77.9753 44.6767 -77.8946 45.2523 -77.8946 45.883V53H-80.0506V45.883C-80.0506 45.0837 -80.234 44.464 -80.6006 44.024C-80.9673 43.5767 -81.5283 43.353 -82.2836 43.353C-82.8336 43.353 -83.3506 43.485 -83.8346 43.749C-84.3113 44.0057 -84.755 44.3577 -85.1656 44.805V53H-87.3106V41.824H-86.0236C-85.723 41.824 -85.536 41.967 -85.4626 42.253L-85.2976 43.375ZM-70.2371 41.648C-69.4157 41.648 -68.6751 41.7837 -68.0151 42.055C-67.3477 42.319 -66.7831 42.704 -66.3211 43.21C-65.8517 43.7087 -65.4924 44.3137 -65.2431 45.025C-64.9937 45.729 -64.8691 46.521 -64.8691 47.401C-64.8691 48.281 -64.9937 49.0767 -65.2431 49.788C-65.4924 50.4993 -65.8517 51.1043 -66.3211 51.603C-66.7831 52.1017 -67.3477 52.4867 -68.0151 52.758C-68.6751 53.022 -69.4157 53.154 -70.2371 53.154C-71.0657 53.154 -71.8137 53.022 -72.4811 52.758C-73.1411 52.4867 -73.7057 52.1017 -74.1751 51.603C-74.6444 51.1043 -75.0074 50.4993 -75.2641 49.788C-75.5134 49.0767 -75.6381 48.281 -75.6381 47.401C-75.6381 46.521 -75.5134 45.729 -75.2641 45.025C-75.0074 44.3137 -74.6444 43.7087 -74.1751 43.21C-73.7057 42.704 -73.1411 42.319 -72.4811 42.055C-71.8137 41.7837 -71.0657 41.648 -70.2371 41.648ZM-70.2371 51.482C-69.1811 51.482 -68.3927 51.1263 -67.8721 50.415C-67.3514 49.7037 -67.0911 48.7027 -67.0911 47.412C-67.0911 46.1213 -67.3514 45.1203 -67.8721 44.409C-68.3927 43.6903 -69.1811 43.331 -70.2371 43.331C-71.3077 43.331 -72.1071 43.6903 -72.6351 44.409C-73.1557 45.1203 -73.4161 46.1213 -73.4161 47.412C-73.4161 48.7027 -73.1557 49.7037 -72.6351 50.415C-72.1071 51.1263 -71.3077 51.482 -70.2371 51.482ZM-47.1036 41.824L-50.7006 53H-52.4166C-52.6219 53 -52.7612 52.8643 -52.8346 52.593L-55.1886 45.311C-55.2472 45.1277 -55.2986 44.948 -55.3426 44.772C-55.3866 44.5887 -55.4269 44.4053 -55.4636 44.222C-55.5296 44.6033 -55.6212 44.9737 -55.7386 45.333L-58.1256 52.593C-58.1989 52.8643 -58.3566 53 -58.5986 53H-60.2266L-63.8346 41.824H-62.1406C-61.9719 41.824 -61.8326 41.8643 -61.7226 41.945C-61.6052 42.0257 -61.5282 42.1283 -61.4916 42.253L-59.4786 49.117C-59.4126 49.3957 -59.3539 49.667 -59.3026 49.931C-59.2512 50.195 -59.2036 50.459 -59.1596 50.723C-59.0936 50.459 -59.0239 50.195 -58.9506 49.931C-58.8699 49.667 -58.7892 49.3957 -58.7086 49.117L-56.4756 42.209C-56.4389 42.0843 -56.3692 41.9853 -56.2666 41.912C-56.1639 41.8313 -56.0392 41.791 -55.8926 41.791H-54.9576C-54.7962 41.791 -54.6642 41.8313 -54.5616 41.912C-54.4516 41.9853 -54.3782 42.0843 -54.3416 42.209L-52.1636 49.117C-52.0829 49.3957 -52.0059 49.6707 -51.9326 49.942C-51.8592 50.206 -51.7932 50.4737 -51.7346 50.745C-51.6906 50.481 -51.6392 50.217 -51.5806 49.953C-51.5219 49.6817 -51.4559 49.403 -51.3826 49.117L-49.3366 42.253C-49.2999 42.1283 -49.2266 42.0257 -49.1166 41.945C-48.9992 41.8643 -48.8672 41.824 -48.7206 41.824H-47.1036ZM-40.1739 53V41.824H-38.8869C-38.5862 41.824 -38.3992 41.967 -38.3259 42.253L-38.1719 43.32C-37.7612 42.8287 -37.3066 42.429 -36.8079 42.121C-36.3019 41.8057 -35.7116 41.648 -35.0369 41.648C-34.2962 41.648 -33.6949 41.8533 -33.2329 42.264C-32.7709 42.6673 -32.4336 43.2173 -32.2209 43.914C-32.0596 43.518 -31.8506 43.177 -31.5939 42.891C-31.3372 42.605 -31.0512 42.3703 -30.7359 42.187C-30.4206 42.0037 -30.0869 41.868 -29.7349 41.78C-29.3756 41.692 -29.0126 41.648 -28.6459 41.648C-28.0519 41.648 -27.5239 41.7433 -27.0619 41.934C-26.5926 42.1173 -26.1966 42.3887 -25.8739 42.748C-25.5512 43.1073 -25.3056 43.551 -25.1369 44.079C-24.9682 44.607 -24.8839 45.2083 -24.8839 45.883V53H-27.0399V45.883C-27.0399 45.047 -27.2232 44.4163 -27.5899 43.991C-27.9492 43.5657 -28.4772 43.353 -29.1739 43.353C-29.4819 43.353 -29.7752 43.408 -30.0539 43.518C-30.3326 43.6207 -30.5782 43.7783 -30.7909 43.991C-30.9962 44.2037 -31.1612 44.4677 -31.2859 44.783C-31.4032 45.0983 -31.4619 45.465 -31.4619 45.883V53H-33.6179V45.883C-33.6179 45.0177 -33.7902 44.3797 -34.1349 43.969C-34.4796 43.5583 -34.9856 43.353 -35.6529 43.353C-36.1149 43.353 -36.5439 43.474 -36.9399 43.716C-37.3359 43.958 -37.6989 44.288 -38.0289 44.706V53H-40.1739ZM-17.2351 41.648C-16.4138 41.648 -15.6731 41.7837 -15.0131 42.055C-14.3458 42.319 -13.7811 42.704 -13.3191 43.21C-12.8498 43.7087 -12.4905 44.3137 -12.2411 45.025C-11.9918 45.729 -11.8671 46.521 -11.8671 47.401C-11.8671 48.281 -11.9918 49.0767 -12.2411 49.788C-12.4905 50.4993 -12.8498 51.1043 -13.3191 51.603C-13.7811 52.1017 -14.3458 52.4867 -15.0131 52.758C-15.6731 53.022 -16.4138 53.154 -17.2351 53.154C-18.0638 53.154 -18.8118 53.022 -19.4791 52.758C-20.1391 52.4867 -20.7038 52.1017 -21.1731 51.603C-21.6425 51.1043 -22.0055 50.4993 -22.2621 49.788C-22.5115 49.0767 -22.6361 48.281 -22.6361 47.401C-22.6361 46.521 -22.5115 45.729 -22.2621 45.025C-22.0055 44.3137 -21.6425 43.7087 -21.1731 43.21C-20.7038 42.704 -20.1391 42.319 -19.4791 42.055C-18.8118 41.7837 -18.0638 41.648 -17.2351 41.648ZM-17.2351 51.482C-16.1791 51.482 -15.3908 51.1263 -14.8701 50.415C-14.3495 49.7037 -14.0891 48.7027 -14.0891 47.412C-14.0891 46.1213 -14.3495 45.1203 -14.8701 44.409C-15.3908 43.6903 -16.1791 43.331 -17.2351 43.331C-18.3058 43.331 -19.1051 43.6903 -19.6331 44.409C-20.1538 45.1203 -20.4141 46.1213 -20.4141 47.412C-20.4141 48.7027 -20.1538 49.7037 -19.6331 50.415C-19.1051 51.1263 -18.3058 51.482 -17.2351 51.482ZM-7.44874 43.969C-7.0894 43.2357 -6.65674 42.66 -6.15074 42.242C-5.64474 41.824 -5.03607 41.615 -4.32474 41.615C-4.08274 41.615 -3.8554 41.6443 -3.64274 41.703C-3.42274 41.7543 -3.23207 41.835 -3.07074 41.945L-3.21374 43.562C-3.26507 43.76 -3.38607 43.859 -3.57674 43.859C-3.6794 43.859 -3.8334 43.8407 -4.03874 43.804C-4.24407 43.76 -4.46407 43.738 -4.69874 43.738C-5.0434 43.738 -5.34774 43.7893 -5.61174 43.892C-5.87574 43.9873 -6.11407 44.134 -6.32674 44.332C-6.53207 44.5227 -6.7154 44.761 -6.87674 45.047C-7.03807 45.3257 -7.1884 45.6447 -7.32774 46.004V53H-9.47274V41.824H-8.24074C-8.00607 41.824 -7.8484 41.868 -7.76774 41.956C-7.67974 42.0367 -7.6174 42.1833 -7.58074 42.396L-7.44874 43.969ZM5.5787 46.169C5.5787 45.7437 5.51637 45.3513 5.3917 44.992C5.27437 44.6327 5.09837 44.321 4.8637 44.057C4.62904 43.793 4.34304 43.5877 4.0057 43.441C3.66837 43.2943 3.2797 43.221 2.8397 43.221C1.9377 43.221 1.22637 43.4813 0.705701 44.002C0.192368 44.5227 -0.133965 45.245 -0.273299 46.169H5.5787ZM7.3497 51.405C7.0857 51.713 6.78137 51.9807 6.4367 52.208C6.09203 52.428 5.72537 52.6077 5.3367 52.747C4.94803 52.8863 4.5447 52.989 4.1267 53.055C3.71603 53.121 3.30903 53.154 2.9057 53.154C2.1357 53.154 1.4207 53.0257 0.760701 52.769C0.108035 52.505 -0.460299 52.1237 -0.944299 51.625C-1.42097 51.119 -1.79497 50.4957 -2.0663 49.755C-2.3303 49.007 -2.4623 48.149 -2.4623 47.181C-2.4623 46.4037 -2.3413 45.6813 -2.0993 45.014C-1.8573 44.3393 -1.51263 43.7527 -1.0653 43.254C-0.610632 42.7553 -0.0569654 42.363 0.595701 42.077C1.24837 41.791 1.9817 41.648 2.7957 41.648C3.4777 41.648 4.1047 41.7617 4.6767 41.989C5.25603 42.209 5.7547 42.5317 6.1727 42.957C6.5907 43.3823 6.91704 43.9067 7.1517 44.53C7.3937 45.1533 7.5147 45.8647 7.5147 46.664C7.5147 46.994 7.47804 47.2177 7.4047 47.335C7.33137 47.445 7.1957 47.5 6.9977 47.5H-0.328299C-0.306299 48.1673 -0.210965 48.7503 -0.0422986 49.249C0.126368 49.7403 0.357368 50.151 0.650701 50.481C0.951368 50.811 1.30703 51.0567 1.7177 51.218C2.12837 51.3793 2.5867 51.46 3.0927 51.46C3.56937 51.46 3.98004 51.405 4.3247 51.295C4.6767 51.185 4.97737 51.0677 5.2267 50.943C5.48337 50.811 5.69603 50.69 5.8647 50.58C6.0407 50.47 6.1947 50.415 6.3267 50.415C6.5027 50.415 6.63837 50.481 6.7337 50.613L7.3497 51.405ZM21.3907 48.039C20.518 48.0683 19.7774 48.138 19.1687 48.248C18.56 48.3507 18.065 48.49 17.6837 48.666C17.3024 48.842 17.0274 49.051 16.8587 49.293C16.69 49.5277 16.6057 49.7917 16.6057 50.085C16.6057 50.3637 16.6497 50.6057 16.7377 50.811C16.833 51.009 16.9577 51.174 17.1117 51.306C17.273 51.4307 17.46 51.5223 17.6727 51.581C17.8854 51.6397 18.1164 51.669 18.3657 51.669C18.6957 51.669 18.9964 51.636 19.2677 51.57C19.5464 51.504 19.8067 51.4123 20.0487 51.295C20.2907 51.1703 20.5217 51.02 20.7417 50.844C20.9617 50.668 21.178 50.4663 21.3907 50.239V48.039ZM15.0987 43.386C15.722 42.792 16.3967 42.3483 17.1227 42.055C17.856 41.7617 18.659 41.615 19.5317 41.615C20.1697 41.615 20.7344 41.7213 21.2257 41.934C21.717 42.1393 22.1314 42.429 22.4687 42.803C22.806 43.177 23.059 43.6243 23.2277 44.145C23.4037 44.6657 23.4917 45.2413 23.4917 45.872V53H22.5347C22.322 53 22.1607 52.967 22.0507 52.901C21.9407 52.8277 21.8527 52.6957 21.7867 52.505L21.5557 51.526C21.2697 51.79 20.9874 52.0247 20.7087 52.23C20.43 52.428 20.1367 52.6003 19.8287 52.747C19.528 52.8863 19.2054 52.9927 18.8607 53.066C18.516 53.1393 18.1347 53.176 17.7167 53.176C17.2767 53.176 16.8624 53.1173 16.4737 53C16.0924 52.8753 15.7587 52.6883 15.4727 52.439C15.1867 52.1897 14.9594 51.878 14.7907 51.504C14.6294 51.13 14.5487 50.6937 14.5487 50.195C14.5487 49.755 14.666 49.3333 14.9007 48.93C15.1427 48.5193 15.5314 48.1527 16.0667 47.83C16.6094 47.5073 17.3134 47.2433 18.1787 47.038C19.0514 46.8327 20.122 46.7153 21.3907 46.686V45.872C21.3907 45.0287 21.211 44.398 20.8517 43.98C20.4924 43.562 19.9644 43.353 19.2677 43.353C18.7984 43.353 18.4024 43.4117 18.0797 43.529C17.7644 43.6463 17.4894 43.7783 17.2547 43.925C17.0274 44.0643 16.8257 44.1927 16.6497 44.31C16.481 44.4273 16.305 44.486 16.1217 44.486C15.975 44.486 15.8467 44.4457 15.7367 44.365C15.634 44.2843 15.5497 44.189 15.4837 44.079L15.0987 43.386ZM28.5082 50.25C28.8602 50.712 29.2415 51.0347 29.6522 51.218C30.0629 51.4013 30.5102 51.493 30.9942 51.493C31.9915 51.493 32.7579 51.1373 33.2932 50.426C33.8359 49.7147 34.1072 48.6403 34.1072 47.203C34.1072 45.8757 33.8689 44.904 33.3922 44.288C32.9155 43.6647 32.2409 43.353 31.3682 43.353C30.7522 43.353 30.2169 43.4923 29.7622 43.771C29.3149 44.0497 28.8969 44.4457 28.5082 44.959V50.25ZM28.5082 43.364C28.9702 42.8507 29.4945 42.4363 30.0812 42.121C30.6679 41.8057 31.3352 41.648 32.0832 41.648C32.7359 41.648 33.3225 41.7763 33.8432 42.033C34.3712 42.2823 34.8185 42.6453 35.1852 43.122C35.5519 43.5913 35.8342 44.1633 36.0322 44.838C36.2302 45.5127 36.3292 46.2753 36.3292 47.126C36.3292 48.028 36.2155 48.8493 35.9882 49.59C35.7682 50.3307 35.4492 50.965 35.0312 51.493C34.6205 52.021 34.1182 52.4317 33.5242 52.725C32.9302 53.011 32.2629 53.154 31.5222 53.154C31.1629 53.154 30.8329 53.1173 30.5322 53.044C30.2315 52.978 29.9529 52.879 29.6962 52.747C29.4469 52.615 29.2159 52.4537 29.0032 52.263C28.7905 52.0723 28.5889 51.856 28.3982 51.614L28.2992 52.549C28.2405 52.8497 28.0572 53 27.7492 53H26.3632V36.764H28.5082V43.364ZM43.4797 41.648C44.3011 41.648 45.0417 41.7837 45.7017 42.055C46.3691 42.319 46.9337 42.704 47.3957 43.21C47.8651 43.7087 48.2244 44.3137 48.4737 45.025C48.7231 45.729 48.8477 46.521 48.8477 47.401C48.8477 48.281 48.7231 49.0767 48.4737 49.788C48.2244 50.4993 47.8651 51.1043 47.3957 51.603C46.9337 52.1017 46.3691 52.4867 45.7017 52.758C45.0417 53.022 44.3011 53.154 43.4797 53.154C42.6511 53.154 41.9031 53.022 41.2357 52.758C40.5757 52.4867 40.0111 52.1017 39.5417 51.603C39.0724 51.1043 38.7094 50.4993 38.4527 49.788C38.2034 49.0767 38.0787 48.281 38.0787 47.401C38.0787 46.521 38.2034 45.729 38.4527 45.025C38.7094 44.3137 39.0724 43.7087 39.5417 43.21C40.0111 42.704 40.5757 42.319 41.2357 42.055C41.9031 41.7837 42.6511 41.648 43.4797 41.648ZM43.4797 51.482C44.5357 51.482 45.3241 51.1263 45.8447 50.415C46.3654 49.7037 46.6257 48.7027 46.6257 47.412C46.6257 46.1213 46.3654 45.1203 45.8447 44.409C45.3241 43.6903 44.5357 43.331 43.4797 43.331C42.4091 43.331 41.6097 43.6903 41.0817 44.409C40.5611 45.1203 40.3007 46.1213 40.3007 47.412C40.3007 48.7027 40.5611 49.7037 41.0817 50.415C41.6097 51.1263 42.4091 51.482 43.4797 51.482ZM60.5371 41.824V53H59.2501C58.9568 53 58.7661 52.857 58.6781 52.571L58.5241 51.449C58.2821 51.7057 58.0291 51.9403 57.7651 52.153C57.5011 52.3657 57.2188 52.549 56.9181 52.703C56.6174 52.8497 56.2984 52.9633 55.9611 53.044C55.6238 53.132 55.2608 53.176 54.8721 53.176C54.2561 53.176 53.7134 53.0733 53.2441 52.868C52.7821 52.6627 52.3934 52.3767 52.0781 52.01C51.7628 51.636 51.5244 51.1887 51.3631 50.668C51.2018 50.1473 51.1211 49.5717 51.1211 48.941V41.824H53.2771V48.941C53.2771 49.7403 53.4604 50.3637 53.8271 50.811C54.1938 51.251 54.7548 51.471 55.5101 51.471C56.0601 51.471 56.5734 51.3427 57.0501 51.086C57.5268 50.822 57.9741 50.4627 58.3921 50.008V41.824H60.5371ZM67.0292 53.176C66.1272 53.176 65.4305 52.923 64.9392 52.417C64.4552 51.911 64.2132 51.1887 64.2132 50.25V43.562H62.9152C62.7905 43.562 62.6842 43.5253 62.5962 43.452C62.5155 43.3713 62.4752 43.254 62.4752 43.1V42.231L64.2902 41.978L64.7742 38.645C64.8035 38.5203 64.8585 38.425 64.9392 38.359C65.0272 38.2857 65.1372 38.249 65.2692 38.249H66.3582V42H69.5262V43.562H66.3582V50.107C66.3582 50.547 66.4645 50.877 66.6772 51.097C66.8972 51.3097 67.1758 51.416 67.5132 51.416C67.7112 51.416 67.8798 51.3903 68.0192 51.339C68.1658 51.2877 68.2905 51.2327 68.3932 51.174C68.4958 51.108 68.5838 51.0493 68.6572 50.998C68.7305 50.9467 68.7965 50.921 68.8552 50.921C68.9285 50.921 68.9835 50.9393 69.0202 50.976C69.0642 51.0053 69.1082 51.0567 69.1522 51.13L69.7902 52.164C69.4382 52.4867 69.0202 52.736 68.5362 52.912C68.0522 53.088 67.5498 53.176 67.0292 53.176ZM79.2113 50.25C79.5633 50.712 79.941 51.0347 80.3443 51.218C80.755 51.4013 81.2133 51.493 81.7193 51.493C82.702 51.493 83.461 51.141 83.9963 50.437C84.539 49.7257 84.8103 48.6917 84.8103 47.335C84.8103 46.6237 84.748 46.0187 84.6233 45.52C84.506 45.014 84.33 44.6033 84.0953 44.288C83.868 43.9653 83.5857 43.7307 83.2483 43.584C82.911 43.43 82.5297 43.353 82.1043 43.353C81.481 43.353 80.9383 43.4923 80.4763 43.771C80.0217 44.0497 79.6 44.4457 79.2113 44.959V50.25ZM79.1013 43.496C79.336 43.2173 79.5853 42.9643 79.8493 42.737C80.1207 42.5023 80.4103 42.3043 80.7183 42.143C81.0263 41.9743 81.3527 41.846 81.6973 41.758C82.0493 41.6627 82.4233 41.615 82.8193 41.615C83.4573 41.615 84.033 41.7397 84.5463 41.989C85.067 42.2383 85.5107 42.605 85.8773 43.089C86.244 43.573 86.5263 44.1707 86.7243 44.882C86.9297 45.5933 87.0323 46.411 87.0323 47.335C87.0323 48.1637 86.9187 48.9337 86.6913 49.645C86.4713 50.349 86.1523 50.9613 85.7343 51.482C85.3237 52.0027 84.8177 52.4133 84.2163 52.714C83.6223 53.0073 82.9513 53.154 82.2033 53.154C81.536 53.154 80.964 53.044 80.4873 52.824C80.0107 52.604 79.5853 52.296 79.2113 51.9V56.751H77.0663V41.824H78.3533C78.654 41.824 78.841 41.967 78.9143 42.253L79.1013 43.496ZM94.2043 41.648C95.0257 41.648 95.7663 41.7837 96.4263 42.055C97.0937 42.319 97.6583 42.704 98.1203 43.21C98.5897 43.7087 98.949 44.3137 99.1983 45.025C99.4477 45.729 99.5723 46.521 99.5723 47.401C99.5723 48.281 99.4477 49.0767 99.1983 49.788C98.949 50.4993 98.5897 51.1043 98.1203 51.603C97.6583 52.1017 97.0937 52.4867 96.4263 52.758C95.7663 53.022 95.0257 53.154 94.2043 53.154C93.3757 53.154 92.6277 53.022 91.9603 52.758C91.3003 52.4867 90.7357 52.1017 90.2663 51.603C89.797 51.1043 89.434 50.4993 89.1773 49.788C88.928 49.0767 88.8033 48.281 88.8033 47.401C88.8033 46.521 88.928 45.729 89.1773 45.025C89.434 44.3137 89.797 43.7087 90.2663 43.21C90.7357 42.704 91.3003 42.319 91.9603 42.055C92.6277 41.7837 93.3757 41.648 94.2043 41.648ZM94.2043 51.482C95.2603 51.482 96.0487 51.1263 96.5693 50.415C97.09 49.7037 97.3503 48.7027 97.3503 47.412C97.3503 46.1213 97.09 45.1203 96.5693 44.409C96.0487 43.6903 95.2603 43.331 94.2043 43.331C93.1337 43.331 92.3343 43.6903 91.8063 44.409C91.2857 45.1203 91.0253 46.1213 91.0253 47.412C91.0253 48.7027 91.2857 49.7037 91.8063 50.415C92.3343 51.1263 93.1337 51.482 94.2043 51.482ZM104.112 50.25C104.464 50.712 104.841 51.0347 105.245 51.218C105.655 51.4013 106.114 51.493 106.62 51.493C107.602 51.493 108.361 51.141 108.897 50.437C109.439 49.7257 109.711 48.6917 109.711 47.335C109.711 46.6237 109.648 46.0187 109.524 45.52C109.406 45.014 109.23 44.6033 108.996 44.288C108.768 43.9653 108.486 43.7307 108.149 43.584C107.811 43.43 107.43 43.353 107.005 43.353C106.381 43.353 105.839 43.4923 105.377 43.771C104.922 44.0497 104.5 44.4457 104.112 44.959V50.25ZM104.002 43.496C104.236 43.2173 104.486 42.9643 104.75 42.737C105.021 42.5023 105.311 42.3043 105.619 42.143C105.927 41.9743 106.253 41.846 106.598 41.758C106.95 41.6627 107.324 41.615 107.72 41.615C108.358 41.615 108.933 41.7397 109.447 41.989C109.967 42.2383 110.411 42.605 110.778 43.089C111.144 43.573 111.427 44.1707 111.625 44.882C111.83 45.5933 111.933 46.411 111.933 47.335C111.933 48.1637 111.819 48.9337 111.592 49.645C111.372 50.349 111.053 50.9613 110.635 51.482C110.224 52.0027 109.718 52.4133 109.117 52.714C108.523 53.0073 107.852 53.154 107.104 53.154C106.436 53.154 105.864 53.044 105.388 52.824C104.911 52.604 104.486 52.296 104.112 51.9V56.751H101.967V41.824H103.254C103.554 41.824 103.741 41.967 103.815 42.253L104.002 43.496ZM123.637 41.824V53H122.35C122.056 53 121.866 52.857 121.778 52.571L121.624 51.449C121.382 51.7057 121.129 51.9403 120.865 52.153C120.601 52.3657 120.318 52.549 120.018 52.703C119.717 52.8497 119.398 52.9633 119.061 53.044C118.723 53.132 118.36 53.176 117.972 53.176C117.356 53.176 116.813 53.0733 116.344 52.868C115.882 52.6627 115.493 52.3767 115.178 52.01C114.862 51.636 114.624 51.1887 114.463 50.668C114.301 50.1473 114.221 49.5717 114.221 48.941V41.824H116.377V48.941C116.377 49.7403 116.56 50.3637 116.927 50.811C117.293 51.251 117.854 51.471 118.61 51.471C119.16 51.471 119.673 51.3427 120.15 51.086C120.626 50.822 121.074 50.4627 121.492 50.008V41.824H123.637ZM128.831 36.764V53H126.675V36.764H128.831ZM137.9 48.039C137.028 48.0683 136.287 48.138 135.678 48.248C135.07 48.3507 134.575 48.49 134.193 48.666C133.812 48.842 133.537 49.051 133.368 49.293C133.2 49.5277 133.115 49.7917 133.115 50.085C133.115 50.3637 133.159 50.6057 133.247 50.811C133.343 51.009 133.467 51.174 133.621 51.306C133.783 51.4307 133.97 51.5223 134.182 51.581C134.395 51.6397 134.626 51.669 134.875 51.669C135.205 51.669 135.506 51.636 135.777 51.57C136.056 51.504 136.316 51.4123 136.558 51.295C136.8 51.1703 137.031 51.02 137.251 50.844C137.471 50.668 137.688 50.4663 137.9 50.239V48.039ZM131.608 43.386C132.232 42.792 132.906 42.3483 133.632 42.055C134.366 41.7617 135.169 41.615 136.041 41.615C136.679 41.615 137.244 41.7213 137.735 41.934C138.227 42.1393 138.641 42.429 138.978 42.803C139.316 43.177 139.569 43.6243 139.737 44.145C139.913 44.6657 140.001 45.2413 140.001 45.872V53H139.044C138.832 53 138.67 52.967 138.56 52.901C138.45 52.8277 138.362 52.6957 138.296 52.505L138.065 51.526C137.779 51.79 137.497 52.0247 137.218 52.23C136.94 52.428 136.646 52.6003 136.338 52.747C136.038 52.8863 135.715 52.9927 135.37 53.066C135.026 53.1393 134.644 53.176 134.226 53.176C133.786 53.176 133.372 53.1173 132.983 53C132.602 52.8753 132.268 52.6883 131.982 52.439C131.696 52.1897 131.469 51.878 131.3 51.504C131.139 51.13 131.058 50.6937 131.058 50.195C131.058 49.755 131.176 49.3333 131.41 48.93C131.652 48.5193 132.041 48.1527 132.576 47.83C133.119 47.5073 133.823 47.2433 134.688 47.038C135.561 46.8327 136.632 46.7153 137.9 46.686V45.872C137.9 45.0287 137.721 44.398 137.361 43.98C137.002 43.562 136.474 43.353 135.777 43.353C135.308 43.353 134.912 43.4117 134.589 43.529C134.274 43.6463 133.999 43.7783 133.764 43.925C133.537 44.0643 133.335 44.1927 133.159 44.31C132.991 44.4273 132.815 44.486 132.631 44.486C132.485 44.486 132.356 44.4457 132.246 44.365C132.144 44.2843 132.059 44.189 131.993 44.079L131.608 43.386ZM144.897 43.969C145.256 43.2357 145.689 42.66 146.195 42.242C146.701 41.824 147.31 41.615 148.021 41.615C148.263 41.615 148.49 41.6443 148.703 41.703C148.923 41.7543 149.114 41.835 149.275 41.945L149.132 43.562C149.081 43.76 148.96 43.859 148.769 43.859C148.666 43.859 148.512 43.8407 148.307 43.804C148.102 43.76 147.882 43.738 147.647 43.738C147.302 43.738 146.998 43.7893 146.734 43.892C146.47 43.9873 146.232 44.134 146.019 44.332C145.814 44.5227 145.63 44.761 145.469 45.047C145.308 45.3257 145.157 45.6447 145.018 46.004V53H142.873V41.824H144.105C144.34 41.824 144.497 41.868 144.578 41.956C144.666 42.0367 144.728 42.1833 144.765 42.396L144.897 43.969ZM-138.029 73.423C-137.648 73.423 -137.314 73.3717 -137.028 73.269C-136.735 73.1663 -136.493 73.0233 -136.302 72.84C-136.104 72.6493 -135.957 72.422 -135.862 72.158C-135.759 71.894 -135.708 71.6043 -135.708 71.289C-135.708 70.6437 -135.906 70.1303 -136.302 69.749C-136.691 69.3603 -137.266 69.166 -138.029 69.166C-138.784 69.166 -139.36 69.3603 -139.756 69.749C-140.145 70.1303 -140.339 70.6437 -140.339 71.289C-140.339 71.6043 -140.291 71.894 -140.196 72.158C-140.093 72.4147 -139.947 72.6383 -139.756 72.829C-139.558 73.0123 -139.316 73.159 -139.03 73.269C-138.737 73.3717 -138.403 73.423 -138.029 73.423ZM-134.608 79.583C-134.608 79.319 -134.681 79.11 -134.828 78.956C-134.975 78.7947 -135.176 78.67 -135.433 78.582C-135.682 78.4867 -135.976 78.4207 -136.313 78.384C-136.65 78.34 -137.006 78.307 -137.38 78.285C-137.747 78.263 -138.124 78.2447 -138.513 78.23C-138.902 78.208 -139.276 78.1713 -139.635 78.12C-140.016 78.3107 -140.332 78.5417 -140.581 78.813C-140.823 79.0843 -140.944 79.4033 -140.944 79.77C-140.944 80.0047 -140.885 80.2247 -140.768 80.43C-140.643 80.6353 -140.456 80.8113 -140.207 80.958C-139.95 81.112 -139.631 81.2293 -139.25 81.31C-138.861 81.398 -138.399 81.442 -137.864 81.442C-137.336 81.442 -136.87 81.3943 -136.467 81.299C-136.064 81.211 -135.726 81.0827 -135.455 80.914C-135.176 80.7527 -134.967 80.5583 -134.828 80.331C-134.681 80.1037 -134.608 79.8543 -134.608 79.583ZM-132.43 68.242V69.045C-132.43 69.309 -132.595 69.474 -132.925 69.54L-134.124 69.716C-134.021 69.9433 -133.941 70.1853 -133.882 70.442C-133.823 70.6913 -133.794 70.9553 -133.794 71.234C-133.794 71.784 -133.9 72.2827 -134.113 72.73C-134.326 73.17 -134.619 73.5477 -134.993 73.863C-135.367 74.1783 -135.814 74.4203 -136.335 74.589C-136.848 74.7577 -137.413 74.842 -138.029 74.842C-138.535 74.842 -139.008 74.787 -139.448 74.677C-139.668 74.809 -139.837 74.9557 -139.954 75.117C-140.064 75.271 -140.119 75.425 -140.119 75.579C-140.119 75.8357 -140.013 76.0263 -139.8 76.151C-139.58 76.2757 -139.298 76.3673 -138.953 76.426C-138.601 76.4773 -138.201 76.5103 -137.754 76.525C-137.299 76.5397 -136.841 76.5653 -136.379 76.602C-135.91 76.6313 -135.451 76.69 -135.004 76.778C-134.549 76.8587 -134.15 76.9943 -133.805 77.185C-133.453 77.3683 -133.171 77.625 -132.958 77.955C-132.738 78.2777 -132.628 78.6993 -132.628 79.22C-132.628 79.704 -132.749 80.1733 -132.991 80.628C-133.226 81.0827 -133.57 81.486 -134.025 81.838C-134.48 82.19 -135.033 82.4723 -135.686 82.685C-136.339 82.8977 -137.079 83.004 -137.908 83.004C-138.737 83.004 -139.459 82.9233 -140.075 82.762C-140.684 82.6007 -141.193 82.3843 -141.604 82.113C-142.007 81.8417 -142.312 81.5263 -142.517 81.167C-142.715 80.8077 -142.814 80.4337 -142.814 80.045C-142.814 79.5023 -142.645 79.044 -142.308 78.67C-141.971 78.2887 -141.505 77.9917 -140.911 77.779C-141.234 77.6323 -141.49 77.4343 -141.681 77.185C-141.872 76.9283 -141.967 76.591 -141.967 76.173C-141.967 76.0117 -141.938 75.8467 -141.879 75.678C-141.82 75.502 -141.732 75.3297 -141.615 75.161C-141.49 74.985 -141.34 74.82 -141.164 74.666C-140.981 74.512 -140.772 74.3727 -140.537 74.248C-141.087 73.94 -141.52 73.533 -141.835 73.027C-142.15 72.5137 -142.308 71.916 -142.308 71.234C-142.308 70.684 -142.202 70.189 -141.989 69.749C-141.776 69.309 -141.483 68.9313 -141.109 68.616C-140.728 68.3007 -140.277 68.0587 -139.756 67.89C-139.228 67.7213 -138.652 67.637 -138.029 67.637C-137.061 67.637 -136.229 67.8387 -135.532 68.242H-132.43ZM-125.871 67.648C-125.05 67.648 -124.309 67.7837 -123.649 68.055C-122.982 68.319 -122.417 68.704 -121.955 69.21C-121.486 69.7087 -121.126 70.3137 -120.877 71.025C-120.628 71.729 -120.503 72.521 -120.503 73.401C-120.503 74.281 -120.628 75.0767 -120.877 75.788C-121.126 76.4993 -121.486 77.1043 -121.955 77.603C-122.417 78.1017 -122.982 78.4867 -123.649 78.758C-124.309 79.022 -125.05 79.154 -125.871 79.154C-126.7 79.154 -127.448 79.022 -128.115 78.758C-128.775 78.4867 -129.34 78.1017 -129.809 77.603C-130.278 77.1043 -130.641 76.4993 -130.898 75.788C-131.147 75.0767 -131.272 74.281 -131.272 73.401C-131.272 72.521 -131.147 71.729 -130.898 71.025C-130.641 70.3137 -130.278 69.7087 -129.809 69.21C-129.34 68.704 -128.775 68.319 -128.115 68.055C-127.448 67.7837 -126.7 67.648 -125.871 67.648ZM-125.871 77.482C-124.815 77.482 -124.027 77.1263 -123.506 76.415C-122.985 75.7037 -122.725 74.7027 -122.725 73.412C-122.725 72.1213 -122.985 71.1203 -123.506 70.409C-124.027 69.6903 -124.815 69.331 -125.871 69.331C-126.942 69.331 -127.741 69.6903 -128.269 70.409C-128.79 71.1203 -129.05 72.1213 -129.05 73.412C-129.05 74.7027 -128.79 75.7037 -128.269 76.415C-127.741 77.1263 -126.942 77.482 -125.871 77.482ZM-108.729 67.824L-113.261 79H-115.197L-119.729 67.824H-117.958C-117.789 67.824 -117.65 67.8643 -117.54 67.945C-117.43 68.0257 -117.356 68.1283 -117.32 68.253L-114.647 75.117C-114.551 75.403 -114.471 75.689 -114.405 75.975C-114.331 76.2537 -114.265 76.5323 -114.207 76.811C-114.148 76.5323 -114.082 76.2537 -114.009 75.975C-113.935 75.6963 -113.847 75.4103 -113.745 75.117L-111.039 68.253C-110.995 68.1283 -110.918 68.0257 -110.808 67.945C-110.698 67.8643 -110.566 67.824 -110.412 67.824H-108.729ZM-99.9418 72.169C-99.9418 71.7437 -100.004 71.3513 -100.129 70.992C-100.246 70.6327 -100.422 70.321 -100.657 70.057C-100.891 69.793 -101.177 69.5877 -101.515 69.441C-101.852 69.2943 -102.241 69.221 -102.681 69.221C-103.583 69.221 -104.294 69.4813 -104.815 70.002C-105.328 70.5227 -105.654 71.245 -105.794 72.169H-99.9418ZM-98.1708 77.405C-98.4348 77.713 -98.7391 77.9807 -99.0838 78.208C-99.4285 78.428 -99.7951 78.6077 -100.184 78.747C-100.572 78.8863 -100.976 78.989 -101.394 79.055C-101.804 79.121 -102.211 79.154 -102.615 79.154C-103.385 79.154 -104.1 79.0257 -104.76 78.769C-105.412 78.505 -105.981 78.1237 -106.465 77.625C-106.941 77.119 -107.315 76.4957 -107.587 75.755C-107.851 75.007 -107.983 74.149 -107.983 73.181C-107.983 72.4037 -107.862 71.6813 -107.62 71.014C-107.378 70.3393 -107.033 69.7527 -106.586 69.254C-106.131 68.7553 -105.577 68.363 -104.925 68.077C-104.272 67.791 -103.539 67.648 -102.725 67.648C-102.043 67.648 -101.416 67.7617 -100.844 67.989C-100.264 68.209 -99.7658 68.5317 -99.3478 68.957C-98.9298 69.3823 -98.6035 69.9067 -98.3688 70.53C-98.1268 71.1533 -98.0058 71.8647 -98.0058 72.664C-98.0058 72.994 -98.0425 73.2177 -98.1158 73.335C-98.1891 73.445 -98.3248 73.5 -98.5228 73.5H-105.849C-105.827 74.1673 -105.731 74.7503 -105.563 75.249C-105.394 75.7403 -105.163 76.151 -104.87 76.481C-104.569 76.811 -104.213 77.0567 -103.803 77.218C-103.392 77.3793 -102.934 77.46 -102.428 77.46C-101.951 77.46 -101.54 77.405 -101.196 77.295C-100.844 77.185 -100.543 77.0677 -100.294 76.943C-100.037 76.811 -99.8245 76.69 -99.6558 76.58C-99.4798 76.47 -99.3258 76.415 -99.1938 76.415C-99.0178 76.415 -98.8821 76.481 -98.7868 76.613L-98.1708 77.405ZM-93.6763 69.969C-93.3169 69.2357 -92.8843 68.66 -92.3783 68.242C-91.8723 67.824 -91.2636 67.615 -90.5523 67.615C-90.3103 67.615 -90.0829 67.6443 -89.8703 67.703C-89.6503 67.7543 -89.4596 67.835 -89.2983 67.945L-89.4413 69.562C-89.4926 69.76 -89.6136 69.859 -89.8043 69.859C-89.9069 69.859 -90.0609 69.8407 -90.2663 69.804C-90.4716 69.76 -90.6916 69.738 -90.9263 69.738C-91.2709 69.738 -91.5753 69.7893 -91.8393 69.892C-92.1033 69.9873 -92.3416 70.134 -92.5543 70.332C-92.7596 70.5227 -92.9429 70.761 -93.1043 71.047C-93.2656 71.3257 -93.4159 71.6447 -93.5553 72.004V79H-95.7003V67.824H-94.4683C-94.2336 67.824 -94.0759 67.868 -93.9953 67.956C-93.9073 68.0367 -93.8449 68.1833 -93.8083 68.396L-93.6763 69.969ZM-85.6306 69.375C-85.3886 69.1183 -85.1356 68.8837 -84.8716 68.671C-84.6076 68.4583 -84.329 68.2787 -84.0356 68.132C-83.735 67.978 -83.416 67.8607 -83.0786 67.78C-82.734 67.692 -82.3673 67.648 -81.9786 67.648C-81.3626 67.648 -80.8236 67.7507 -80.3616 67.956C-79.8923 68.1613 -79.5 68.451 -79.1846 68.825C-78.8693 69.1917 -78.631 69.6353 -78.4696 70.156C-78.3083 70.6767 -78.2276 71.2523 -78.2276 71.883V79H-80.3836V71.883C-80.3836 71.0837 -80.567 70.464 -80.9336 70.024C-81.3003 69.5767 -81.8613 69.353 -82.6166 69.353C-83.1666 69.353 -83.6836 69.485 -84.1676 69.749C-84.6443 70.0057 -85.088 70.3577 -85.4986 70.805V79H-87.6436V67.824H-86.3566C-86.056 67.824 -85.869 67.967 -85.7956 68.253L-85.6306 69.375ZM-69.3271 74.039C-70.1998 74.0683 -70.9404 74.138 -71.5491 74.248C-72.1578 74.3507 -72.6528 74.49 -73.0341 74.666C-73.4154 74.842 -73.6904 75.051 -73.8591 75.293C-74.0278 75.5277 -74.1121 75.7917 -74.1121 76.085C-74.1121 76.3637 -74.0681 76.6057 -73.9801 76.811C-73.8848 77.009 -73.7601 77.174 -73.6061 77.306C-73.4448 77.4307 -73.2578 77.5223 -73.0451 77.581C-72.8324 77.6397 -72.6014 77.669 -72.3521 77.669C-72.0221 77.669 -71.7214 77.636 -71.4501 77.57C-71.1714 77.504 -70.9111 77.4123 -70.6691 77.295C-70.4271 77.1703 -70.1961 77.02 -69.9761 76.844C-69.7561 76.668 -69.5398 76.4663 -69.3271 76.239V74.039ZM-75.6191 69.386C-74.9958 68.792 -74.3211 68.3483 -73.5951 68.055C-72.8618 67.7617 -72.0588 67.615 -71.1861 67.615C-70.5481 67.615 -69.9834 67.7213 -69.4921 67.934C-69.0008 68.1393 -68.5864 68.429 -68.2491 68.803C-67.9118 69.177 -67.6588 69.6243 -67.4901 70.145C-67.3141 70.6657 -67.2261 71.2413 -67.2261 71.872V79H-68.1831C-68.3958 79 -68.5571 78.967 -68.6671 78.901C-68.7771 78.8277 -68.8651 78.6957 -68.9311 78.505L-69.1621 77.526C-69.4481 77.79 -69.7304 78.0247 -70.0091 78.23C-70.2878 78.428 -70.5811 78.6003 -70.8891 78.747C-71.1898 78.8863 -71.5124 78.9927 -71.8571 79.066C-72.2018 79.1393 -72.5831 79.176 -73.0011 79.176C-73.4411 79.176 -73.8554 79.1173 -74.2441 79C-74.6254 78.8753 -74.9591 78.6883 -75.2451 78.439C-75.5311 78.1897 -75.7584 77.878 -75.9271 77.504C-76.0884 77.13 -76.1691 76.6937 -76.1691 76.195C-76.1691 75.755 -76.0518 75.3333 -75.8171 74.93C-75.5751 74.5193 -75.1864 74.1527 -74.6511 73.83C-74.1084 73.5073 -73.4044 73.2433 -72.5391 73.038C-71.6664 72.8327 -70.5958 72.7153 -69.3271 72.686V71.872C-69.3271 71.0287 -69.5068 70.398 -69.8661 69.98C-70.2254 69.562 -70.7534 69.353 -71.4501 69.353C-71.9194 69.353 -72.3154 69.4117 -72.6381 69.529C-72.9534 69.6463 -73.2284 69.7783 -73.4631 69.925C-73.6904 70.0643 -73.8921 70.1927 -74.0681 70.31C-74.2368 70.4273 -74.4128 70.486 -74.5961 70.486C-74.7428 70.486 -74.8711 70.4457 -74.9811 70.365C-75.0838 70.2843 -75.1681 70.189 -75.2341 70.079L-75.6191 69.386ZM-62.3416 69.375C-62.0996 69.1183 -61.8466 68.8837 -61.5826 68.671C-61.3186 68.4583 -61.0399 68.2787 -60.7466 68.132C-60.4459 67.978 -60.1269 67.8607 -59.7896 67.78C-59.4449 67.692 -59.0782 67.648 -58.6896 67.648C-58.0736 67.648 -57.5346 67.7507 -57.0726 67.956C-56.6032 68.1613 -56.2109 68.451 -55.8956 68.825C-55.5802 69.1917 -55.3419 69.6353 -55.1806 70.156C-55.0192 70.6767 -54.9386 71.2523 -54.9386 71.883V79H-57.0946V71.883C-57.0946 71.0837 -57.2779 70.464 -57.6446 70.024C-58.0112 69.5767 -58.5722 69.353 -59.3276 69.353C-59.8776 69.353 -60.3946 69.485 -60.8786 69.749C-61.3552 70.0057 -61.7989 70.3577 -62.2096 70.805V79H-64.3546V67.824H-63.0676C-62.7669 67.824 -62.5799 67.967 -62.5066 68.253L-62.3416 69.375ZM-44.212 69.914C-44.278 69.9947 -44.344 70.0607 -44.41 70.112C-44.4687 70.156 -44.5567 70.178 -44.674 70.178C-44.7914 70.178 -44.916 70.134 -45.048 70.046C-45.1727 69.9507 -45.334 69.8517 -45.532 69.749C-45.7227 69.639 -45.9574 69.54 -46.236 69.452C-46.5074 69.3567 -46.8447 69.309 -47.248 69.309C-47.776 69.309 -48.2417 69.4043 -48.645 69.595C-49.0484 69.7857 -49.3857 70.057 -49.657 70.409C-49.921 70.761 -50.1227 71.19 -50.262 71.696C-50.4014 72.202 -50.471 72.7703 -50.471 73.401C-50.471 74.0537 -50.3977 74.6367 -50.251 75.15C-50.1044 75.656 -49.8954 76.085 -49.624 76.437C-49.3527 76.7817 -49.0227 77.0457 -48.634 77.229C-48.2454 77.405 -47.8127 77.493 -47.336 77.493C-46.874 77.493 -46.4927 77.438 -46.192 77.328C-45.8914 77.2107 -45.642 77.086 -45.444 76.954C-45.246 76.822 -45.081 76.701 -44.949 76.591C-44.817 76.4737 -44.6814 76.415 -44.542 76.415C-44.366 76.415 -44.2304 76.481 -44.135 76.613L-43.519 77.405C-43.7757 77.7203 -44.0654 77.988 -44.388 78.208C-44.7034 78.428 -45.0407 78.6077 -45.4 78.747C-45.7594 78.8863 -46.137 78.989 -46.533 79.055C-46.9217 79.121 -47.3177 79.154 -47.721 79.154C-48.4177 79.154 -49.0704 79.0257 -49.679 78.769C-50.2804 78.5123 -50.8047 78.1383 -51.252 77.647C-51.692 77.1557 -52.0404 76.5543 -52.297 75.843C-52.5537 75.1243 -52.682 74.3103 -52.682 73.401C-52.682 72.5723 -52.5684 71.806 -52.341 71.102C-52.1064 70.398 -51.7654 69.793 -51.318 69.287C-50.8634 68.7737 -50.306 68.374 -49.646 68.088C-48.986 67.7947 -48.2307 67.648 -47.38 67.648C-46.5807 67.648 -45.8767 67.7763 -45.268 68.033C-44.6594 68.2897 -44.1167 68.6527 -43.64 69.122L-44.212 69.914ZM-34.307 72.169C-34.307 71.7437 -34.3694 71.3513 -34.494 70.992C-34.6114 70.6327 -34.7874 70.321 -35.022 70.057C-35.2567 69.793 -35.5427 69.5877 -35.88 69.441C-36.2174 69.2943 -36.606 69.221 -37.046 69.221C-37.948 69.221 -38.6594 69.4813 -39.18 70.002C-39.6934 70.5227 -40.0197 71.245 -40.159 72.169H-34.307ZM-32.536 77.405C-32.8 77.713 -33.1044 77.9807 -33.449 78.208C-33.7937 78.428 -34.1604 78.6077 -34.549 78.747C-34.9377 78.8863 -35.341 78.989 -35.759 79.055C-36.1697 79.121 -36.5767 79.154 -36.98 79.154C-37.75 79.154 -38.465 79.0257 -39.125 78.769C-39.7777 78.505 -40.346 78.1237 -40.83 77.625C-41.3067 77.119 -41.6807 76.4957 -41.952 75.755C-42.216 75.007 -42.348 74.149 -42.348 73.181C-42.348 72.4037 -42.227 71.6813 -41.985 71.014C-41.743 70.3393 -41.3984 69.7527 -40.951 69.254C-40.4964 68.7553 -39.9427 68.363 -39.29 68.077C-38.6374 67.791 -37.904 67.648 -37.09 67.648C-36.408 67.648 -35.781 67.7617 -35.209 67.989C-34.6297 68.209 -34.131 68.5317 -33.713 68.957C-33.295 69.3823 -32.9687 69.9067 -32.734 70.53C-32.492 71.1533 -32.371 71.8647 -32.371 72.664C-32.371 72.994 -32.4077 73.2177 -32.481 73.335C-32.5544 73.445 -32.69 73.5 -32.888 73.5H-40.214C-40.192 74.1673 -40.0967 74.7503 -39.928 75.249C-39.7594 75.7403 -39.5284 76.151 -39.235 76.481C-38.9344 76.811 -38.5787 77.0567 -38.168 77.218C-37.7574 77.3793 -37.299 77.46 -36.793 77.46C-36.3164 77.46 -35.9057 77.405 -35.561 77.295C-35.209 77.185 -34.9084 77.0677 -34.659 76.943C-34.4024 76.811 -34.1897 76.69 -34.021 76.58C-33.845 76.47 -33.691 76.415 -33.559 76.415C-33.383 76.415 -33.2474 76.481 -33.152 76.613L-32.536 77.405ZM-22.3561 76.25C-22.0041 76.712 -21.6264 77.0347 -21.2231 77.218C-20.8124 77.4013 -20.3541 77.493 -19.8481 77.493C-18.8654 77.493 -18.1064 77.141 -17.5711 76.437C-17.0284 75.7257 -16.7571 74.6917 -16.7571 73.335C-16.7571 72.6237 -16.8194 72.0187 -16.9441 71.52C-17.0614 71.014 -17.2374 70.6033 -17.4721 70.288C-17.6994 69.9653 -17.9817 69.7307 -18.3191 69.584C-18.6564 69.43 -19.0377 69.353 -19.4631 69.353C-20.0864 69.353 -20.6291 69.4923 -21.0911 69.771C-21.5457 70.0497 -21.9674 70.4457 -22.3561 70.959V76.25ZM-22.4661 69.496C-22.2314 69.2173 -21.9821 68.9643 -21.7181 68.737C-21.4467 68.5023 -21.1571 68.3043 -20.8491 68.143C-20.5411 67.9743 -20.2147 67.846 -19.8701 67.758C-19.5181 67.6627 -19.1441 67.615 -18.7481 67.615C-18.1101 67.615 -17.5344 67.7397 -17.0211 67.989C-16.5004 68.2383 -16.0567 68.605 -15.6901 69.089C-15.3234 69.573 -15.0411 70.1707 -14.8431 70.882C-14.6377 71.5933 -14.5351 72.411 -14.5351 73.335C-14.5351 74.1637 -14.6487 74.9337 -14.8761 75.645C-15.0961 76.349 -15.4151 76.9613 -15.8331 77.482C-16.2437 78.0027 -16.7497 78.4133 -17.3511 78.714C-17.9451 79.0073 -18.6161 79.154 -19.3641 79.154C-20.0314 79.154 -20.6034 79.044 -21.0801 78.824C-21.5567 78.604 -21.9821 78.296 -22.3561 77.9V82.751H-24.5011V67.824H-23.2141C-22.9134 67.824 -22.7264 67.967 -22.6531 68.253L-22.4661 69.496ZM-10.1021 69.969C-9.74272 69.2357 -9.31006 68.66 -8.80406 68.242C-8.29806 67.824 -7.68939 67.615 -6.97806 67.615C-6.73606 67.615 -6.50872 67.6443 -6.29606 67.703C-6.07606 67.7543 -5.88539 67.835 -5.72406 67.945L-5.86706 69.562C-5.91839 69.76 -6.03939 69.859 -6.23006 69.859C-6.33272 69.859 -6.48672 69.8407 -6.69206 69.804C-6.89739 69.76 -7.11739 69.738 -7.35206 69.738C-7.69672 69.738 -8.00106 69.7893 -8.26506 69.892C-8.52906 69.9873 -8.76739 70.134 -8.98006 70.332C-9.18539 70.5227 -9.36872 70.761 -9.53006 71.047C-9.69139 71.3257 -9.84172 71.6447 -9.98106 72.004V79H-12.1261V67.824H-10.8941C-10.6594 67.824 -10.5017 67.868 -10.4211 67.956C-10.3331 68.0367 -10.2707 68.1833 -10.2341 68.396L-10.1021 69.969ZM0.285381 67.648C1.10671 67.648 1.84738 67.7837 2.50738 68.055C3.17471 68.319 3.73938 68.704 4.20138 69.21C4.67071 69.7087 5.03005 70.3137 5.27938 71.025C5.52872 71.729 5.65338 72.521 5.65338 73.401C5.65338 74.281 5.52872 75.0767 5.27938 75.788C5.03005 76.4993 4.67071 77.1043 4.20138 77.603C3.73938 78.1017 3.17471 78.4867 2.50738 78.758C1.84738 79.022 1.10671 79.154 0.285381 79.154C-0.543285 79.154 -1.29129 79.022 -1.95862 78.758C-2.61862 78.4867 -3.18329 78.1017 -3.65262 77.603C-4.12195 77.1043 -4.48495 76.4993 -4.74162 75.788C-4.99095 75.0767 -5.11562 74.281 -5.11562 73.401C-5.11562 72.521 -4.99095 71.729 -4.74162 71.025C-4.48495 70.3137 -4.12195 69.7087 -3.65262 69.21C-3.18329 68.704 -2.61862 68.319 -1.95862 68.055C-1.29129 67.7837 -0.543285 67.648 0.285381 67.648ZM0.285381 77.482C1.34138 77.482 2.12971 77.1263 2.65038 76.415C3.17105 75.7037 3.43138 74.7027 3.43138 73.412C3.43138 72.1213 3.17105 71.1203 2.65038 70.409C2.12971 69.6903 1.34138 69.331 0.285381 69.331C-0.785285 69.331 -1.58462 69.6903 -2.11262 70.409C-2.63329 71.1203 -2.89362 72.1213 -2.89362 73.412C-2.89362 74.7027 -2.63329 75.7037 -2.11262 76.415C-1.58462 77.1263 -0.785285 77.482 0.285381 77.482ZM10.1928 76.25C10.5448 76.712 10.9224 77.0347 11.3258 77.218C11.7364 77.4013 12.1948 77.493 12.7008 77.493C13.6834 77.493 14.4424 77.141 14.9778 76.437C15.5204 75.7257 15.7918 74.6917 15.7918 73.335C15.7918 72.6237 15.7294 72.0187 15.6048 71.52C15.4874 71.014 15.3114 70.6033 15.0768 70.288C14.8494 69.9653 14.5671 69.7307 14.2298 69.584C13.8924 69.43 13.5111 69.353 13.0858 69.353C12.4624 69.353 11.9198 69.4923 11.4578 69.771C11.0031 70.0497 10.5814 70.4457 10.1928 70.959V76.25ZM10.0828 69.496C10.3174 69.2173 10.5668 68.9643 10.8308 68.737C11.1021 68.5023 11.3918 68.3043 11.6998 68.143C12.0078 67.9743 12.3341 67.846 12.6788 67.758C13.0308 67.6627 13.4048 67.615 13.8008 67.615C14.4388 67.615 15.0144 67.7397 15.5278 67.989C16.0484 68.2383 16.4921 68.605 16.8588 69.089C17.2254 69.573 17.5078 70.1707 17.7058 70.882C17.9111 71.5933 18.0138 72.411 18.0138 73.335C18.0138 74.1637 17.9001 74.9337 17.6728 75.645C17.4528 76.349 17.1338 76.9613 16.7158 77.482C16.3051 78.0027 15.7991 78.4133 15.1978 78.714C14.6038 79.0073 13.9328 79.154 13.1848 79.154C12.5174 79.154 11.9454 79.044 11.4688 78.824C10.9921 78.604 10.5668 78.296 10.1928 77.9V82.751H8.04777V67.824H9.33477C9.63544 67.824 9.82244 67.967 9.89577 68.253L10.0828 69.496ZM25.1858 67.648C26.0071 67.648 26.7478 67.7837 27.4078 68.055C28.0751 68.319 28.6398 68.704 29.1018 69.21C29.5711 69.7087 29.9304 70.3137 30.1798 71.025C30.4291 71.729 30.5538 72.521 30.5538 73.401C30.5538 74.281 30.4291 75.0767 30.1798 75.788C29.9304 76.4993 29.5711 77.1043 29.1018 77.603C28.6398 78.1017 28.0751 78.4867 27.4078 78.758C26.7478 79.022 26.0071 79.154 25.1858 79.154C24.3571 79.154 23.6091 79.022 22.9418 78.758C22.2818 78.4867 21.7171 78.1017 21.2478 77.603C20.7784 77.1043 20.4154 76.4993 20.1588 75.788C19.9094 75.0767 19.7848 74.281 19.7848 73.401C19.7848 72.521 19.9094 71.729 20.1588 71.025C20.4154 70.3137 20.7784 69.7087 21.2478 69.21C21.7171 68.704 22.2818 68.319 22.9418 68.055C23.6091 67.7837 24.3571 67.648 25.1858 67.648ZM25.1858 77.482C26.2418 77.482 27.0301 77.1263 27.5508 76.415C28.0714 75.7037 28.3318 74.7027 28.3318 73.412C28.3318 72.1213 28.0714 71.1203 27.5508 70.409C27.0301 69.6903 26.2418 69.331 25.1858 69.331C24.1151 69.331 23.3158 69.6903 22.7878 70.409C22.2671 71.1203 22.0068 72.1213 22.0068 73.412C22.0068 74.7027 22.2671 75.7037 22.7878 76.415C23.3158 77.1263 24.1151 77.482 25.1858 77.482ZM39.5372 69.749C39.4785 69.8443 39.4162 69.914 39.3502 69.958C39.2842 69.9947 39.1998 70.013 39.0972 70.013C38.9798 70.013 38.8478 69.9727 38.7012 69.892C38.5618 69.8113 38.3895 69.7233 38.1842 69.628C37.9862 69.5327 37.7515 69.4447 37.4802 69.364C37.2088 69.2833 36.8862 69.243 36.5122 69.243C36.2042 69.243 35.9218 69.2833 35.6652 69.364C35.4158 69.4373 35.2032 69.5437 35.0272 69.683C34.8512 69.815 34.7155 69.9763 34.6202 70.167C34.5248 70.3503 34.4772 70.5483 34.4772 70.761C34.4772 71.0397 34.5578 71.2707 34.7192 71.454C34.8878 71.6373 35.1042 71.795 35.3682 71.927C35.6395 72.059 35.9438 72.18 36.2812 72.29C36.6258 72.3927 36.9742 72.5027 37.3262 72.62C37.6855 72.7373 38.0338 72.873 38.3712 73.027C38.7158 73.1737 39.0202 73.3607 39.2842 73.588C39.5555 73.808 39.7718 74.0757 39.9332 74.391C40.1018 74.7063 40.1862 75.0913 40.1862 75.546C40.1862 76.0667 40.0908 76.5507 39.9002 76.998C39.7168 77.438 39.4418 77.8193 39.0752 78.142C38.7158 78.4647 38.2685 78.7177 37.7332 78.901C37.1978 79.0843 36.5855 79.176 35.8962 79.176C35.1262 79.176 34.4148 79.0477 33.7622 78.791C33.1095 78.5343 32.5632 78.208 32.1232 77.812L32.6292 76.987C32.6878 76.8843 32.7612 76.8073 32.8492 76.756C32.9372 76.6973 33.0545 76.668 33.2012 76.668C33.3405 76.668 33.4835 76.7193 33.6302 76.822C33.7768 76.9247 33.9528 77.0383 34.1582 77.163C34.3635 77.2803 34.6128 77.3903 34.9062 77.493C35.1995 77.5883 35.5662 77.636 36.0062 77.636C36.3728 77.636 36.6918 77.592 36.9632 77.504C37.2345 77.4087 37.4582 77.284 37.6342 77.13C37.8175 76.9687 37.9532 76.7853 38.0412 76.58C38.1292 76.3747 38.1732 76.1583 38.1732 75.931C38.1732 75.6377 38.0888 75.3957 37.9202 75.205C37.7588 75.007 37.5425 74.8383 37.2712 74.699C37.0072 74.5597 36.7028 74.4387 36.3582 74.336C36.0135 74.2333 35.6615 74.1233 35.3022 74.006C34.9428 73.8887 34.5908 73.753 34.2462 73.599C33.9015 73.445 33.5935 73.2507 33.3222 73.016C33.0582 72.7813 32.8418 72.4953 32.6732 72.158C32.5118 71.8207 32.4312 71.41 32.4312 70.926C32.4312 70.4933 32.5192 70.079 32.6952 69.683C32.8785 69.287 33.1388 68.9387 33.4762 68.638C33.8208 68.3373 34.2425 68.099 34.7412 67.923C35.2472 67.7397 35.8228 67.648 36.4682 67.648C37.2088 67.648 37.8762 67.7653 38.4702 68C39.0715 68.2347 39.5848 68.5573 40.0102 68.968L39.5372 69.749ZM48.5147 74.039C47.642 74.0683 46.9014 74.138 46.2927 74.248C45.684 74.3507 45.189 74.49 44.8077 74.666C44.4264 74.842 44.1514 75.051 43.9827 75.293C43.814 75.5277 43.7297 75.7917 43.7297 76.085C43.7297 76.3637 43.7737 76.6057 43.8617 76.811C43.957 77.009 44.0817 77.174 44.2357 77.306C44.397 77.4307 44.584 77.5223 44.7967 77.581C45.0094 77.6397 45.2404 77.669 45.4897 77.669C45.8197 77.669 46.1204 77.636 46.3917 77.57C46.6704 77.504 46.9307 77.4123 47.1727 77.295C47.4147 77.1703 47.6457 77.02 47.8657 76.844C48.0857 76.668 48.302 76.4663 48.5147 76.239V74.039ZM42.2227 69.386C42.846 68.792 43.5207 68.3483 44.2467 68.055C44.98 67.7617 45.783 67.615 46.6557 67.615C47.2937 67.615 47.8584 67.7213 48.3497 67.934C48.841 68.1393 49.2554 68.429 49.5927 68.803C49.93 69.177 50.183 69.6243 50.3517 70.145C50.5277 70.6657 50.6157 71.2413 50.6157 71.872V79H49.6587C49.446 79 49.2847 78.967 49.1747 78.901C49.0647 78.8277 48.9767 78.6957 48.9107 78.505L48.6797 77.526C48.3937 77.79 48.1114 78.0247 47.8327 78.23C47.554 78.428 47.2607 78.6003 46.9527 78.747C46.652 78.8863 46.3294 78.9927 45.9847 79.066C45.64 79.1393 45.2587 79.176 44.8407 79.176C44.4007 79.176 43.9864 79.1173 43.5977 79C43.2164 78.8753 42.8827 78.6883 42.5967 78.439C42.3107 78.1897 42.0834 77.878 41.9147 77.504C41.7534 77.13 41.6727 76.6937 41.6727 76.195C41.6727 75.755 41.79 75.3333 42.0247 74.93C42.2667 74.5193 42.6554 74.1527 43.1907 73.83C43.7334 73.5073 44.4374 73.2433 45.3027 73.038C46.1754 72.8327 47.246 72.7153 48.5147 72.686V71.872C48.5147 71.0287 48.335 70.398 47.9757 69.98C47.6164 69.562 47.0884 69.353 46.3917 69.353C45.9224 69.353 45.5264 69.4117 45.2037 69.529C44.8884 69.6463 44.6134 69.7783 44.3787 69.925C44.1514 70.0643 43.9497 70.1927 43.7737 70.31C43.605 70.4273 43.429 70.486 43.2457 70.486C43.099 70.486 42.9707 70.4457 42.8607 70.365C42.758 70.2843 42.6737 70.189 42.6077 70.079L42.2227 69.386ZM55.6872 62.764V79H53.5312V62.764H55.6872ZM65.3399 69.749C65.2812 69.8443 65.2189 69.914 65.1529 69.958C65.0869 69.9947 65.0026 70.013 64.8999 70.013C64.7826 70.013 64.6506 69.9727 64.5039 69.892C64.3646 69.8113 64.1922 69.7233 63.9869 69.628C63.7889 69.5327 63.5542 69.4447 63.2829 69.364C63.0116 69.2833 62.6889 69.243 62.3149 69.243C62.0069 69.243 61.7246 69.2833 61.4679 69.364C61.2186 69.4373 61.0059 69.5437 60.8299 69.683C60.6539 69.815 60.5182 69.9763 60.4229 70.167C60.3276 70.3503 60.2799 70.5483 60.2799 70.761C60.2799 71.0397 60.3606 71.2707 60.5219 71.454C60.6906 71.6373 60.9069 71.795 61.1709 71.927C61.4422 72.059 61.7466 72.18 62.0839 72.29C62.4286 72.3927 62.7769 72.5027 63.1289 72.62C63.4882 72.7373 63.8366 72.873 64.1739 73.027C64.5186 73.1737 64.8229 73.3607 65.0869 73.588C65.3582 73.808 65.5746 74.0757 65.7359 74.391C65.9046 74.7063 65.9889 75.0913 65.9889 75.546C65.9889 76.0667 65.8936 76.5507 65.7029 76.998C65.5196 77.438 65.2446 77.8193 64.8779 78.142C64.5186 78.4647 64.0712 78.7177 63.5359 78.901C63.0006 79.0843 62.3882 79.176 61.6989 79.176C60.9289 79.176 60.2176 79.0477 59.5649 78.791C58.9122 78.5343 58.3659 78.208 57.9259 77.812L58.4319 76.987C58.4906 76.8843 58.5639 76.8073 58.6519 76.756C58.7399 76.6973 58.8572 76.668 59.0039 76.668C59.1432 76.668 59.2862 76.7193 59.4329 76.822C59.5796 76.9247 59.7556 77.0383 59.9609 77.163C60.1662 77.2803 60.4156 77.3903 60.7089 77.493C61.0022 77.5883 61.3689 77.636 61.8089 77.636C62.1756 77.636 62.4946 77.592 62.7659 77.504C63.0372 77.4087 63.2609 77.284 63.4369 77.13C63.6202 76.9687 63.7559 76.7853 63.8439 76.58C63.9319 76.3747 63.9759 76.1583 63.9759 75.931C63.9759 75.6377 63.8916 75.3957 63.7229 75.205C63.5616 75.007 63.3452 74.8383 63.0739 74.699C62.8099 74.5597 62.5056 74.4387 62.1609 74.336C61.8162 74.2333 61.4642 74.1233 61.1049 74.006C60.7456 73.8887 60.3936 73.753 60.0489 73.599C59.7042 73.445 59.3962 73.2507 59.1249 73.016C58.8609 72.7813 58.6446 72.4953 58.4759 72.158C58.3146 71.8207 58.2339 71.41 58.2339 70.926C58.2339 70.4933 58.3219 70.079 58.4979 69.683C58.6812 69.287 58.9416 68.9387 59.2789 68.638C59.6236 68.3373 60.0452 68.099 60.5439 67.923C61.0499 67.7397 61.6256 67.648 62.2709 67.648C63.0116 67.648 63.6789 67.7653 64.2729 68C64.8742 68.2347 65.3876 68.5573 65.8129 68.968L65.3399 69.749ZM79.8819 74.039C79.0092 74.0683 78.2686 74.138 77.6599 74.248C77.0512 74.3507 76.5562 74.49 76.1749 74.666C75.7936 74.842 75.5186 75.051 75.3499 75.293C75.1812 75.5277 75.0969 75.7917 75.0969 76.085C75.0969 76.3637 75.1409 76.6057 75.2289 76.811C75.3242 77.009 75.4489 77.174 75.6029 77.306C75.7642 77.4307 75.9512 77.5223 76.1639 77.581C76.3766 77.6397 76.6076 77.669 76.8569 77.669C77.1869 77.669 77.4876 77.636 77.7589 77.57C78.0376 77.504 78.2979 77.4123 78.5399 77.295C78.7819 77.1703 79.0129 77.02 79.2329 76.844C79.4529 76.668 79.6692 76.4663 79.8819 76.239V74.039ZM73.5899 69.386C74.2132 68.792 74.8879 68.3483 75.6139 68.055C76.3472 67.7617 77.1502 67.615 78.0229 67.615C78.6609 67.615 79.2256 67.7213 79.7169 67.934C80.2082 68.1393 80.6226 68.429 80.9599 68.803C81.2972 69.177 81.5502 69.6243 81.7189 70.145C81.8949 70.6657 81.9829 71.2413 81.9829 71.872V79H81.0259C80.8132 79 80.6519 78.967 80.5419 78.901C80.4319 78.8277 80.3439 78.6957 80.2779 78.505L80.0469 77.526C79.7609 77.79 79.4786 78.0247 79.1999 78.23C78.9212 78.428 78.6279 78.6003 78.3199 78.747C78.0192 78.8863 77.6966 78.9927 77.3519 79.066C77.0072 79.1393 76.6259 79.176 76.2079 79.176C75.7679 79.176 75.3536 79.1173 74.9649 79C74.5836 78.8753 74.2499 78.6883 73.9639 78.439C73.6779 78.1897 73.4506 77.878 73.2819 77.504C73.1206 77.13 73.0399 76.6937 73.0399 76.195C73.0399 75.755 73.1572 75.3333 73.3919 74.93C73.6339 74.5193 74.0226 74.1527 74.5579 73.83C75.1006 73.5073 75.8046 73.2433 76.6699 73.038C77.5426 72.8327 78.6132 72.7153 79.8819 72.686V71.872C79.8819 71.0287 79.7022 70.398 79.3429 69.98C78.9836 69.562 78.4556 69.353 77.7589 69.353C77.2896 69.353 76.8936 69.4117 76.5709 69.529C76.2556 69.6463 75.9806 69.7783 75.7459 69.925C75.5186 70.0643 75.3169 70.1927 75.1409 70.31C74.9722 70.4273 74.7962 70.486 74.6129 70.486C74.4662 70.486 74.3379 70.4457 74.2279 70.365C74.1252 70.2843 74.0409 70.189 73.9749 70.079L73.5899 69.386ZM86.8674 69.375C87.1094 69.1183 87.3624 68.8837 87.6264 68.671C87.8904 68.4583 88.1691 68.2787 88.4624 68.132C88.7631 67.978 89.0821 67.8607 89.4194 67.78C89.7641 67.692 90.1307 67.648 90.5194 67.648C91.1354 67.648 91.6744 67.7507 92.1364 67.956C92.6057 68.1613 92.9981 68.451 93.3134 68.825C93.6287 69.1917 93.8671 69.6353 94.0284 70.156C94.1897 70.6767 94.2704 71.2523 94.2704 71.883V79H92.1144V71.883C92.1144 71.0837 91.9311 70.464 91.5644 70.024C91.1977 69.5767 90.6367 69.353 89.8814 69.353C89.3314 69.353 88.8144 69.485 88.3304 69.749C87.8537 70.0057 87.4101 70.3577 86.9994 70.805V79H84.8544V67.824H86.1414C86.4421 67.824 86.6291 67.967 86.7024 68.253L86.8674 69.375ZM104.37 70.53C104.018 70.068 103.637 69.7453 103.226 69.562C102.823 69.3787 102.368 69.287 101.862 69.287C100.879 69.287 100.117 69.6427 99.574 70.354C99.0386 71.058 98.771 72.0883 98.771 73.445C98.771 74.1563 98.8296 74.765 98.947 75.271C99.0716 75.7697 99.2476 76.1803 99.475 76.503C99.7096 76.8183 99.9956 77.053 100.333 77.207C100.67 77.3537 101.052 77.427 101.477 77.427C102.1 77.427 102.639 77.2877 103.094 77.009C103.549 76.7303 103.974 76.338 104.37 75.832V70.53ZM106.526 62.764V79H105.228C104.927 79 104.74 78.857 104.667 78.571L104.48 77.284C104.003 77.8487 103.461 78.3033 102.852 78.648C102.251 78.9853 101.554 79.154 100.762 79.154C100.124 79.154 99.5446 79.0293 99.024 78.78C98.5106 78.5307 98.0706 78.1677 97.704 77.691C97.3373 77.207 97.055 76.6093 96.857 75.898C96.659 75.1867 96.56 74.369 96.56 73.445C96.56 72.6163 96.67 71.8463 96.89 71.135C97.11 70.4237 97.429 69.8077 97.847 69.287C98.265 68.7663 98.771 68.3593 99.365 68.066C99.959 67.7653 100.63 67.615 101.378 67.615C102.053 67.615 102.625 67.725 103.094 67.945C103.571 68.165 103.996 68.4767 104.37 68.88V62.764H106.526ZM-108.461 95.914C-108.527 95.9947 -108.593 96.0607 -108.659 96.112C-108.718 96.156 -108.806 96.178 -108.923 96.178C-109.04 96.178 -109.165 96.134 -109.297 96.046C-109.422 95.9507 -109.583 95.8517 -109.781 95.749C-109.972 95.639 -110.206 95.54 -110.485 95.452C-110.756 95.3567 -111.094 95.309 -111.497 95.309C-112.025 95.309 -112.491 95.4043 -112.894 95.595C-113.297 95.7857 -113.635 96.057 -113.906 96.409C-114.17 96.761 -114.372 97.19 -114.511 97.696C-114.65 98.202 -114.72 98.7703 -114.72 99.401C-114.72 100.054 -114.647 100.637 -114.5 101.15C-114.353 101.656 -114.144 102.085 -113.873 102.437C-113.602 102.782 -113.272 103.046 -112.883 103.229C-112.494 103.405 -112.062 103.493 -111.585 103.493C-111.123 103.493 -110.742 103.438 -110.441 103.328C-110.14 103.211 -109.891 103.086 -109.693 102.954C-109.495 102.822 -109.33 102.701 -109.198 102.591C-109.066 102.474 -108.93 102.415 -108.791 102.415C-108.615 102.415 -108.479 102.481 -108.384 102.613L-107.768 103.405C-108.025 103.72 -108.314 103.988 -108.637 104.208C-108.952 104.428 -109.29 104.608 -109.649 104.747C-110.008 104.886 -110.386 104.989 -110.782 105.055C-111.171 105.121 -111.567 105.154 -111.97 105.154C-112.667 105.154 -113.319 105.026 -113.928 104.769C-114.529 104.512 -115.054 104.138 -115.501 103.647C-115.941 103.156 -116.289 102.554 -116.546 101.843C-116.803 101.124 -116.931 100.31 -116.931 99.401C-116.931 98.5723 -116.817 97.806 -116.59 97.102C-116.355 96.398 -116.014 95.793 -115.567 95.287C-115.112 94.7737 -114.555 94.374 -113.895 94.088C-113.235 93.7947 -112.48 93.648 -111.629 93.648C-110.83 93.648 -110.126 93.7763 -109.517 94.033C-108.908 94.2897 -108.366 94.6527 -107.889 95.122L-108.461 95.914ZM-101.196 93.648C-100.375 93.648 -99.6341 93.7837 -98.9741 94.055C-98.3067 94.319 -97.7421 94.704 -97.2801 95.21C-96.8107 95.7087 -96.4514 96.3137 -96.2021 97.025C-95.9527 97.729 -95.8281 98.521 -95.8281 99.401C-95.8281 100.281 -95.9527 101.077 -96.2021 101.788C-96.4514 102.499 -96.8107 103.104 -97.2801 103.603C-97.7421 104.102 -98.3067 104.487 -98.9741 104.758C-99.6341 105.022 -100.375 105.154 -101.196 105.154C-102.025 105.154 -102.773 105.022 -103.44 104.758C-104.1 104.487 -104.665 104.102 -105.134 103.603C-105.603 103.104 -105.966 102.499 -106.223 101.788C-106.472 101.077 -106.597 100.281 -106.597 99.401C-106.597 98.521 -106.472 97.729 -106.223 97.025C-105.966 96.3137 -105.603 95.7087 -105.134 95.21C-104.665 94.704 -104.1 94.319 -103.44 94.055C-102.773 93.7837 -102.025 93.648 -101.196 93.648ZM-101.196 103.482C-100.14 103.482 -99.3517 103.126 -98.8311 102.415C-98.3104 101.704 -98.0501 100.703 -98.0501 99.412C-98.0501 98.1213 -98.3104 97.1203 -98.8311 96.409C-99.3517 95.6903 -100.14 95.331 -101.196 95.331C-102.267 95.331 -103.066 95.6903 -103.594 96.409C-104.115 97.1203 -104.375 98.1213 -104.375 99.412C-104.375 100.703 -104.115 101.704 -103.594 102.415C-103.066 103.126 -102.267 103.482 -101.196 103.482ZM-93.4337 105V93.824H-92.1467C-91.846 93.824 -91.659 93.967 -91.5857 94.253L-91.4317 95.32C-91.021 94.8287 -90.5663 94.429 -90.0677 94.121C-89.5617 93.8057 -88.9713 93.648 -88.2967 93.648C-87.556 93.648 -86.9547 93.8533 -86.4927 94.264C-86.0307 94.6673 -85.6933 95.2173 -85.4807 95.914C-85.3193 95.518 -85.1103 95.177 -84.8537 94.891C-84.597 94.605 -84.311 94.3703 -83.9957 94.187C-83.6803 94.0037 -83.3467 93.868 -82.9947 93.78C-82.6353 93.692 -82.2723 93.648 -81.9057 93.648C-81.3117 93.648 -80.7837 93.7433 -80.3217 93.934C-79.8523 94.1173 -79.4563 94.3887 -79.1337 94.748C-78.811 95.1073 -78.5653 95.551 -78.3967 96.079C-78.228 96.607 -78.1437 97.2083 -78.1437 97.883V105H-80.2997V97.883C-80.2997 97.047 -80.483 96.4163 -80.8497 95.991C-81.209 95.5657 -81.737 95.353 -82.4337 95.353C-82.7417 95.353 -83.035 95.408 -83.3137 95.518C-83.5923 95.6207 -83.838 95.7783 -84.0507 95.991C-84.256 96.2037 -84.421 96.4677 -84.5457 96.783C-84.663 97.0983 -84.7217 97.465 -84.7217 97.883V105H-86.8777V97.883C-86.8777 97.0177 -87.05 96.3797 -87.3947 95.969C-87.7393 95.5583 -88.2453 95.353 -88.9127 95.353C-89.3747 95.353 -89.8037 95.474 -90.1997 95.716C-90.5957 95.958 -90.9587 96.288 -91.2887 96.706V105H-93.4337ZM-75.2579 105V93.824H-73.9709C-73.6702 93.824 -73.4832 93.967 -73.4099 94.253L-73.2559 95.32C-72.8452 94.8287 -72.3906 94.429 -71.8919 94.121C-71.3859 93.8057 -70.7956 93.648 -70.1209 93.648C-69.3802 93.648 -68.7789 93.8533 -68.3169 94.264C-67.8549 94.6673 -67.5176 95.2173 -67.3049 95.914C-67.1436 95.518 -66.9346 95.177 -66.6779 94.891C-66.4212 94.605 -66.1352 94.3703 -65.8199 94.187C-65.5046 94.0037 -65.1709 93.868 -64.8189 93.78C-64.4596 93.692 -64.0966 93.648 -63.7299 93.648C-63.1359 93.648 -62.6079 93.7433 -62.1459 93.934C-61.6766 94.1173 -61.2806 94.3887 -60.9579 94.748C-60.6352 95.1073 -60.3896 95.551 -60.2209 96.079C-60.0522 96.607 -59.9679 97.2083 -59.9679 97.883V105H-62.1239V97.883C-62.1239 97.047 -62.3072 96.4163 -62.6739 95.991C-63.0332 95.5657 -63.5612 95.353 -64.2579 95.353C-64.5659 95.353 -64.8592 95.408 -65.1379 95.518C-65.4166 95.6207 -65.6622 95.7783 -65.8749 95.991C-66.0802 96.2037 -66.2452 96.4677 -66.3699 96.783C-66.4872 97.0983 -66.5459 97.465 -66.5459 97.883V105H-68.7019V97.883C-68.7019 97.0177 -68.8742 96.3797 -69.2189 95.969C-69.5636 95.5583 -70.0696 95.353 -70.7369 95.353C-71.1989 95.353 -71.6279 95.474 -72.0239 95.716C-72.4199 95.958 -72.7829 96.288 -73.1129 96.706V105H-75.2579ZM-47.7871 93.824V105H-49.0741C-49.3674 105 -49.5581 104.857 -49.6461 104.571L-49.8001 103.449C-50.0421 103.706 -50.2951 103.94 -50.5591 104.153C-50.8231 104.366 -51.1054 104.549 -51.4061 104.703C-51.7068 104.85 -52.0258 104.963 -52.3631 105.044C-52.7004 105.132 -53.0634 105.176 -53.4521 105.176C-54.0681 105.176 -54.6108 105.073 -55.0801 104.868C-55.5421 104.663 -55.9308 104.377 -56.2461 104.01C-56.5614 103.636 -56.7998 103.189 -56.9611 102.668C-57.1224 102.147 -57.2031 101.572 -57.2031 100.941V93.824H-55.0471V100.941C-55.0471 101.74 -54.8638 102.364 -54.4971 102.811C-54.1304 103.251 -53.5694 103.471 -52.8141 103.471C-52.2641 103.471 -51.7508 103.343 -51.2741 103.086C-50.7974 102.822 -50.3501 102.463 -49.9321 102.008V93.824H-47.7871ZM-42.78 95.375C-42.538 95.1183 -42.285 94.8837 -42.021 94.671C-41.757 94.4583 -41.4784 94.2787 -41.185 94.132C-40.8844 93.978 -40.5654 93.8607 -40.228 93.78C-39.8834 93.692 -39.5167 93.648 -39.128 93.648C-38.512 93.648 -37.973 93.7507 -37.511 93.956C-37.0417 94.1613 -36.6494 94.451 -36.334 94.825C-36.0187 95.1917 -35.7804 95.6353 -35.619 96.156C-35.4577 96.6767 -35.377 97.2523 -35.377 97.883V105H-37.533V97.883C-37.533 97.0837 -37.7164 96.464 -38.083 96.024C-38.4497 95.5767 -39.0107 95.353 -39.766 95.353C-40.316 95.353 -40.833 95.485 -41.317 95.749C-41.7937 96.0057 -42.2374 96.3577 -42.648 96.805V105H-44.793V93.824H-43.506C-43.2054 93.824 -43.0184 93.967 -42.945 94.253L-42.78 95.375ZM-30.2385 93.824V105H-32.3835V93.824H-30.2385ZM-29.8315 90.37C-29.8315 90.568 -29.8718 90.7587 -29.9525 90.942C-30.0332 91.118 -30.1432 91.2757 -30.2825 91.415C-30.4145 91.547 -30.5722 91.6533 -30.7555 91.734C-30.9388 91.8073 -31.1295 91.844 -31.3275 91.844C-31.5255 91.844 -31.7125 91.8073 -31.8885 91.734C-32.0645 91.6533 -32.2222 91.547 -32.3615 91.415C-32.4935 91.2757 -32.5998 91.118 -32.6805 90.942C-32.7538 90.7587 -32.7905 90.568 -32.7905 90.37C-32.7905 90.1647 -32.7538 89.974 -32.6805 89.798C-32.5998 89.6147 -32.4935 89.457 -32.3615 89.325C-32.2222 89.1857 -32.0645 89.0793 -31.8885 89.006C-31.7125 88.9253 -31.5255 88.885 -31.3275 88.885C-31.1295 88.885 -30.9388 88.9253 -30.7555 89.006C-30.5722 89.0793 -30.4145 89.1857 -30.2825 89.325C-30.1432 89.457 -30.0332 89.6147 -29.9525 89.798C-29.8718 89.974 -29.8315 90.1647 -29.8315 90.37ZM-23.6349 105.176C-24.5369 105.176 -25.2336 104.923 -25.7249 104.417C-26.2089 103.911 -26.4509 103.189 -26.4509 102.25V95.562H-27.7489C-27.8736 95.562 -27.9799 95.5253 -28.0679 95.452C-28.1486 95.3713 -28.1889 95.254 -28.1889 95.1V94.231L-26.3739 93.978L-25.8899 90.645C-25.8606 90.5203 -25.8056 90.425 -25.7249 90.359C-25.6369 90.2857 -25.5269 90.249 -25.3949 90.249H-24.3059V94H-21.1379V95.562H-24.3059V102.107C-24.3059 102.547 -24.1996 102.877 -23.9869 103.097C-23.7669 103.31 -23.4882 103.416 -23.1509 103.416C-22.9529 103.416 -22.7842 103.39 -22.6449 103.339C-22.4982 103.288 -22.3736 103.233 -22.2709 103.174C-22.1682 103.108 -22.0802 103.049 -22.0069 102.998C-21.9336 102.947 -21.8676 102.921 -21.8089 102.921C-21.7356 102.921 -21.6806 102.939 -21.6439 102.976C-21.5999 103.005 -21.5559 103.057 -21.5119 103.13L-20.8739 104.164C-21.2259 104.487 -21.6439 104.736 -22.1279 104.912C-22.6119 105.088 -23.1142 105.176 -23.6349 105.176ZM-9.39419 93.824L-15.5982 108.245C-15.6642 108.406 -15.7522 108.531 -15.8622 108.619C-15.9722 108.707 -16.1335 108.751 -16.3462 108.751H-17.9412L-15.8952 104.296L-20.4822 93.824H-18.6122C-18.4289 93.824 -18.2859 93.868 -18.1832 93.956C-18.0805 94.044 -18.0072 94.143 -17.9632 94.253L-15.1252 100.963C-15.0665 101.132 -15.0115 101.304 -14.9602 101.48C-14.9015 101.649 -14.8539 101.817 -14.8172 101.986C-14.7659 101.81 -14.7109 101.638 -14.6522 101.469C-14.5935 101.293 -14.5312 101.121 -14.4652 100.952L-11.7262 94.253C-11.6749 94.1283 -11.5942 94.0257 -11.4842 93.945C-11.3742 93.8643 -11.2495 93.824 -11.1102 93.824H-9.39419ZM6.56836 93.824V105H5.28136C4.98802 105 4.79736 104.857 4.70936 104.571L4.55536 103.449C4.31336 103.706 4.06036 103.94 3.79636 104.153C3.53236 104.366 3.25002 104.549 2.94936 104.703C2.64869 104.85 2.32969 104.963 1.99236 105.044C1.65502 105.132 1.29202 105.176 0.903358 105.176C0.287358 105.176 -0.255309 105.073 -0.724643 104.868C-1.18664 104.663 -1.57531 104.377 -1.89064 104.01C-2.20598 103.636 -2.44431 103.189 -2.60564 102.668C-2.76698 102.147 -2.84764 101.572 -2.84764 100.941V93.824H-0.691642V100.941C-0.691642 101.74 -0.508309 102.364 -0.141642 102.811C0.225024 103.251 0.786024 103.471 1.54136 103.471C2.09136 103.471 2.60469 103.343 3.08136 103.086C3.55802 102.822 4.00536 102.463 4.42336 102.008V93.824H6.56836ZM11.7074 102.25C12.0594 102.712 12.4371 103.035 12.8404 103.218C13.2511 103.401 13.7094 103.493 14.2154 103.493C15.1981 103.493 15.9571 103.141 16.4924 102.437C17.0351 101.726 17.3064 100.692 17.3064 99.335C17.3064 98.6237 17.2441 98.0187 17.1194 97.52C17.0021 97.014 16.8261 96.6033 16.5914 96.288C16.3641 95.9653 16.0818 95.7307 15.7444 95.584C15.4071 95.43 15.0258 95.353 14.6004 95.353C13.9771 95.353 13.4344 95.4923 12.9724 95.771C12.5178 96.0497 12.0961 96.4457 11.7074 96.959V102.25ZM11.5974 95.496C11.8321 95.2173 12.0814 94.9643 12.3454 94.737C12.6168 94.5023 12.9064 94.3043 13.2144 94.143C13.5224 93.9743 13.8488 93.846 14.1934 93.758C14.5454 93.6627 14.9194 93.615 15.3154 93.615C15.9534 93.615 16.5291 93.7397 17.0424 93.989C17.5631 94.2383 18.0068 94.605 18.3734 95.089C18.7401 95.573 19.0224 96.1707 19.2204 96.882C19.4258 97.5933 19.5284 98.411 19.5284 99.335C19.5284 100.164 19.4148 100.934 19.1874 101.645C18.9674 102.349 18.6484 102.961 18.2304 103.482C17.8198 104.003 17.3138 104.413 16.7124 104.714C16.1184 105.007 15.4474 105.154 14.6994 105.154C14.0321 105.154 13.4601 105.044 12.9834 104.824C12.5068 104.604 12.0814 104.296 11.7074 103.9V108.751H9.56242V93.824H10.8494C11.1501 93.824 11.3371 93.967 11.4104 94.253L11.5974 95.496ZM29.1424 96.53C28.7904 96.068 28.4091 95.7453 27.9984 95.562C27.5951 95.3787 27.1404 95.287 26.6344 95.287C25.6518 95.287 24.8891 95.6427 24.3464 96.354C23.8111 97.058 23.5434 98.0883 23.5434 99.445C23.5434 100.156 23.6021 100.765 23.7194 101.271C23.8441 101.77 24.0201 102.18 24.2474 102.503C24.4821 102.818 24.7681 103.053 25.1054 103.207C25.4428 103.354 25.8241 103.427 26.2494 103.427C26.8728 103.427 27.4118 103.288 27.8664 103.009C28.3211 102.73 28.7464 102.338 29.1424 101.832V96.53ZM31.2984 88.764V105H30.0004C29.6998 105 29.5128 104.857 29.4394 104.571L29.2524 103.284C28.7758 103.849 28.2331 104.303 27.6244 104.648C27.0231 104.985 26.3264 105.154 25.5344 105.154C24.8964 105.154 24.3171 105.029 23.7964 104.78C23.2831 104.531 22.8431 104.168 22.4764 103.691C22.1098 103.207 21.8274 102.609 21.6294 101.898C21.4314 101.187 21.3324 100.369 21.3324 99.445C21.3324 98.6163 21.4424 97.8463 21.6624 97.135C21.8824 96.4237 22.2014 95.8077 22.6194 95.287C23.0374 94.7663 23.5434 94.3593 24.1374 94.066C24.7314 93.7653 25.4024 93.615 26.1504 93.615C26.8251 93.615 27.3971 93.725 27.8664 93.945C28.3431 94.165 28.7684 94.4767 29.1424 94.88V88.764H31.2984ZM40.2969 100.039C39.4243 100.068 38.6836 100.138 38.0749 100.248C37.4663 100.351 36.9713 100.49 36.5899 100.666C36.2086 100.842 35.9336 101.051 35.7649 101.293C35.5963 101.528 35.5119 101.792 35.5119 102.085C35.5119 102.364 35.5559 102.606 35.6439 102.811C35.7393 103.009 35.8639 103.174 36.0179 103.306C36.1793 103.431 36.3663 103.522 36.5789 103.581C36.7916 103.64 37.0226 103.669 37.2719 103.669C37.6019 103.669 37.9026 103.636 38.1739 103.57C38.4526 103.504 38.7129 103.412 38.9549 103.295C39.1969 103.17 39.4279 103.02 39.6479 102.844C39.8679 102.668 40.0843 102.466 40.2969 102.239V100.039ZM34.0049 95.386C34.6283 94.792 35.3029 94.3483 36.0289 94.055C36.7623 93.7617 37.5653 93.615 38.4379 93.615C39.0759 93.615 39.6406 93.7213 40.1319 93.934C40.6233 94.1393 41.0376 94.429 41.3749 94.803C41.7123 95.177 41.9653 95.6243 42.1339 96.145C42.3099 96.6657 42.3979 97.2413 42.3979 97.872V105H41.4409C41.2283 105 41.0669 104.967 40.9569 104.901C40.8469 104.828 40.7589 104.696 40.6929 104.505L40.4619 103.526C40.1759 103.79 39.8936 104.025 39.6149 104.23C39.3363 104.428 39.0429 104.6 38.7349 104.747C38.4343 104.886 38.1116 104.993 37.7669 105.066C37.4223 105.139 37.0409 105.176 36.6229 105.176C36.1829 105.176 35.7686 105.117 35.3799 105C34.9986 104.875 34.6649 104.688 34.3789 104.439C34.0929 104.19 33.8656 103.878 33.6969 103.504C33.5356 103.13 33.4549 102.694 33.4549 102.195C33.4549 101.755 33.5723 101.333 33.8069 100.93C34.0489 100.519 34.4376 100.153 34.9729 99.83C35.5156 99.5073 36.2196 99.2433 37.0849 99.038C37.9576 98.8327 39.0283 98.7153 40.2969 98.686V97.872C40.2969 97.0287 40.1173 96.398 39.7579 95.98C39.3986 95.562 38.8706 95.353 38.1739 95.353C37.7046 95.353 37.3086 95.4117 36.9859 95.529C36.6706 95.6463 36.3956 95.7783 36.1609 95.925C35.9336 96.0643 35.7319 96.1927 35.5559 96.31C35.3873 96.4273 35.2113 96.486 35.0279 96.486C34.8813 96.486 34.7529 96.4457 34.6429 96.365C34.5403 96.2843 34.4559 96.189 34.3899 96.079L34.0049 95.386ZM48.6171 105.176C47.7151 105.176 47.0184 104.923 46.5271 104.417C46.0431 103.911 45.8011 103.189 45.8011 102.25V95.562H44.5031C44.3784 95.562 44.2721 95.5253 44.1841 95.452C44.1034 95.3713 44.0631 95.254 44.0631 95.1V94.231L45.8781 93.978L46.3621 90.645C46.3914 90.5203 46.4464 90.425 46.5271 90.359C46.6151 90.2857 46.7251 90.249 46.8571 90.249H47.9461V94H51.1141V95.562H47.9461V102.107C47.9461 102.547 48.0524 102.877 48.2651 103.097C48.4851 103.31 48.7637 103.416 49.1011 103.416C49.2991 103.416 49.4677 103.39 49.6071 103.339C49.7537 103.288 49.8784 103.233 49.9811 103.174C50.0837 103.108 50.1717 103.049 50.2451 102.998C50.3184 102.947 50.3844 102.921 50.4431 102.921C50.5164 102.921 50.5714 102.939 50.6081 102.976C50.6521 103.005 50.6961 103.057 50.7401 103.13L51.3781 104.164C51.0261 104.487 50.6081 104.736 50.1241 104.912C49.6401 105.088 49.1377 105.176 48.6171 105.176ZM60.4283 98.169C60.4283 97.7437 60.366 97.3513 60.2413 96.992C60.124 96.6327 59.948 96.321 59.7133 96.057C59.4786 95.793 59.1926 95.5877 58.8553 95.441C58.518 95.2943 58.1293 95.221 57.6893 95.221C56.7873 95.221 56.076 95.4813 55.5553 96.002C55.042 96.5227 54.7156 97.245 54.5763 98.169H60.4283ZM62.1993 103.405C61.9353 103.713 61.631 103.981 61.2863 104.208C60.9416 104.428 60.575 104.608 60.1863 104.747C59.7976 104.886 59.3943 104.989 58.9763 105.055C58.5656 105.121 58.1586 105.154 57.7553 105.154C56.9853 105.154 56.2703 105.026 55.6103 104.769C54.9576 104.505 54.3893 104.124 53.9053 103.625C53.4286 103.119 53.0546 102.496 52.7833 101.755C52.5193 101.007 52.3873 100.149 52.3873 99.181C52.3873 98.4037 52.5083 97.6813 52.7503 97.014C52.9923 96.3393 53.337 95.7527 53.7843 95.254C54.239 94.7553 54.7926 94.363 55.4453 94.077C56.098 93.791 56.8313 93.648 57.6453 93.648C58.3273 93.648 58.9543 93.7617 59.5263 93.989C60.1056 94.209 60.6043 94.5317 61.0223 94.957C61.4403 95.3823 61.7666 95.9067 62.0013 96.53C62.2433 97.1533 62.3643 97.8647 62.3643 98.664C62.3643 98.994 62.3276 99.2177 62.2543 99.335C62.181 99.445 62.0453 99.5 61.8473 99.5H54.5213C54.5433 100.167 54.6386 100.75 54.8073 101.249C54.976 101.74 55.207 102.151 55.5003 102.481C55.801 102.811 56.1566 103.057 56.5673 103.218C56.978 103.379 57.4363 103.46 57.9423 103.46C58.419 103.46 58.8296 103.405 59.1743 103.295C59.5263 103.185 59.827 103.068 60.0763 102.943C60.333 102.811 60.5456 102.69 60.7143 102.58C60.8903 102.47 61.0443 102.415 61.1763 102.415C61.3523 102.415 61.488 102.481 61.5833 102.613L62.1993 103.405ZM71.2588 95.749C71.2002 95.8443 71.1378 95.914 71.0718 95.958C71.0058 95.9947 70.9215 96.013 70.8188 96.013C70.7015 96.013 70.5695 95.9727 70.4228 95.892C70.2835 95.8113 70.1112 95.7233 69.9058 95.628C69.7078 95.5327 69.4732 95.4447 69.2018 95.364C68.9305 95.2833 68.6078 95.243 68.2338 95.243C67.9258 95.243 67.6435 95.2833 67.3868 95.364C67.1375 95.4373 66.9248 95.5437 66.7488 95.683C66.5728 95.815 66.4372 95.9763 66.3418 96.167C66.2465 96.3503 66.1988 96.5483 66.1988 96.761C66.1988 97.0397 66.2795 97.2707 66.4408 97.454C66.6095 97.6373 66.8258 97.795 67.0898 97.927C67.3612 98.059 67.6655 98.18 68.0028 98.29C68.3475 98.3927 68.6958 98.5027 69.0478 98.62C69.4072 98.7373 69.7555 98.873 70.0928 99.027C70.4375 99.1737 70.7418 99.3607 71.0058 99.588C71.2772 99.808 71.4935 100.076 71.6548 100.391C71.8235 100.706 71.9078 101.091 71.9078 101.546C71.9078 102.067 71.8125 102.551 71.6218 102.998C71.4385 103.438 71.1635 103.819 70.7968 104.142C70.4375 104.465 69.9902 104.718 69.4548 104.901C68.9195 105.084 68.3072 105.176 67.6178 105.176C66.8478 105.176 66.1365 105.048 65.4838 104.791C64.8312 104.534 64.2848 104.208 63.8448 103.812L64.3508 102.987C64.4095 102.884 64.4828 102.807 64.5708 102.756C64.6588 102.697 64.7762 102.668 64.9228 102.668C65.0622 102.668 65.2052 102.719 65.3518 102.822C65.4985 102.925 65.6745 103.038 65.8798 103.163C66.0852 103.28 66.3345 103.39 66.6278 103.493C66.9212 103.588 67.2878 103.636 67.7278 103.636C68.0945 103.636 68.4135 103.592 68.6848 103.504C68.9562 103.409 69.1798 103.284 69.3558 103.13C69.5392 102.969 69.6748 102.785 69.7628 102.58C69.8508 102.375 69.8948 102.158 69.8948 101.931C69.8948 101.638 69.8105 101.396 69.6418 101.205C69.4805 101.007 69.2642 100.838 68.9928 100.699C68.7288 100.56 68.4245 100.439 68.0798 100.336C67.7352 100.233 67.3832 100.123 67.0238 100.006C66.6645 99.8887 66.3125 99.753 65.9678 99.599C65.6232 99.445 65.3152 99.2507 65.0438 99.016C64.7798 98.7813 64.5635 98.4953 64.3948 98.158C64.2335 97.8207 64.1528 97.41 64.1528 96.926C64.1528 96.4933 64.2408 96.079 64.4168 95.683C64.6002 95.287 64.8605 94.9387 65.1978 94.638C65.5425 94.3373 65.9642 94.099 66.4628 93.923C66.9688 93.7397 67.5445 93.648 68.1898 93.648C68.9305 93.648 69.5978 93.7653 70.1918 94C70.7932 94.2347 71.3065 94.5573 71.7318 94.968L71.2588 95.749ZM73.3131 90.612C73.5478 90.3993 73.8044 90.1977 74.0831 90.007C74.3618 89.8163 74.6661 89.6477 74.9961 89.501C75.3261 89.3543 75.6818 89.2407 76.0631 89.16C76.4518 89.072 76.8698 89.028 77.3171 89.028C77.9111 89.028 78.4574 89.1123 78.9561 89.281C79.4621 89.4497 79.8948 89.6917 80.2541 90.007C80.6208 90.3223 80.9068 90.7037 81.1121 91.151C81.3174 91.591 81.4201 92.086 81.4201 92.636C81.4201 93.1933 81.3358 93.6773 81.1671 94.088C81.0058 94.4913 80.8004 94.8433 80.5511 95.144C80.3018 95.4447 80.0268 95.7087 79.7261 95.936C79.4328 96.156 79.1541 96.365 78.8901 96.563C78.6334 96.761 78.4098 96.959 78.2191 97.157C78.0358 97.3477 77.9258 97.564 77.8891 97.806L77.6801 99.467H76.2171L76.0631 97.652C76.0264 97.3147 76.0851 97.0213 76.2391 96.772C76.3931 96.5227 76.5911 96.2917 76.8331 96.079C77.0824 95.859 77.3574 95.6463 77.6581 95.441C77.9588 95.2357 78.2374 95.0083 78.4941 94.759C78.7508 94.5023 78.9671 94.2163 79.1431 93.901C79.3191 93.5783 79.4071 93.197 79.4071 92.757C79.4071 92.4563 79.3484 92.185 79.2311 91.943C79.1138 91.701 78.9524 91.4957 78.7471 91.327C78.5418 91.151 78.2998 91.019 78.0211 90.931C77.7424 90.8357 77.4454 90.788 77.1301 90.788C76.6901 90.788 76.3161 90.843 76.0081 90.953C75.7001 91.0557 75.4361 91.1693 75.2161 91.294C75.0034 91.4187 74.8274 91.536 74.6881 91.646C74.5488 91.7487 74.4314 91.8 74.3361 91.8C74.1234 91.8 73.9694 91.7083 73.8741 91.525L73.3131 90.612ZM75.4471 103.713C75.4471 103.515 75.4838 103.328 75.5571 103.152C75.6304 102.976 75.7294 102.822 75.8541 102.69C75.9861 102.558 76.1401 102.455 76.3161 102.382C76.4921 102.301 76.6828 102.261 76.8881 102.261C77.0861 102.261 77.2731 102.301 77.4491 102.382C77.6251 102.455 77.7791 102.558 77.9111 102.69C78.0431 102.822 78.1458 102.976 78.2191 103.152C78.2998 103.328 78.3401 103.515 78.3401 103.713C78.3401 103.918 78.2998 104.109 78.2191 104.285C78.1458 104.461 78.0431 104.615 77.9111 104.747C77.7791 104.879 77.6251 104.982 77.4491 105.055C77.2731 105.128 77.0861 105.165 76.8881 105.165C76.6828 105.165 76.4921 105.128 76.3161 105.055C76.1401 104.982 75.9861 104.879 75.8541 104.747C75.7294 104.615 75.6304 104.461 75.5571 104.285C75.4838 104.109 75.4471 103.918 75.4471 103.713Z" fill="white" fill-opacity="0.85"/>
	</g>
	<defs>
	<linearGradient id="paint0_linear_280_4528" x1="407.5" y1="0" x2="407.5" y2="407" gradientUnits="userSpaceOnUse">
	<stop stop-color="#FA6AB8"/>
	<stop offset="1" stop-color="#E6017B"/>
	</linearGradient>
	<clipPath id="clip0_280_4528">
	<rect width="815" height="407" fill="white"/>
	</clipPath>
	</defs>
</svg>
	