<svg width="520" height="221" viewBox="0 0 520 221" fill="none" xmlns="http://www.w3.org/2000/svg">
	<path d="M0.621582 111.193C2.45079 111.341 3.48999 110.318 3.53241 108.669C3.58013 106.914 2.60455 105.753 0.621582 105.891L0.621582 111.193Z" fill="#F1EBFF"/>
	<path d="M0.621582 58.1727L3.30442 55.5535C2.41368 54.6575 1.51763 53.7667 0.621582 52.8707C0.621582 54.6362 0.621582 56.4071 0.621582 58.1727Z" fill="#F1EBFF"/>
	<path d="M0.621582 216.704L2.82193 214.514C2.09025 213.83 1.35327 213.146 0.621582 212.462C0.621582 213.878 0.621582 215.288 0.621582 216.704Z" fill="#F1EBFF"/>
	<path d="M0.621582 4.62201L2.81133 2.58072L0.621582 0.380371L0.621582 4.62201Z" fill="#F1EBFF"/>
	<path d="M504.147 119.173C495.393 119.173 488.352 126.177 488.309 134.946C488.262 143.817 495.398 150.959 504.237 150.9C512.927 150.842 520.053 143.642 520 134.984C519.941 126.235 512.863 119.173 504.152 119.168L504.147 119.173Z" fill="#F1EBFF"/>
	<path d="M488.31 82.0158C488.294 90.7907 495.282 97.8637 504.019 97.9114C512.853 97.9591 520.042 90.7748 519.979 81.9575C519.915 73.2303 512.831 66.1945 504.088 66.1786C495.388 66.1627 488.325 73.2515 488.304 82.0158L488.31 82.0158Z" fill="#F1EBFF"/>
	<path d="M492.742 108.431C492.71 100.08 485.77 93.1978 477.52 93.3462C469.1 93.4947 462.404 100.308 462.473 108.659C462.536 117.015 469.376 123.764 477.748 123.738C486.077 123.711 492.779 116.871 492.747 108.431L492.742 108.431Z" fill="#F1EBFF"/>
	<path d="M451.073 120.615C443.035 120.647 436.62 127.099 436.662 135.105C436.705 143.111 443.2 149.511 451.227 149.458C459.291 149.405 465.649 142.995 465.612 134.952C465.574 126.914 459.154 120.583 451.073 120.615Z" fill="#F1EBFF"/>
	<path d="M451.174 96.4799C459.212 96.4958 465.633 90.0698 465.612 82.0319C465.59 73.9833 459.212 67.6421 451.126 67.6315C443.083 67.6209 436.673 74.0364 436.678 82.0796C436.684 90.1069 443.088 96.464 451.174 96.4799Z" fill="#F1EBFF"/>
	<path d="M477.653 69.3971C485.394 69.3971 491.581 63.1672 491.528 55.4156C491.48 47.8443 485.224 41.678 477.621 41.6939C469.88 41.7098 463.703 47.961 463.761 55.7126C463.825 63.3369 469.975 69.3971 477.647 69.4024L477.653 69.3971Z" fill="#F1EBFF"/>
	<path d="M477.387 147.693C469.673 147.788 463.575 154.145 463.761 161.907C463.941 169.484 470.224 175.475 477.88 175.385C485.441 175.295 491.591 168.996 491.528 161.414C491.464 153.684 485.192 147.597 477.387 147.693Z" fill="#F1EBFF"/>
	<path d="M410.921 108.51C410.873 116.15 416.986 122.311 424.632 122.322C432.251 122.332 438.401 116.23 438.481 108.574C438.56 101.045 432.309 94.783 424.701 94.7724C417.029 94.7618 410.968 100.806 410.921 108.515L410.921 108.51Z" fill="#F1EBFF"/>
	<path d="M411.234 135.004C411.207 127.714 405.306 121.834 398.074 121.898C390.852 121.961 384.994 127.947 385.063 135.19C385.132 142.289 391.006 148.122 398.122 148.159C405.338 148.196 411.249 142.258 411.228 135.004L411.234 135.004Z" fill="#F1EBFF"/>
	<path d="M385.068 82.0369C385.068 89.2954 390.985 95.2125 398.212 95.1807C405.46 95.1489 411.276 89.2318 411.218 81.9361C411.165 74.7519 405.412 68.9832 398.243 68.9196C391.038 68.8613 385.068 74.8049 385.068 82.0369Z" fill="#F1EBFF"/>
	<path d="M412.055 55.5426C412.034 62.4989 417.697 68.1986 424.637 68.1986C431.588 68.1986 437.298 62.5095 437.282 55.5903C437.266 48.6181 431.588 42.9078 424.679 42.9237C417.707 42.9396 412.076 48.5704 412.055 55.5426Z" fill="#F1EBFF"/>
	<path d="M371.638 120.901C378.578 120.938 384.039 115.488 384.039 108.516C384.039 101.66 378.684 96.2467 371.85 96.1778C364.883 96.1089 359.347 101.501 359.268 108.436C359.188 115.308 364.697 120.859 371.632 120.896L371.638 120.901Z" fill="#F1EBFF"/>
	<path d="M463.119 28.7782C462.981 22.1824 457.542 16.9334 450.978 17.0501C444.281 17.172 438.963 22.7074 439.133 29.3773C439.297 35.9254 444.833 41.2592 451.312 41.132C458.035 40.9941 463.262 35.5277 463.119 28.7782Z" fill="#F1EBFF"/>
	<path d="M356.898 135.137C356.935 128.589 351.761 123.351 345.234 123.329C338.664 123.308 333.521 128.462 333.521 135.052C333.521 141.622 338.686 146.749 345.281 146.733C351.654 146.717 356.866 141.516 356.898 135.132L356.898 135.137Z" fill="#F1EBFF"/>
	<path d="M345.234 93.7441C351.776 93.7335 356.951 88.4739 356.893 81.8781C356.835 75.4786 351.586 70.325 345.154 70.3515C338.574 70.378 333.453 75.5952 333.516 82.2228C333.58 88.6754 338.739 93.7547 345.234 93.7441Z" fill="#F1EBFF"/>
	<path d="M382.99 161.525C383 155.258 378.075 150.253 371.813 150.168C365.509 150.084 360.318 155.205 360.308 161.515C360.297 167.835 365.424 172.872 371.808 172.824C378.101 172.776 382.984 167.84 382.99 161.525Z" fill="#F1EBFF"/>
	<path d="M382.99 55.4263C382.953 49.1752 377.953 44.239 371.675 44.2549C365.302 44.2708 360.212 49.3925 360.307 55.702C360.408 61.9213 365.445 66.8946 371.68 66.9211C377.99 66.9529 383.027 61.8312 382.984 55.4263L382.99 55.4263Z" fill="#F1EBFF"/>
	<path d="M318.824 119.592C324.767 119.56 329.794 114.486 329.762 108.553C329.725 102.418 324.672 97.4183 318.58 97.4873C312.573 97.5562 307.658 102.524 307.658 108.531C307.658 114.65 312.684 119.629 318.824 119.592Z" fill="#F1EBFF"/>
	<path d="M409.001 29.1387C409.033 22.9936 404.272 18.2377 398.09 18.2536C392.157 18.2695 387.258 23.1368 387.252 29.022C387.247 35.0187 392.242 40.0026 398.244 39.9761C404.161 39.9496 408.975 35.0982 409.001 29.1387Z" fill="#F1EBFF"/>
	<path d="M292.521 145.322C298.242 145.158 302.658 140.54 302.537 134.851C302.415 129.04 297.643 124.49 291.895 124.702C286.18 124.915 281.768 129.538 281.874 135.206C281.986 141.012 286.699 145.486 292.516 145.322L292.521 145.322Z" fill="#F1EBFF"/>
	<path d="M302.505 81.735C302.34 76.0353 297.717 71.6292 292.022 71.7406C286.206 71.8572 281.737 76.5602 281.922 82.3818C282.102 88.0868 286.747 92.5246 292.404 92.3868C298.247 92.2489 302.674 87.5778 302.51 81.735L302.505 81.735Z" fill="#F1EBFF"/>
	<path d="M318.813 65.6377C324.386 65.5794 328.866 61.009 328.797 55.4524C328.723 49.8747 324.153 45.4051 318.591 45.4687C312.997 45.5376 308.607 50.0391 308.633 55.6804C308.66 61.2582 313.198 65.696 318.813 65.6377Z" fill="#F1EBFF"/>
	<path d="M318.787 171.61C324.343 171.578 328.829 167.024 328.802 161.441C328.771 155.868 324.248 151.42 318.633 151.446C313.024 151.473 308.612 155.953 308.639 161.595C308.671 167.172 313.199 171.642 318.787 171.61Z" fill="#F1EBFF"/>
	<path d="M265.65 118.144C271.042 118.17 275.262 114.045 275.326 108.68C275.395 103.187 271.153 98.908 265.66 98.9292C260.3 98.9504 256.101 103.171 256.111 108.531C256.122 113.923 260.279 118.117 265.644 118.144L265.65 118.144Z" fill="#F1EBFF"/>
	<path d="M248.195 135.142C248.243 130.217 244.298 126.14 239.41 126.065C234.378 125.991 230.248 130.042 230.248 135.058C230.248 139.941 234.304 144.002 239.187 144.018C244.108 144.034 248.142 140.057 248.19 135.148L248.195 135.142Z" fill="#F1EBFF"/>
	<path d="M265.613 170.375C270.358 170.449 274.478 166.499 274.6 161.764C274.721 156.913 270.692 152.724 265.835 152.639C261.005 152.56 256.912 156.621 256.854 161.542C256.801 166.234 260.83 170.295 265.613 170.369L265.613 170.375Z" fill="#F1EBFF"/>
	<path d="M292.298 196.572C297.059 196.535 300.792 192.717 300.765 187.924C300.739 183.158 296.937 179.441 292.123 179.478C287.325 179.515 283.618 183.29 283.656 188.105C283.693 192.866 287.515 196.614 292.298 196.577L292.298 196.572Z" fill="#F1EBFF"/>
	<path d="M221.06 108.627C221.113 104.141 217.433 100.372 212.9 100.265C208.398 100.165 204.592 103.802 204.464 108.33C204.337 112.927 208.102 116.797 212.741 116.84C217.195 116.877 221.007 113.112 221.06 108.627Z" fill="#F1EBFF"/>
	<path d="M178.707 134.973C178.68 139.225 181.947 142.544 186.199 142.571C190.451 142.597 193.775 139.326 193.797 135.09C193.818 130.806 190.584 127.529 186.315 127.502C182.026 127.476 178.739 130.705 178.707 134.973Z" fill="#F1EBFF"/>
	<path d="M212.592 153.996C208.377 154.055 205.116 157.443 205.206 161.668C205.297 165.91 208.637 169.123 212.889 169.06C217.083 168.996 220.37 165.587 220.291 161.377C220.217 157.156 216.855 153.938 212.592 154.002L212.592 153.996Z" fill="#F1EBFF"/>
	<path d="M239.336 195.453C243.418 195.384 246.679 192.049 246.658 187.967C246.637 183.741 243.254 180.486 238.997 180.597C234.925 180.703 231.717 184.08 231.796 188.179C231.876 192.24 235.28 195.517 239.336 195.448L239.336 195.453Z" fill="#F1EBFF"/>
	<path d="M159.625 115.435C163.469 115.493 166.56 112.513 166.623 108.68C166.692 104.825 163.729 101.729 159.895 101.654C156.099 101.58 152.923 104.618 152.849 108.404C152.775 112.179 155.85 115.376 159.619 115.429L159.625 115.435Z" fill="#F1EBFF"/>
	<path d="M166.051 161.605C166.088 158.037 163.278 155.195 159.72 155.211C156.332 155.227 153.485 158.047 153.432 161.435C153.374 164.903 156.359 167.904 159.81 167.856C163.225 167.803 166.019 165.009 166.051 161.605Z" fill="#F1EBFF"/>
	<path d="M192.556 187.962C192.551 184.563 189.756 181.758 186.342 181.71C182.837 181.668 179.9 184.574 179.926 188.057C179.953 191.387 182.869 194.324 186.172 194.345C189.666 194.372 192.572 191.466 192.561 187.962L192.556 187.962Z" fill="#F1EBFF"/>
	<path d="M139.498 81.9788C139.466 78.5961 136.598 75.786 133.215 75.8284C129.806 75.8708 127.054 78.6968 127.086 82.1272C127.118 85.5259 129.986 88.3413 133.359 88.2882C136.757 88.2299 139.525 85.3827 139.493 81.9841L139.498 81.9788Z" fill="#F1EBFF"/>
	<path d="M127.091 135.397C127.303 138.806 130.32 141.494 133.645 141.251C137.07 140.996 139.694 138.027 139.477 134.655C139.254 131.262 136.237 128.573 132.902 128.807C129.493 129.04 126.879 132.004 127.091 135.402L127.091 135.397Z" fill="#F1EBFF"/>
	<path d="M212.815 220.628C216.261 220.585 219.05 217.727 218.934 214.361C218.812 210.962 215.874 208.168 212.545 208.3C209.273 208.428 206.575 211.227 206.569 214.498C206.569 217.897 209.395 220.67 212.815 220.633L212.815 220.628Z" fill="#F1EBFF"/>
	<path d="M106.737 113.987C109.87 114.003 112.33 111.601 112.33 108.531C112.33 105.467 109.823 103.033 106.721 103.075C103.667 103.118 101.371 105.392 101.323 108.415C101.27 111.585 103.587 113.971 106.742 113.987L106.737 113.987Z" fill="#F1EBFF"/>
	<path d="M138.433 188.094C138.486 185.273 136.11 182.829 133.306 182.829C130.58 182.829 128.258 185.056 128.141 187.792C128.019 190.623 130.315 193.104 133.141 193.189C135.967 193.274 138.38 190.952 138.433 188.094Z" fill="#F1EBFF"/>
	<path d="M101.795 55.4631C101.742 58.2997 103.884 60.569 106.684 60.6379C109.399 60.7069 111.795 58.4111 111.864 55.6752C111.938 52.9553 109.658 50.58 106.901 50.5057C104.128 50.4315 101.848 52.6424 101.795 55.4578L101.795 55.4631Z" fill="#F1EBFF"/>
	<path d="M111.869 161.594C111.912 158.874 109.605 156.489 106.885 156.436C104.134 156.383 101.833 158.636 101.795 161.43C101.758 164.283 103.89 166.494 106.716 166.525C109.515 166.562 111.832 164.346 111.869 161.594Z" fill="#F1EBFF"/>
	<path d="M80.2002 86.8462C82.9414 86.9045 85.0622 84.8314 85.0728 82.0743C85.0834 79.4445 83.1004 77.3502 80.5077 77.2495C77.8037 77.1434 75.5397 79.2324 75.4602 81.8994C75.3807 84.5875 77.4856 86.7879 80.2002 86.8462Z" fill="#F1EBFF"/>
	<path d="M80.3433 139.84C83.0527 139.84 85.1258 137.682 85.0674 134.92C85.0144 132.269 83.0208 130.286 80.3698 130.243C77.6499 130.201 75.4813 132.306 75.4601 135.015C75.4389 137.677 77.6287 139.84 80.3433 139.84Z" fill="#F1EBFF"/>
	<path d="M49.6919 108.601C49.7184 110.87 51.7173 112.8 53.9388 112.71C56.1074 112.625 57.8942 110.79 57.9313 108.606C57.9684 106.305 56.118 104.396 53.8222 104.37C51.5847 104.348 49.6654 106.31 49.6972 108.595L49.6919 108.601Z" fill="#F1EBFF"/>
	<path d="M80.3113 33.1152C82.4745 33.094 84.3621 31.1693 84.3356 29.0061C84.309 26.8058 82.4374 25.0614 80.1787 25.1197C77.9837 25.178 76.3825 26.8111 76.3613 29.0167C76.3401 31.2807 78.1269 33.1364 80.3113 33.1152Z" fill="#F1EBFF"/>
	<path d="M53.467 51.8101C51.4734 51.9797 49.904 53.7771 50.0153 55.7601C50.132 57.8915 51.9559 59.4556 54.1297 59.286C56.2081 59.1216 57.6609 57.4568 57.5443 55.3677C57.4223 53.1992 55.6196 51.6245 53.4723 51.8101L53.467 51.8101Z" fill="#F1EBFF"/>
	<path d="M53.7324 165.295C55.9062 165.332 57.5817 163.651 57.5499 161.467C57.5181 159.383 55.9752 157.835 53.8702 157.782C51.7176 157.729 49.9732 159.442 50.0157 161.578C50.0528 163.572 51.7441 165.258 53.7324 165.29L53.7324 165.295Z" fill="#F1EBFF"/>
	<path d="M23.924 135.493C24.083 137.2 25.2336 138.319 27.2855 138.409C29.2472 138.494 30.9068 136.85 30.7583 134.931C30.5992 132.889 29.3957 131.728 27.3544 131.617C25.3873 131.511 23.8709 133.123 23.924 135.493Z" fill="#F1EBFF"/>
	<path d="M30.79 81.9308C30.631 80.1228 29.5971 78.8609 27.5505 78.6488C25.5993 78.4473 23.9133 79.9955 23.9239 81.9626C23.9345 84.0463 25.0903 85.234 27.1104 85.462C28.9873 85.674 30.7317 84.0304 30.79 81.9308Z" fill="#F1EBFF"/>
	<path d="M26.7023 25.8302C25.9601 26.9065 24.7777 27.9139 24.5868 29.0857C24.3111 30.777 25.5677 31.8639 27.3227 31.8745C29.0883 31.8851 30.3236 30.7346 30.085 29.091C29.9154 27.9245 28.7012 26.9171 27.9483 25.8355L26.7023 25.8355L26.7023 25.8302Z" fill="#F1EBFF"/>
</svg>
	