<svg width="206" height="74" viewBox="0 0 206 74" fill="none" xmlns="http://www.w3.org/2000/svg">
	<g clip-path="url(#clip0_453_4719)">
	<path d="M205.948 72.4818C205.957 48.6532 205.948 24.8246 205.982 0.987346C205.982 0.286504 205.792 0.217285 205.169 0.217285C137.024 0.23459 68.8886 0.23459 0.744167 0.23459C0.52778 0.23459 0.311394 0.23459 0.0863516 0.23459C-0.0781022 0.217285 0.0430742 0.347071 -0.000203077 0.398985C68.2914 0.398985 136.592 0.398985 204.883 0.38168C205.619 0.38168 205.809 0.554727 205.809 1.29883C205.792 25.2745 205.792 49.2416 205.792 73.2173C206.138 73.0356 205.948 72.7241 205.948 72.4818Z" fill="#FEFEFE"/>
	<path d="M17.7609 43.5915C18.9467 46.9313 20.6864 49.9336 23.1099 52.5293C25.9316 55.5663 29.3073 57.7727 33.2195 59.1571C37.4261 60.6453 41.7278 60.9394 46.0902 60.1261C51.1623 59.183 55.542 56.8469 59.1686 53.1696C59.7485 52.5813 60.0861 52.6332 60.6054 53.1437C61.3584 53.8878 62.1374 54.6059 62.9337 55.2981C63.3059 55.6269 63.3232 55.8259 62.9597 56.1979C59.4975 59.7368 55.4468 62.3325 50.7295 63.8553C44.9823 65.7155 39.1572 65.854 33.3667 64.2014C26.1653 62.1421 20.5133 57.9198 16.4279 51.6382C15.1815 49.7173 14.2035 47.6754 13.3899 45.5382C13.3206 45.3652 13.312 45.1748 13.2773 44.9845C13.3379 44.7855 13.4764 44.647 13.6582 44.5865C14.818 44.2058 15.9519 43.7385 17.1463 43.4703C17.3627 43.4184 17.5791 43.4271 17.7695 43.5741L17.7609 43.5915Z" fill="#FE87C8"/>
	<path d="M32.7955 51.0501C31.3933 50.4617 30.2335 49.5186 29.1862 48.4717C24.6767 43.9811 22.8764 38.5993 24.0275 32.3177C25.0229 26.9013 28.035 22.8866 32.7869 20.1265C34.1544 19.3305 35.6085 18.7681 37.1579 18.4307C37.4089 18.5604 37.5474 18.7941 37.6426 19.0536C38.0234 20.1265 38.1186 21.26 38.4648 22.3415C38.5341 22.5578 38.4562 22.7655 38.309 22.9385C36.8722 23.4923 35.4441 24.046 34.1285 24.894C30.0344 27.533 27.6974 33.157 28.6669 37.9591C29.4632 41.9305 31.6616 44.8636 35.0546 46.9748C35.245 47.1998 35.1758 47.442 35.0546 47.6584C34.5006 48.6188 33.964 49.5965 33.4187 50.5655C33.2889 50.7992 33.1331 51.0328 32.8128 51.0501H32.7955Z" fill="#FE87C8"/>
	<path d="M27.3253 16.631C28.5198 15.5321 29.9479 14.814 31.3847 14.1218C35.3662 12.2183 39.5814 11.5694 43.9438 12.002C48.5139 12.4519 52.5993 14.1651 56.2259 16.9944C57.3684 17.8856 58.3725 18.9066 59.3592 19.9535C59.74 20.3602 59.766 20.6197 59.2813 20.9831C58.3898 21.6494 57.5502 22.3762 56.7106 23.103C56.3125 23.449 56.0788 23.4923 55.6806 23.051C52.9282 19.9535 49.5179 17.9288 45.4498 17.0809C41.8232 16.3282 38.2572 16.5704 34.769 17.8769C33.1072 18.4999 31.6184 19.443 30.1037 20.3515C29.6536 20.265 29.4632 19.8843 29.2035 19.5814C28.589 18.8893 28.1043 18.1019 27.559 17.3664C27.3946 17.1501 27.2301 16.9252 27.334 16.6223L27.3253 16.631Z" fill="#FE87C8"/>
	<path d="M27.3252 16.6309C28.2514 17.8681 29.1775 19.1141 30.1036 20.3514C28.5283 21.7271 26.9877 23.1374 25.8019 24.8939C23.9409 27.654 22.8244 30.665 22.5474 33.9875C22.331 36.5659 22.6253 39.0751 23.3783 41.5497C23.2658 41.8439 23.0754 42.0515 22.7638 42.1467C21.7771 42.4495 20.825 42.8302 19.8209 43.0811C19.241 43.2282 18.8775 43.0984 18.6871 42.5274C17.484 38.5992 17.3195 34.6018 18.2024 30.6044C19.4315 25.0583 22.3051 20.4985 26.7626 16.9423C26.9271 16.8126 27.1348 16.7347 27.3252 16.6309Z" fill="#E40179"/>
	<path d="M18.6871 42.5186C18.9814 42.9166 19.3103 42.9339 19.795 42.7868C21.0068 42.4234 22.2272 42.086 23.3697 41.5322C24.9364 45.9968 27.7234 49.5097 31.7742 51.9583C34.4487 53.5677 37.3916 54.4156 40.5075 54.554C41.2865 54.5886 41.477 54.8482 41.4423 55.5577C41.3904 56.6133 41.4164 57.6775 41.4337 58.7418C41.4337 59.2004 41.2606 59.3734 40.8018 59.3561C37.5041 59.2263 34.3535 58.5341 31.3587 57.1238C28.7188 55.8865 26.3905 54.2425 24.3651 52.1573C22.0801 49.8125 20.3317 47.1303 19.2238 44.0414C19.042 43.5309 18.8602 43.0291 18.6785 42.5186H18.6871Z" fill="#C30060"/>
	<path d="M14.593 22.921C15.675 20.4465 17.181 18.2315 18.9467 16.1981C22.4262 12.1834 26.7107 9.32817 31.7135 7.52848C32.0684 7.39869 32.4406 7.31217 32.8041 7.21699C34.3015 6.81898 34.3102 6.81898 34.691 8.28989C34.9074 9.12916 35.0632 9.98575 35.3142 10.8164C35.4527 11.2663 35.3748 11.4134 34.916 11.5518C33.2802 12.0364 31.6702 12.6074 30.1469 13.3948C27.2906 14.8657 24.8238 16.8211 22.6772 19.2005C21.1192 20.9223 19.9767 22.9124 18.8255 24.9024C18.713 24.989 18.5745 25.0495 18.4534 24.9976C17.2243 24.4612 15.9779 23.9593 14.8354 23.2498C14.7228 23.1806 14.6623 23.0508 14.6017 22.9297L14.593 22.921Z" fill="#FE4D9F"/>
	<path d="M14.5932 22.9209C16.004 23.5785 17.4149 24.2361 18.8257 24.8936C18.0034 26.9616 17.2331 29.0381 16.8609 31.2358C16.1771 35.2938 16.3935 39.2825 17.6659 43.202C17.7092 43.3318 17.7265 43.4616 17.7611 43.5914C16.2291 43.9375 14.775 44.5605 13.2689 45.0017C12.1004 41.8263 11.7023 38.5384 11.7282 35.1726C11.7715 30.8724 12.6976 26.7885 14.5845 22.9209H14.5932Z" fill="#E4017A"/>
	<path d="M151.73 31.8414C151.211 33.2604 150.692 34.6794 150.181 36.0984C149.515 37.9587 148.822 39.8103 148.216 41.6878C147.948 42.5185 147.351 42.1983 146.84 42.2675C146.321 42.3368 146.165 42.0512 146.009 41.6013C144.893 38.3913 143.741 35.1986 142.582 31.9539C142.339 32.1962 142.426 32.4125 142.434 32.6115C142.452 35.5793 142.46 38.5384 142.512 41.5061C142.521 42.1205 142.365 42.3108 141.742 42.2849C140.314 42.2243 140.582 42.3627 140.573 41.0995C140.565 37.5087 140.582 33.918 140.556 30.3273C140.556 29.7389 140.669 29.4794 141.318 29.5399C142.08 29.6005 142.971 29.3409 143.568 29.6611C144.174 29.9898 144.174 30.9762 144.416 31.6857C145.343 34.316 146.329 36.9204 147.23 39.6459C147.498 38.798 147.749 37.95 148.034 37.1107C148.839 34.7227 149.67 32.3433 150.484 29.9639C150.588 29.6697 150.761 29.5313 151.09 29.5486C151.8 29.5659 152.509 29.5745 153.219 29.5486C153.591 29.5399 153.669 29.6957 153.669 30.0331C153.669 33.9526 153.661 37.8635 153.669 41.783C153.669 42.1897 153.513 42.3195 153.141 42.2849C152.951 42.2675 152.76 42.2589 152.57 42.2849C151.929 42.3714 151.73 42.1205 151.748 41.4715C151.817 38.2702 151.644 35.0688 151.955 31.8761C151.886 31.8674 151.817 31.8588 151.739 31.8501L151.73 31.8414Z" fill="black"/>
	<path d="M32.7954 51.05C33.5657 49.7003 34.388 48.3851 35.0372 46.9748C36.9068 47.8833 38.8369 48.5495 40.9489 48.6187C43.7878 48.7139 46.3845 47.9698 48.7215 46.3691C49.3447 45.9451 49.7341 45.8153 50.2189 46.5421C50.7728 47.3728 51.422 48.1515 52.0971 48.8956C52.5731 49.4147 52.3827 49.7089 51.9153 50.029C49.9073 51.4134 47.7434 52.4257 45.3458 52.9708C41.1047 53.9399 37.0885 53.2737 33.2195 51.4048C33.0551 51.3269 32.8647 51.249 32.7954 51.05Z" fill="#E40179"/>
	<path d="M167.25 37.6732C166.886 36.6782 166.09 36.2282 165.155 35.787C166.046 35.3197 166.799 34.8352 167.025 33.8488C167.535 31.6425 166.228 29.7563 163.952 29.6265C162.048 29.514 160.135 29.5832 158.231 29.5486C157.746 29.54 157.651 29.739 157.651 30.1716C157.668 34.0046 157.668 37.8462 157.651 41.6792C157.651 42.1551 157.815 42.2849 158.265 42.2849C159.927 42.2676 161.589 42.2849 163.251 42.2676C163.96 42.2589 164.653 42.0859 165.319 41.8609C167.016 41.2812 167.847 39.369 167.241 37.6818L167.25 37.6732ZM161.511 31.2531C162.004 31.2531 162.489 31.2358 162.982 31.2618C164.272 31.3396 165.034 32.0405 165.016 33.1307C164.999 34.2036 164.194 34.9304 162.956 34.9823C162.524 34.9996 162.082 34.9823 161.649 34.9823C160.345 34.9823 159.693 34.3449 159.693 33.0701C159.693 31.7953 160.299 31.1868 161.511 31.2445V31.2531ZM163.952 40.4073C163.822 40.4506 163.692 40.5112 163.562 40.5112C162.965 40.5198 162.368 40.5112 161.476 40.5112C161.104 40.4592 160.247 40.8399 159.815 40.39C159.425 39.9834 159.711 39.1527 159.702 38.5038C159.685 36.6695 159.702 36.6609 161.502 36.6782C162.342 36.6782 163.181 36.583 164.004 36.8772C164.939 37.2146 165.293 37.6905 165.267 38.7028C165.25 39.62 164.852 40.1305 163.952 40.4073Z" fill="black"/>
	<path d="M61.5663 34.4026C60.8911 29.3063 55.5334 28.294 52.3742 30.1715C50.2536 31.4348 49.6823 33.52 49.6477 35.6485C49.6477 39.17 50.998 41.3071 53.6725 42.1897C56.2172 43.029 59.1168 42.1724 60.5796 40.0352C61.748 38.3307 61.8433 36.3926 61.5749 34.4026H61.5663ZM58.4157 39.4469C57.4117 40.788 55.9229 40.8486 54.4861 40.4938C53.1791 40.1737 52.3915 39.1787 52.0453 37.8895C51.8722 37.2319 51.7596 36.557 51.8289 36.0205C51.8116 34.4458 52.0193 33.096 53.1185 32.0578C54.9189 30.3532 57.9223 30.8724 58.935 33.1307C59.9044 35.2937 59.8958 37.4655 58.4243 39.4382L58.4157 39.4469Z" fill="black"/>
	<path d="M107.137 42.484C105.25 42.3889 103.485 42.0168 102.178 40.4507C101.823 40.0268 101.788 39.8018 102.212 39.4124C103.138 38.5386 103.112 38.5126 103.909 39.3951C104.982 40.5892 107.838 41.0737 109.223 40.295C109.794 39.9749 110.201 39.5336 110.167 38.8068C110.141 38.08 109.63 37.7772 109.076 37.5349C107.968 37.059 106.748 36.9984 105.605 36.6523C104.74 36.3928 103.857 36.1419 103.19 35.5275C101.788 34.247 101.918 31.7551 103.407 30.5438C105.726 28.6489 109.812 28.969 111.803 31.2014C112.209 31.6599 112.313 32.0579 111.716 32.4473C111.534 32.5684 111.378 32.7242 111.231 32.8799C110.894 33.252 110.721 33.226 110.426 32.7588C109.327 31.011 106.73 30.5092 105.12 31.6859C104.056 32.4559 104.151 33.7971 105.346 34.3595C106.289 34.8007 107.31 34.9824 108.332 35.1555C109.284 35.3112 110.184 35.6227 110.998 36.1246C112.114 36.8167 112.46 37.9069 112.313 39.1529C112.166 40.4594 111.387 41.3333 110.236 41.8611C109.258 42.311 108.219 42.5186 107.137 42.484Z" fill="black"/>
	<path d="M119.688 29.3237C121.696 29.2977 123.28 29.8861 124.526 31.3397C124.864 31.729 124.95 32.0146 124.466 32.3087C124.422 32.3347 124.379 32.378 124.336 32.4126C123.741 32.9548 123.21 32.9202 122.743 32.3087C121.687 30.9244 118.865 30.6388 117.558 31.781C116.606 32.6202 116.961 34.0565 118.251 34.4891C119.151 34.792 120.069 35.0342 121.021 35.164C121.921 35.2852 122.76 35.6226 123.531 36.0725C124.613 36.6955 125.089 37.7165 124.985 38.9624C124.872 40.3208 124.137 41.3418 122.908 41.8437C120.449 42.8646 118.026 42.7522 115.732 41.3072C115.576 41.2034 115.429 41.0822 115.291 40.9525C114.33 40.0353 114.434 39.2826 115.594 38.6596C115.871 38.5038 115.974 38.6682 116.104 38.8586C117.394 40.814 119.584 40.8573 121.427 40.4506C122.172 40.2862 122.76 39.8017 122.821 38.9451C122.882 38.1058 122.276 37.7078 121.609 37.5088C120.285 37.1108 118.935 36.8253 117.602 36.4446C115.741 35.9254 114.815 34.8179 114.832 33.2086C114.849 31.53 116.035 30.0764 117.732 29.6179C118.415 29.4275 119.108 29.2891 119.679 29.3237H119.688Z" fill="black"/>
	<path d="M87.3597 42.2765C86.572 42.2765 85.9489 42.2592 85.3257 42.2765C84.9535 42.2938 84.789 42.0689 84.6246 41.818C83.5167 40.1134 82.3915 38.4262 81.3182 36.7044C81.0066 36.2112 80.7988 36.168 80.4267 36.6179C80.0458 37.0765 79.6304 37.5091 79.2062 37.933C78.9379 38.2013 78.8254 38.5041 78.8341 38.8848C78.8514 39.7847 78.8167 40.6845 78.8514 41.5757C78.8687 42.0948 78.7302 42.2938 78.1762 42.2938C76.7741 42.2938 76.7741 42.3198 76.7741 40.9441C76.7741 37.5177 76.7741 34.0914 76.7741 30.6651C76.7741 29.4018 76.5923 29.5749 77.9166 29.5576C77.9945 29.5576 78.081 29.5662 78.1589 29.5576C78.7042 29.4797 78.86 29.722 78.8427 30.2497C78.8081 31.7466 78.8341 33.2435 78.8341 34.7403C78.8341 35.0086 78.8341 35.2681 78.8341 35.5363C78.8946 35.571 78.9639 35.6056 79.0245 35.6402C79.7256 34.8874 80.4353 34.1347 81.1364 33.3733C82.1664 32.2571 83.2051 31.1409 84.2264 30.0161C85.04 29.1249 86.0441 29.7739 86.9356 29.5229L87.0221 29.7306C86.373 30.4401 85.7238 31.1496 85.066 31.8504C84.3303 32.6465 83.6119 33.4598 82.8502 34.2298C82.452 34.6278 82.5126 34.922 82.8069 35.3546C84.313 37.6043 85.7844 39.8712 87.3683 42.2765H87.3597Z" fill="black"/>
	<path d="M128.083 35.9083C128.083 34.0048 128.101 32.1013 128.075 30.1977C128.075 29.7132 128.205 29.5402 128.715 29.5402C131.381 29.5661 134.056 29.5748 136.722 29.5402C137.466 29.5315 137.336 29.9728 137.31 30.3794C137.293 30.7775 137.552 31.3226 136.722 31.3052C134.817 31.262 132.904 31.3226 131 31.2706C130.299 31.2533 130.109 31.4783 130.161 32.1359C130.213 32.8108 130.213 33.4943 130.161 34.1692C130.117 34.7835 130.273 35.0258 130.948 34.9912C132.333 34.9306 133.727 35.0258 135.112 34.9565C135.882 34.9219 135.769 35.3632 135.761 35.8218C135.761 36.2544 135.925 36.7389 135.129 36.6957C133.692 36.6351 132.238 36.6957 130.801 36.6697C130.291 36.6611 130.143 36.8341 130.161 37.3186C130.195 38.1839 130.195 39.0578 130.161 39.9317C130.143 40.3989 130.308 40.5287 130.775 40.5287C132.792 40.5027 134.809 40.546 136.825 40.5027C137.483 40.4854 137.682 40.6844 137.639 41.3247C137.604 41.8698 137.691 42.3111 136.869 42.2938C134.177 42.2418 131.476 42.2591 128.776 42.2938C128.179 42.2938 128.057 42.0861 128.066 41.541C128.092 39.6634 128.075 37.7859 128.075 35.917L128.083 35.9083Z" fill="black"/>
	<path d="M100.092 41.1776C98.8368 37.9244 97.6077 34.6624 96.3786 31.3918C95.4871 29.0297 96.1017 29.644 93.6868 29.5489C93.3059 29.5316 93.0982 29.6787 92.9684 30.0421C91.5922 33.7453 90.1986 37.4398 88.8224 41.143C88.3983 42.2765 88.4156 42.2332 89.6274 42.2938C90.3631 42.3284 90.692 42.0861 90.8478 41.3593C90.9863 40.7018 91.3065 40.0874 91.5229 39.4558C91.6527 39.0665 91.8691 38.8934 92.2932 38.9021C93.7127 38.9194 95.1236 38.9194 96.5431 38.9021C96.9153 38.9021 97.149 39.0146 97.2701 39.3953C97.4779 40.0442 97.7548 40.6585 97.9453 41.3074C98.1617 42.0515 98.5165 42.5274 99.2522 42.2765C100.568 42.2765 100.525 42.2938 100.092 41.1776ZM95.816 37.2668C94.8899 37.2322 93.9638 37.2235 93.0463 37.2668C92.4058 37.3014 92.3798 37.0505 92.5616 36.5573C93.1675 34.8874 93.8339 33.2348 94.3446 31.3745C94.9159 32.3003 94.9764 33.2434 95.3486 34.0741C95.7208 34.8874 95.9459 35.7526 96.2661 36.5919C96.4479 37.0678 96.3959 37.2927 95.816 37.2668Z" fill="black"/>
	<path d="M47.2588 32.2741C46.9125 30.8378 45.5017 29.687 43.8398 29.6091C42.1261 29.5313 40.4123 29.5918 38.6898 29.5399C38.0753 29.5226 37.9801 29.7649 37.9801 30.3013C38.0061 32.1529 37.9888 33.9959 37.9888 35.8475C37.9888 37.5347 37.9714 39.2219 37.9888 40.9005C38.0061 42.4666 37.6772 42.2329 39.3563 42.2849C39.893 42.3022 40.0661 42.1378 40.0488 41.5927C40.0141 40.4506 40.0574 39.3084 40.0314 38.1663C40.0141 37.6385 40.1786 37.4222 40.7239 37.4568C41.4336 37.4915 42.1434 37.4828 42.8445 37.4568C43.8225 37.4222 44.8093 37.3271 45.6575 36.782C47.1462 35.8215 47.7088 34.1949 47.2414 32.2741H47.2588ZM43.3205 35.6312C42.429 35.7177 41.5288 35.6658 40.6287 35.7004C40.2132 35.7177 40.0314 35.5447 40.0488 35.1207C40.0661 34.5756 40.0488 34.0305 40.0488 33.4941C40.0488 31.9943 40.7989 31.2502 42.2992 31.2617C42.6281 31.2617 42.957 31.2617 43.2772 31.305C44.5496 31.4521 45.2247 32.2135 45.2334 33.4681C45.242 34.7833 44.6448 35.5014 43.3119 35.6312H43.3205Z" fill="black"/>
	<path d="M38.3005 22.9384C37.9196 21.4329 37.5388 19.936 37.158 18.4305C38.9843 17.8941 40.8452 17.747 42.7321 17.9114C44.0823 18.0238 45.4326 18.1969 46.7309 18.6641C47.1723 18.8199 47.3714 18.9323 47.1723 19.4515C46.7396 20.559 46.3674 21.7011 45.9606 22.8173C45.874 23.0595 45.8048 23.3797 45.4066 23.2499C43.0696 22.4712 40.6894 22.6096 38.3005 22.947V22.9384Z" fill="#E40179"/>
	<path d="M178.692 29.6007C180.111 29.3325 181.107 29.6007 181.678 31.0803C182.197 32.4041 183.02 33.6154 183.677 34.8873C183.781 35.0863 183.894 35.2853 184.093 35.3113C184.179 35.3113 184.301 35.0517 184.387 34.896C185.27 33.278 186.162 31.6687 187.027 30.042C187.2 29.7132 187.399 29.5402 187.78 29.5488C188.351 29.5661 188.923 29.5488 189.511 29.5488C189.459 30.1545 189.07 30.5265 188.827 30.9592C187.694 33.0011 186.508 35.0085 185.313 37.0158C185.132 37.3186 185.071 37.6042 185.071 37.933C185.071 39.153 185.045 40.3816 185.088 41.6016C185.106 42.164 184.907 42.2851 184.387 42.2765C182.708 42.2332 183.028 42.4322 182.994 40.9007C182.994 40.7363 182.968 40.5719 182.994 40.4075C183.426 37.9762 182.362 36.0035 181.115 34.0567C180.285 32.7589 179.557 31.3918 178.778 30.0593C178.701 29.9209 178.579 29.7911 178.683 29.5921L178.692 29.6007Z" fill="black"/>
	<path d="M170.668 35.8219C170.668 33.9703 170.686 32.1274 170.66 30.2758C170.651 29.7134 170.798 29.5143 171.378 29.5403C173.066 29.5922 172.746 29.3759 172.754 30.916C172.772 33.8232 172.789 36.7304 172.746 39.6376C172.737 40.3731 172.962 40.5461 173.672 40.5288C175.498 40.4769 177.324 40.5461 179.142 40.4942C179.878 40.4769 179.835 40.8663 179.826 41.3508C179.817 41.8353 179.938 42.3025 179.125 42.2852C176.537 42.2333 173.949 42.2506 171.37 42.2852C170.764 42.2852 170.66 42.0603 170.668 41.5238C170.694 39.6203 170.677 37.7168 170.677 35.8219H170.668Z" fill="black"/>
	<path d="M64.9592 35.9515C64.9592 34.048 64.9765 32.1444 64.9505 30.2409C64.9505 29.7304 65.0457 29.5401 65.6083 29.5401C67.0538 29.5401 67.0538 29.5141 67.0538 30.9331C67.0538 33.8143 67.0711 36.6956 67.0365 39.5768C67.0278 40.2863 67.1663 40.5632 67.9626 40.5372C69.7889 40.468 71.6152 40.5459 73.4415 40.5026C74.2032 40.4853 74.0993 40.9266 74.0993 41.3852C74.0993 41.8351 74.2205 42.3023 73.4502 42.285C70.8362 42.2504 68.2223 42.2504 65.5997 42.285C65.0284 42.285 64.9419 42.0773 64.9505 41.5755C64.9765 39.6979 64.9592 37.8204 64.9592 35.9428V35.9515Z" fill="black"/>
	</g>
	<defs>
	<clipPath id="clip0_453_4719">
	<rect width="206" height="73" fill="white" transform="translate(0 0.217285)"/>
	</clipPath>
	</defs>
</svg>
	