<svg width="165" height="90" viewBox="0 0 165 90" fill="none" xmlns="http://www.w3.org/2000/svg">
<path d="M99.8875 29.697C108.946 28.599 116.494 24.4817 124.18 20.5016C129.944 17.6194 135.571 14.7373 141.473 11.9924C145.041 10.3454 148.747 9.38471 152.727 9.6592C159.864 10.2082 164.53 14.8745 164.53 22.1485C164.53 31.8929 159.864 39.3041 151.629 44.2449C142.571 49.7347 133.101 49.7347 123.494 45.6174C115.808 42.3235 109.22 37.2454 102.77 32.0301C101.946 31.4812 100.985 30.6577 99.8875 29.697Z" fill="#7CBFE7"/>
<path fill-rule="evenodd" clip-rule="evenodd" d="M117.592 71.0075C133.101 72.38 145.727 67.0274 155.197 53.9892C154.511 54.2637 154.236 54.4009 153.962 54.5381C145.178 57.832 136.257 58.5182 127.199 56.4596C118.141 54.4009 110.318 50.0091 102.907 44.931C92.2017 37.657 82.5946 29.0107 72.9875 20.3643L72.9874 20.3641C66.6741 14.7371 60.0863 9.52178 52.5378 5.54167C45.4011 1.69881 37.8526 -0.359864 29.6179 0.0518711C13.972 1.01259 1.34545 13.3646 0.110246 29.0106C-0.713224 39.9902 3.12963 49.4601 9.85464 57.9693L11.0898 59.2045C11.3643 53.9892 12.5995 49.3228 15.7562 45.3427C22.4812 36.8335 31.2649 34.7749 41.421 36.8335C48.146 38.0687 54.0475 41.4999 59.8118 44.931C61.2688 45.814 62.7259 46.7006 64.184 47.5879C71.7911 52.2168 79.4293 56.8647 87.2608 61.1259C96.7307 66.3412 106.75 70.0468 117.592 71.0075ZM93.8481 89.1239C103.592 87.8887 112.788 85.1438 121.572 80.8892C120.539 80.756 119.507 80.6309 118.476 80.506C115.26 80.1162 112.063 79.7287 108.945 79.105C97.8282 77.0463 87.8093 72.38 78.2022 66.8902C72.1633 63.4133 66.2465 59.8144 60.3297 56.2155C57.3713 54.4161 54.413 52.6167 51.4394 50.8326C47.1848 48.3621 42.7929 46.4407 37.8521 45.6172C29.7547 44.382 22.8924 48.0877 20.8337 55.0871C19.1868 60.577 20.971 65.3805 24.2649 69.7724C27.0098 73.3407 30.5781 75.8111 34.421 78.0071C53.0863 88.1632 72.8496 91.8688 93.8481 89.1239Z" fill="#203F7D"/>
</svg>
